<?xml version="1.0" encoding="UTF-8"?>
<!DOCTYPE svg PUBLIC "-//W3C//DTD SVG 1.1//EN" "http://www.w3.org/Graphics/SVG/1.1/DTD/svg11.dtd">
<svg xmlns="http://www.w3.org/2000/svg" version="1.1" width="800px" height="800px" style="shape-rendering:geometricPrecision; text-rendering:geometricPrecision; image-rendering:optimizeQuality; fill-rule:evenodd; clip-rule:evenodd" xmlns:xlink="http://www.w3.org/1999/xlink">
<g><path style="opacity:0.932" fill="#000000" d="M 391.5,243.5 C 409.211,242.208 425.877,245.708 441.5,254C 455.119,265.029 454.786,275.695 440.5,286C 421.78,295.293 402.114,297.96 381.5,294C 370.101,292.217 360.268,287.384 352,279.5C 347.342,272.872 347.342,266.205 352,259.5C 363.484,249.951 376.651,244.618 391.5,243.5 Z"/></g>
<g><path style="opacity:0.923" fill="#000000" d="M 175.5,278.5 C 184.173,278.334 192.84,278.5 201.5,279C 212.983,280.251 222.483,285.084 230,293.5C 231.504,297.039 231.837,300.705 231,304.5C 224.681,313.084 216.181,318.25 205.5,320C 186.727,324.05 169.061,321.383 152.5,312C 142.977,303.309 143.311,294.976 153.5,287C 160.461,282.852 167.795,280.019 175.5,278.5 Z"/></g>
<g><path style="opacity:0.923" fill="#000000" d="M 595.5,278.5 C 609.161,277.411 622.494,278.911 635.5,283C 642.081,285.198 646.915,289.364 650,295.5C 651.736,303.191 649.236,309.024 642.5,313C 622.418,322.732 601.751,324.065 580.5,317C 573.041,314.538 567.874,309.705 565,302.5C 564.372,295.92 566.872,290.753 572.5,287C 579.887,283.042 587.554,280.208 595.5,278.5 Z"/></g>
<g><path style="opacity:0.969" fill="#000000" d="M 396.5,303.5 C 404.424,302.907 411.257,305.241 417,310.5C 422.595,327.621 429.929,343.954 439,359.5C 442.998,365.979 447.832,371.812 453.5,377C 461.213,382.941 469.546,383.941 478.5,380C 507.39,367.561 534.056,351.561 558.5,332C 568.672,326.433 579.006,326.099 589.5,331C 591.594,332.255 592.594,334.088 592.5,336.5C 588.575,347.774 584.742,359.107 581,370.5C 577.684,380.368 577.018,390.368 579,400.5C 579.786,403.583 581.619,405.749 584.5,407C 590.167,407.667 595.833,407.667 601.5,407C 613.639,404.965 625.639,402.299 637.5,399C 665.437,390.799 693.104,381.799 720.5,372C 727.004,371.07 733.338,371.736 739.5,374C 743.557,375.947 745.057,379.114 744,383.5C 732.23,391.97 720.73,400.803 709.5,410C 685.498,431.012 670.331,457.179 664,488.5C 663.565,500.183 663.565,511.85 664,523.5C 662.542,525.96 660.709,528.127 658.5,530C 641.097,538.268 622.764,543.268 603.5,545C 535.708,552.364 467.708,555.864 399.5,555.5C 334.331,555.673 269.331,552.507 204.5,546C 186.401,544.373 168.734,540.706 151.5,535C 145.897,532.952 141.064,529.786 137,525.5C 140.73,485.021 128.73,450.021 101,420.5C 87.1041,406.733 72.1041,394.4 56,383.5C 54.462,378.88 55.962,375.713 60.5,374C 66.3282,371.773 72.3282,371.107 78.5,372C 108.561,382.464 138.894,392.131 169.5,401C 184.523,405.607 199.856,407.607 215.5,407C 218.381,405.749 220.214,403.583 221,400.5C 222.832,389.301 221.832,378.301 218,367.5C 214.723,356.948 210.89,346.615 206.5,336.5C 210.676,329.663 216.843,326.663 225,327.5C 230.236,327.024 235.069,328.19 239.5,331C 261.161,347.64 284.161,362.307 308.5,375C 317.021,379.38 326.021,381.713 335.5,382C 343.056,379.966 349.223,375.799 354,369.5C 366.579,351.341 376.245,331.675 383,310.5C 386.756,306.539 391.256,304.206 396.5,303.5 Z M 336.5,509.5 C 410.254,508.161 483.921,509.994 557.5,515C 569.205,516.004 580.872,517.337 592.5,519C 580.376,521.516 568.043,523.182 555.5,524C 451.833,531.327 348.167,531.327 244.5,524C 231.69,523.133 219.023,521.466 206.5,519C 249.856,514 293.189,510.834 336.5,509.5 Z"/></g>
<g><path style="opacity:0.889" fill="#000000" d="M -0.5,364.5 C -0.5,360.833 -0.5,357.167 -0.5,353.5C 10.5032,345.396 22.8365,342.563 36.5,345C 44.2569,345.691 50.7569,348.858 56,354.5C 58.2663,360.813 56.4329,365.646 50.5,369C 35.1734,376.283 19.8401,376.283 4.5,369C 2.96252,367.293 1.29585,365.793 -0.5,364.5 Z"/></g>
<g><path style="opacity:0.889" fill="#000000" d="M 799.5,353.5 C 799.5,357.167 799.5,360.833 799.5,364.5C 793.471,370.462 786.138,373.628 777.5,374C 765.132,375.597 753.965,372.763 744,365.5C 740.427,359.95 741.26,355.116 746.5,351C 758.785,344.441 771.785,342.775 785.5,346C 790.639,347.735 795.306,350.235 799.5,353.5 Z"/></g>
</svg>
