<?xml version="1.0" encoding="iso-8859-1"?>
<!-- Uploaded to: SVG Repo, www.svgrepo.com, Generator: SVG Repo Mixer Tools -->
<!DOCTYPE svg PUBLIC "-//W3C//DTD SVG 1.1//EN" "http://www.w3.org/Graphics/SVG/1.1/DTD/svg11.dtd">
<svg fill="#000000" version="1.1" id="Capa_1" xmlns="http://www.w3.org/2000/svg" xmlns:xlink="http://www.w3.org/1999/xlink" 
	 width="800px" height="800px" viewBox="0 0 931.316 931.316"
	 xml:space="preserve">
<g transform="translate(0, -30)">
	<path d="M390.53,702.023h150.255l-75.127-129.996L390.53,702.023z M443.361,674.271l22.297-38.582l22.296,38.582H443.361
		L443.361,674.271z"/>
	<path d="M822.837,464.958c13.43-31.464,22.452-63.093,26.818-94.011c5.735-40.606,3.514-80.391-6.6-118.248
		c-12.042-45.072-35.38-87.76-69.361-126.877c-18.075-20.806-39.407-39.573-63.404-55.784
		c-22.811-15.408-48.144-28.589-75.296-39.171C583.187,10.674,524.63,0,465.658,0c-58.973,0-117.529,10.674-169.337,30.869
		c-27.152,10.582-52.485,23.763-75.296,39.171c-23.997,16.211-45.329,34.979-63.404,55.784
		c-33.983,39.117-57.319,81.805-69.361,126.877c-10.114,37.857-12.334,77.641-6.6,118.248c4.366,30.918,13.389,62.547,26.818,94.011
		c10.656,24.964,21.878,44.802,30.465,59.292c18.477,31.188,0.19,63.799,0,64.117l-6.495,10.963l2.529,12.488l26.233,129.539
		l5.375,26.541h27.079c22.18,0,41.572,5.553,59.283,16.979c14.562,9.393,27.784,22.766,39.301,39.742
		c20.23,29.828,27.941,55.16,28.013,55.457l2.507,10.35l8.067,6.947c17.187,14.801,42.752,24.576,78.16,29.893
		c24.346,3.654,46.266,4.049,54.562,4.049c0.942,0,1.65-0.006,2.104-0.01c0.453,0.004,1.161,0.01,2.101,0.01
		c8.295,0,30.214-0.395,54.558-4.049c35.41-5.314,60.977-15.092,78.163-29.893l8.161-7.027l2.4-10.213
		c0.374-1.459,8.461-27.277,29.03-56.977c11.487-16.584,24.633-29.631,39.075-38.775c17.511-11.09,36.648-16.482,58.506-16.482
		h27.079l5.375-26.539l26.232-129.541l2.609-12.883l-6.497-10.441c-1.572-2.867-17.906-34.15-0.077-64.242
		C800.959,509.76,812.182,489.924,822.837,464.958z M763.886,507.373c-28.994,48.938,0,97.875,0,97.875l-26.233,129.539
		c-124.262,0-158.779,137.496-158.779,137.496c-28.731,24.742-98.153,25.92-111.112,25.92c-1.364,0-2.103-0.014-2.103-0.014
		s-0.737,0.014-2.103,0.014c-12.967,0-82.384-1.18-111.113-25.92c0,0-34.518-137.496-158.779-137.496L167.43,605.248
		c0,0,28.994-48.938,0-97.875c-12.37-20.879-35.545-61.672-47.762-113.433l71.988-43.318l15.903-78.353l-32.341-6.564
		l-13.015,64.126l-48.678,29.292c-7.336-63.288,5.255-138.103,69.093-211.584C248.89,71.255,357.274,33.113,465.658,33.113
		c67.455,0,134.907,14.778,192.209,44.326l-46.264,144.453l-63.825,24.341l11.759,30.834l78.653-29.995l48.898-152.681
		c23.023,14.974,43.832,32.687,61.608,53.148C881.244,300.11,792.879,458.436,763.886,507.373z"/>
	<path d="M437.269,530.922c7.925-11.867,15.187-31.684,4.776-58.686c-10.488-27.208-31.34-48.446-60.297-61.42
		c-29.029-13.007-59.33-15.123-79.638-14.607c-18.015,0.457-35.181,3.126-49.647,7.72c-16.943,5.38-28.363,12.848-33.943,22.196
		c-8.89,14.894-11.076,38.104-6.684,70.956c2.992,22.387,8.034,41.037,8.248,41.822l0.965,3.547l2.377,2.807
		c17.305,20.426,55.33,31.918,101.716,30.742C377.391,574.674,419.307,557.822,437.269,530.922z M409.731,512.533
		c-11.456,17.156-45.786,29.357-85.43,30.363c-31.984,0.812-61.194-5.953-73.28-16.676c-1.54-6.311-4.493-19.367-6.413-33.875
		c-4.498-33.991,0.513-46.096,2.278-49.139c3.449-4.338,23.889-13.081,56.062-13.896c23.859-0.604,47.036,3.559,65.261,11.724
		c21.11,9.459,35.558,23.965,42.94,43.115C413.905,491.295,416.756,502.014,409.731,512.533z"/>
	<path d="M678.853,403.928c-14.465-4.594-31.633-7.263-49.647-7.72c-20.308-0.516-50.608,1.602-79.638,14.607
		c-28.958,12.975-49.809,34.212-60.297,61.42c-10.41,27.002-3.148,46.816,4.776,58.686c17.962,26.898,59.88,43.752,112.127,45.076
		c46.387,1.176,84.411-10.316,101.717-30.742l2.377-2.807l0.965-3.547c0.214-0.785,5.255-19.438,8.248-41.822
		c4.392-32.853,2.205-56.062-6.685-70.956C707.215,416.776,695.795,409.308,678.853,403.928z M686.707,492.346
		c-1.92,14.508-4.874,27.564-6.413,33.875c-12.085,10.723-41.295,17.486-73.28,16.676c-39.643-1.006-73.973-13.207-85.429-30.363
		c-7.024-10.52-4.174-21.236-1.418-28.385c7.382-19.15,21.829-33.656,42.94-43.115c18.224-8.165,41.4-12.327,65.261-11.724
		c32.173,0.815,52.613,9.56,56.062,13.896C686.194,446.25,691.205,458.355,686.707,492.346z"/>
</g>
</svg>