<?xml version='1.0' encoding='iso-8859-1'?>
<!DOCTYPE svg PUBLIC '-//W3C//DTD SVG 1.1//EN' 'http://www.w3.org/Graphics/SVG/1.1/DTD/svg11.dtd'>
<!-- Uploaded to: SVG Repo, www.svgrepo.com, Generator: SVG Repo Mixer Tools -->
<svg fill="#000000" height="800px" width="800px" version="1.1" xmlns="http://www.w3.org/2000/svg" viewBox="0 0 448.979 448.979" xmlns:xlink="http://www.w3.org/1999/xlink" enable-background="new 0 0 448.979 448.979">
  <g>
    <path d="m392.481,0h-335.983c-5.523,0-10,4.477-10,10v428.979c0,5.523 4.477,10 10,10h335.983c5.523,0 10-4.477 10-10v-428.979c0-5.523-4.477-10-10-10zm-10,428.979h-315.983v-408.979h315.983v408.979z"/>
    <path d="m92.12,337.984h268.529c5.523,0 10-4.477 10-10v-284.534c0-5.523-4.477-10-10-10h-268.529c-5.523,0-10,4.477-10,10v284.535c0,5.522 4.477,9.999 10,9.999zm230.012-20h-191.49v-11.495h191.49v11.495zm20,0v-21.495c0-5.523-4.477-10-10-10h-211.49c-5.523,0-10,4.477-10,10v21.495h-8.521v-173.49h151.367v24.499c0,5.523 4.477,10 10,10h2.905v30.497c0,5.523 4.477,10 10,10h3.345v2c0,5.523 4.477,10 10,10s10-4.477 10-10v-2h3.345c5.523,0 10-4.477 10-10v-30.497h2.903c5.523,0 10-4.477 10-10v-24.499h24.665v173.491h-8.519zm-88.645-193.491h-151.367v-9.995h151.367v9.995zm39.595,74.995h-6.69v-20.497h6.69v20.497zm12.903-40.497h-32.498v-65.495h32.498v65.495zm20-44.493h24.665v9.995h-24.665v-9.995zm24.664-61.049v41.049h-24.665v-11.002c0-5.523-4.477-10-10-10h-52.498c-5.523,0-10,4.477-10,10v11.002h-151.366v-41.049h248.529z"/>
    <path d="m289.737,241.487c-5.523,0-10,4.477-10,10v2h-2c-5.523,0-10,4.477-10,10s4.477,10 10,10h12c5.523,0 10-4.477 10-10v-12c0-5.523-4.477-10-10-10z"/>
    <path d="m238.364,253.487h-26.999c-5.523,0-10,4.477-10,10s4.477,10 10,10h26.999c5.523,0 10-4.477 10-10s-4.477-10-10-10z"/>
    <path d="m171.992,253.487h-12c-5.523,0-10,4.477-10,10s4.477,10 10,10h12c5.523,0 10-4.477 10-10s-4.477-10-10-10z"/>
    <path d="m107.492,371.978c-2.63,0-5.21,1.07-7.07,2.93-1.86,1.86-2.93,4.44-2.93,7.07 0,2.64 1.07,5.21 2.93,7.07 1.86,1.87 4.44,2.93 7.07,2.93 2.64,0 5.21-1.06 7.07-2.93 1.87-1.86 2.93-4.43 2.93-7.07 0-2.63-1.06-5.21-2.93-7.07-1.86-1.86-4.44-2.93-7.07-2.93z"/>
    <path d="m148.742,371.978c-2.63,0-5.21,1.07-7.07,2.93-1.86,1.86-2.93,4.44-2.93,7.07 0,2.64 1.07,5.21 2.93,7.07 1.86,1.87 4.44,2.93 7.07,2.93 2.63,0 5.21-1.06 7.07-2.93 1.86-1.86 2.93-4.44 2.93-7.07s-1.07-5.21-2.93-7.07-4.44-2.93-7.07-2.93z"/>
    <path d="m189.992,371.978c-2.63,0-5.21,1.07-7.07,2.93-1.86,1.86-2.93,4.44-2.93,7.07 0,2.64 1.07,5.21 2.93,7.07 1.86,1.87 4.44,2.93 7.07,2.93 2.63,0 5.21-1.06 7.07-2.93 1.86-1.86 2.93-4.43 2.93-7.07 0-2.63-1.07-5.21-2.93-7.07s-4.44-2.93-7.07-2.93z"/>
  </g>
</svg>