<?xml version="1.0" encoding="iso-8859-1"?>
<!-- Uploaded to: SVG Repo, www.svgrepo.com, Generator: SVG Repo Mixer Tools -->
<svg fill="#000000" height="800px" width="800px" version="1.1" id="Layer_1" xmlns="http://www.w3.org/2000/svg" xmlns:xlink="http://www.w3.org/1999/xlink" 
	 viewBox="0 0 511.999 511.999" xml:space="preserve">
<g>
	<g>
		<path d="M465.764,0H46.236c-9.855,0-17.845,7.99-17.845,17.845v268.146c0,39.426,11.572,77.598,33.462,110.389
			c21.892,32.79,52.71,58.113,89.123,73.228l98.836,41.028c2.19,0.909,4.517,1.363,6.841,1.363c2.339,0,4.678-0.46,6.877-1.379
			l97.897-40.893c74.221-31.003,122.18-103.011,122.18-183.448V17.845C483.609,7.99,475.619,0,465.764,0z M64.08,35.689h174.1
			l0.236,172.055H64.08V35.689z M164.66,436.646c-61.1-25.364-100.58-84.5-100.58-150.655v-42.558h174.386l0.307,223.98
			L164.66,436.646z M273.869,35.689h174.05v172.055H274.106L273.869,35.689z M447.919,286.28
			c0,65.997-39.349,125.079-100.246,150.517l-73.21,30.582l-0.307-223.946h173.764V286.28z"
			/>
	</g>
</g>
</svg>
