<?xml version="1.0" encoding="UTF-8"?>
<!DOCTYPE svg PUBLIC "-//W3C//DTD SVG 1.1//EN" "http://www.w3.org/Graphics/SVG/1.1/DTD/svg11.dtd">
<svg xmlns="http://www.w3.org/2000/svg" version="1.1" width="800px" height="800px" style="shape-rendering:geometricPrecision; text-rendering:geometricPrecision; image-rendering:optimizeQuality; fill-rule:evenodd; clip-rule:evenodd" xmlns:xlink="http://www.w3.org/1999/xlink">
<g transform="translate(0, 12)"><path style="opacity:0.981" fill="#000000" d="M 396.5,48.5 C 398.527,48.3379 400.527,48.5045 402.5,49C 506.87,83.7345 611.204,118.568 715.5,153.5C 716.667,222.164 716.833,290.831 716,359.5C 705.643,483.766 650.143,581.932 549.5,654C 499.636,687.363 449.636,720.53 399.5,753.5C 349.364,720.53 299.364,687.363 249.5,654C 148.857,581.932 93.3567,483.766 83,359.5C 82.1667,290.831 82.3334,222.164 83.5,153.5C 188.005,118.665 292.338,83.6653 396.5,48.5 Z M 419.5,91.5 C 506.946,120.093 594.279,149.093 681.5,178.5C 682.783,240.172 682.783,301.838 681.5,363.5C 594.167,363.5 506.833,363.5 419.5,363.5C 419.5,272.833 419.5,182.167 419.5,91.5 Z M 373.5,92.5 C 375.144,92.2865 376.644,92.6198 378,93.5C 378.5,183.499 378.667,273.499 378.5,363.5C 291.5,363.5 204.5,363.5 117.5,363.5C 116.213,301.839 116.213,240.172 117.5,178.5C 203.005,149.999 288.338,121.332 373.5,92.5 Z M 147.5,399.5 C 224.5,399.5 301.5,399.5 378.5,399.5C 378.833,498.836 378.5,598.169 377.5,697.5C 334.423,669.254 291.757,640.421 249.5,611C 182.313,556.558 139.979,486.725 122.5,401.5C 130.99,400.833 139.324,400.167 147.5,399.5 Z M 419.5,399.5 C 493.834,399.333 568.167,399.5 642.5,400C 653.848,400.168 665.181,400.668 676.5,401.5C 659.01,486.732 616.677,556.565 549.5,611C 506.765,640.786 463.599,669.952 420,698.5C 419.5,598.834 419.333,499.167 419.5,399.5 Z"/></g>
</svg>
