<?xml version='1.0' encoding='utf-8'?>
<svg xmlns="http://www.w3.org/2000/svg" width="850" height="850" viewBox="0 0 850 850"><circle cx="425" cy="425" r="415" stroke="black" stroke-width="5" fill="#DAA520" /><circle cx="425" cy="425" r="380" stroke="black" stroke-width="5" fill="#FFD700" /><g transform="translate(175, 250)"><g>
	<g>
		<path d="M465.764,0H46.236c-9.855,0-17.845,7.99-17.845,17.845v268.146c0,39.426,11.572,77.598,33.462,110.389    c21.892,32.79,52.71,58.113,89.123,73.228l98.836,41.028c2.19,0.909,4.517,1.363,6.841,1.363c2.339,0,4.678-0.46,6.877-1.379    l97.897-40.893c74.221-31.003,122.18-103.011,122.18-183.448V17.845C483.609,7.99,475.619,0,465.764,0z M64.08,35.689h174.1    l0.236,172.055H64.08V35.689z M164.66,436.646c-61.1-25.364-100.58-84.5-100.58-150.655v-42.558h174.386l0.307,223.98    L164.66,436.646z M273.869,35.689h174.05v172.055H274.106L273.869,35.689z M447.919,286.28    c0,65.997-39.349,125.079-100.246,150.517l-73.21,30.582l-0.307-223.946h173.764V286.28z" stroke="black" stroke-width="5" fill="#DAA520" />
	</g>
</g>
<g transform="translate(90,70) scale(1.2865906377372471)"><path id="Path_28" data-name="Path 28" d="M736.185,530.844h8.3a2,2,0,0,0,0-4h-8.3a2,2,0,0,0,0,4Zm52.4,31.693-7.346-29.879a7.961,7.961,0,0,0-5.392-5.508,2,2,0,0,0-1.155,3.831,4.027,4.027,0,0,1,2.662,2.634l7.348,29.876a2.168,2.168,0,0,1,.066.515,2.242,2.242,0,0,1-.1.51,1.063,1.063,0,0,1-.317.466.446.446,0,0,1-.056.041.744.744,0,0,1-.1.065,2.376,2.376,0,0,1-.9.216h-.012v0h-86.17c-.074-.005-.136-.016-.2-.024a2.687,2.687,0,0,1-.5-.1c-.016-.005-.025-.012-.041-.017a1.38,1.38,0,0,1-.2-.086.867.867,0,0,1-.115-.08.817.817,0,0,1-.067-.049.93.93,0,0,1-.121-.138l-.018-.021a1.172,1.172,0,0,1-.091-.173l-.012-.024a1.374,1.374,0,0,1-.053-.164c-.01-.035-.019-.069-.027-.106-.006-.02-.01-.043-.014-.063-.013-.081-.025-.165-.035-.256a2.23,2.23,0,0,1,.068-.513l7.348-29.878a3.972,3.972,0,0,1,2.221-2.468,2,2,0,0,0-1.627-3.655,7.905,7.905,0,0,0-4.477,5.168L691.8,562.535a6.152,6.152,0,0,0-.184,1.469c0,.009,0,.018,0,.027a1.949,1.949,0,0,0,0,.418l3.316,31.948a2,2,0,0,0,1.989,1.792h86.814a2,2,0,0,0,1.992-1.812l2.967-31.54c0-.037,0-.072,0-.108a5.308,5.308,0,0,0,.068-.723A6.144,6.144,0,0,0,788.586,562.537Zm-6.664,31.653H698.73l-2.589-24.948a5.473,5.473,0,0,0,.97.063h86.2c.027,0,.052-.007.078-.007a5.52,5.52,0,0,0,.886-.061Zm-62-53.788a20.445,20.445,0,0,0,8.164-1.535,8.934,8.934,0,0,0,2.863-1.927,4.643,4.643,0,0,0,1.363-3.182v-2.5l0-4.6c0-.013,0-.025,0-.039a4.635,4.635,0,0,0-1.363-3.182c-2.347-2.356-6.351-3.409-11.027-3.465a20.486,20.486,0,0,0-8.166,1.537,8.916,8.916,0,0,0-2.861,1.928,4.629,4.629,0,0,0-1.366,3.182c0,.014,0,.026,0,.039l0,4.859v2.238a4.652,4.652,0,0,0,1.364,3.182C711.238,539.295,715.242,540.348,719.92,540.4Zm-8.393-13.78c0-.016-.011-.126.272-.432.806-.983,4.189-2.27,8.121-2.213a16.63,16.63,0,0,1,6.531,1.185,5.009,5.009,0,0,1,1.59,1.028c.283.306.268.416.271.432v0h-.005c0,.014.005.136-.284.446-.83.982-4.193,2.252-8.1,2.2-.326,0-.651-.007-.969-.021-.062,0-.123-.01-.183-.013-.256-.013-.51-.029-.756-.051-.061-.006-.118-.015-.176-.021-.246-.024-.49-.051-.727-.084-.076-.011-.148-.024-.224-.036-.213-.033-.426-.065-.631-.1-.1-.019-.186-.041-.281-.061-.176-.036-.354-.071-.524-.112-.146-.036-.285-.076-.426-.116-.1-.028-.214-.054-.316-.085-.213-.063-.412-.13-.6-.2-.024-.009-.051-.016-.075-.024-.215-.079-.42-.162-.611-.248a5.15,5.15,0,0,1-1.6-1.023c-.291-.31-.283-.432-.285-.446h0Zm0,5.007c.141.067.291.126.436.188.111.049.221.1.334.146.367.147.746.281,1.14.4.112.035.231.065.346.1.319.091.645.173.979.248.132.029.261.06.4.086.438.089.883.167,1.344.229.08.011.162.019.244.029q.609.077,1.242.125l.406.029c.5.031,1.008.055,1.526.061.777,0,1.535-.037,2.269-.1.342-.031.661-.092.991-.137.38-.05.775-.089,1.14-.158s.674-.162,1.008-.244.656-.142.961-.233c.281-.085.529-.2.8-.292.322-.117.66-.22.961-.353l.031-.015.006,0,.019-.009.207-.1v2.131c0,.014.012.125-.269.433-.809.981-4.189,2.27-8.121,2.212a16.61,16.61,0,0,1-6.531-1.186,5.069,5.069,0,0,1-1.59-1.026c-.283-.31-.268-.419-.272-.433Zm48.434,8.773a20.452,20.452,0,0,0,8.164-1.535,8.934,8.934,0,0,0,2.863-1.927,4.648,4.648,0,0,0,1.364-3.182v-2.5l0-4.6h0c0-.013,0-.025,0-.039a4.631,4.631,0,0,0-1.364-3.182c-2.345-2.356-6.349-3.409-11.027-3.465a20.48,20.48,0,0,0-8.164,1.537,8.906,8.906,0,0,0-2.861,1.928,4.62,4.62,0,0,0-1.366,3.182c0,.014,0,.026,0,.039l0,4.859v2.238a4.635,4.635,0,0,0,1.364,3.182C751.277,539.295,755.283,540.348,759.961,540.4Zm-8.393-13.78c0-.016-.013-.126.27-.432.808-.983,4.189-2.27,8.121-2.213a16.623,16.623,0,0,1,6.531,1.185,5,5,0,0,1,1.592,1.028c.283.306.268.416.27.432v0h-.006c0,.014.006.136-.284.446-.826.978-4.168,2.243-8.058,2.2h-.043c-.092,0-.18-.005-.27-.006-.234,0-.468-.005-.7-.015-.137-.007-.269-.018-.4-.027-.18-.012-.36-.021-.535-.037-.119-.011-.231-.028-.348-.04-.186-.021-.373-.039-.553-.065-.107-.014-.207-.034-.31-.05-.184-.029-.371-.056-.547-.089-.106-.02-.2-.044-.3-.066-.168-.035-.34-.068-.5-.107-.138-.034-.267-.072-.4-.108-.113-.031-.233-.06-.342-.093-.2-.059-.387-.124-.57-.189-.035-.012-.074-.023-.11-.036-.214-.079-.42-.161-.611-.247a5.175,5.175,0,0,1-1.6-1.023c-.287-.31-.281-.432-.281-.446h-.006Zm0,5.006c.135.064.28.121.418.182.119.052.237.107.36.156.363.145.736.278,1.125.4.121.037.244.069.367.1q.468.132.957.242c.135.03.269.062.408.089.436.088.879.166,1.336.228.084.011.172.019.256.03q.6.075,1.228.124l.414.029c.5.031,1,.054,1.516.061h.008c.777,0,1.535-.038,2.269-.1.256-.023.495-.071.745-.1.468-.058.941-.109,1.388-.193.307-.057.586-.143.881-.213.365-.087.742-.161,1.086-.265.266-.08.5-.186.754-.277.338-.12.689-.228,1-.367l.033-.015,0,0,.014-.006.215-.1v2.131c0,.014.011.123-.272.433-.807.981-4.189,2.27-8.119,2.212a16.613,16.613,0,0,1-6.533-1.186,5.094,5.094,0,0,1-1.59-1.026c-.281-.31-.266-.419-.27-.433Zm-49.531,16.614c0,.018,0,.034,0,.052l0,4v4.84a5.275,5.275,0,0,0,1.564,3.629c2.737,2.765,7.653,4.107,13.393,4.165a25.108,25.108,0,0,0,9.977-1.871,10.7,10.7,0,0,0,3.414-2.294,5.3,5.3,0,0,0,1.566-3.629v-4.149l0-4.694c0-.018,0-.034,0-.052a5.3,5.3,0,0,0-1.566-3.629c-2.737-2.767-7.653-4.108-13.391-4.165a25.12,25.12,0,0,0-9.98,1.87,10.689,10.689,0,0,0-3.414,2.295A5.3,5.3,0,0,0,702.037,548.242Zm25.914,8.9c0,.174-.058.433-.471.88-1.2,1.393-5.49,2.969-10.484,2.914a21.258,21.258,0,0,1-8.348-1.523,6.861,6.861,0,0,1-2.14-1.391c-.41-.447-.467-.706-.469-.88v-3.46c.063.034.135.061.2.1q.531.282,1.108.528c.17.072.347.139.521.207q.477.183.979.345c.179.057.355.116.541.17.472.136.959.261,1.463.371.082.017.166.035.25.051.507.1,1.029.192,1.562.268.186.027.375.049.565.072q.647.08,1.316.132c.185.016.369.031.557.043.621.039,1.252.067,1.9.073h0c.072,0,.143,0,.215-.005.4,0,.8-.009,1.2-.027.2-.009.4-.027.6-.041.26-.017.521-.029.775-.052.219-.02.432-.05.647-.074s.459-.047.683-.078.442-.071.662-.108.418-.063.621-.1c.225-.042.442-.094.661-.142.189-.041.382-.078.568-.122.23-.056.451-.121.676-.183.164-.045.334-.086.494-.135.232-.07.453-.149.678-.226.142-.049.291-.092.431-.144.242-.089.471-.187.7-.283.106-.044.219-.084.323-.13l.011-.005.036-.015c.337-.152.664-.312.978-.482ZM706.51,547.36c1.2-1.391,5.49-2.967,10.486-2.913a21.209,21.209,0,0,1,8.346,1.524,6.806,6.806,0,0,1,2.138,1.389c.413.447.469.708.471.882v.012h0a1.02,1.02,0,0,1-.236.584l-.008.009a3.142,3.142,0,0,1-.246.294c-1.225,1.391-5.5,2.947-10.463,2.892-.416,0-.828-.009-1.232-.026l-.153-.011c-.351-.017-.7-.04-1.041-.071-.074-.007-.142-.018-.215-.025-.316-.032-.628-.065-.933-.108-.07-.01-.135-.022-.2-.033-.3-.045-.6-.091-.891-.146-.066-.012-.127-.028-.193-.041-.283-.056-.567-.115-.836-.18-.076-.019-.147-.04-.221-.06-.252-.063-.5-.129-.74-.2-.088-.026-.166-.057-.254-.084-.211-.067-.426-.135-.623-.208-.121-.045-.231-.093-.346-.14-.15-.06-.306-.119-.447-.181s-.238-.117-.358-.174-.236-.112-.341-.168c-.149-.081-.28-.163-.412-.245-.057-.035-.123-.071-.178-.106a4.888,4.888,0,0,1-.848-.685,1.384,1.384,0,0,1-.49-.887h0l0-.012C706.041,548.068,706.1,547.809,706.51,547.36Zm69.5-2.747c-2.737-2.767-7.654-4.108-13.393-4.165a25.1,25.1,0,0,0-9.976,1.87,10.644,10.644,0,0,0-3.414,2.295,5.3,5.3,0,0,0-1.565,3.629c0,.03,0,.057,0,.086l0,3.346v5.463a5.274,5.274,0,0,0,1.567,3.629c2.734,2.765,7.652,4.107,13.388,4.165a25.114,25.114,0,0,0,9.981-1.871,10.7,10.7,0,0,0,3.412-2.294,5.284,5.284,0,0,0,1.564-3.629v-6.393l0-2.45c0-.018,0-.034,0-.052A5.292,5.292,0,0,0,776.006,544.613Zm-2.436,12.524c0,.174-.058.433-.468.88-1.2,1.393-5.493,2.969-10.489,2.914a21.237,21.237,0,0,1-8.344-1.523,6.79,6.79,0,0,1-2.14-1.391c-.412-.447-.469-.706-.471-.88v-3.46c.037.02.08.036.117.056.383.207.789.4,1.209.578.155.064.313.124.469.185.34.131.688.254,1.047.369.16.051.32.1.484.152.508.147,1.028.283,1.569.4l.078.016c.537.112,1.094.2,1.66.284.178.025.359.046.539.068q.658.081,1.336.135c.184.015.365.03.551.042.621.039,1.252.067,1.9.073q.716,0,1.412-.032c.149-.007.293-.02.44-.029.314-.02.629-.036.937-.064.164-.015.323-.038.485-.055.283-.031.568-.059.845-.1.178-.025.35-.058.528-.086.252-.04.508-.077.756-.123.181-.034.355-.077.533-.114.232-.05.469-.1.7-.151.182-.045.357-.1.535-.145.213-.058.43-.112.637-.174.174-.052.338-.112.506-.168.2-.067.408-.131.6-.2.162-.06.315-.127.471-.19.184-.073.373-.143.551-.221l.019-.01.024-.01q.507-.228.978-.481Zm0-8.883h0a.814.814,0,0,1-.088.341l0,0a1.659,1.659,0,0,1-.144.239c-.008.011-.022.024-.029.035a2.71,2.71,0,0,1-.225.27,4.4,4.4,0,0,1-.992.787l-.041.022c-.129.078-.268.156-.414.234l-.119.058c-.127.065-.256.13-.395.194l-.156.066c-.135.06-.27.119-.414.176l-.176.066c-.146.056-.291.112-.447.166-.051.018-.106.034-.157.052-.167.056-.337.112-.513.166-.035.011-.072.02-.108.03a22.56,22.56,0,0,1-6.535.875c-.416,0-.826-.009-1.232-.026l-.11-.008c-.367-.018-.73-.042-1.086-.074l-.039-.005a21.815,21.815,0,0,1-4.2-.79l-.008,0c-.3-.091-.591-.187-.869-.289-.06-.023-.113-.048-.174-.071-.213-.081-.421-.163-.617-.251-.1-.046-.193-.095-.291-.142-.137-.065-.277-.13-.4-.2-.164-.09-.313-.181-.457-.272-.041-.026-.09-.051-.129-.077a4.846,4.846,0,0,1-.85-.687,1.381,1.381,0,0,1-.492-.887h0l0-.012c0-.174.059-.433.473-.882,1.2-1.391,5.488-2.967,10.482-2.913a21.213,21.213,0,0,1,8.348,1.524,6.824,6.824,0,0,1,2.139,1.389c.412.447.468.708.47.882Zm-30.623,37.151H706.49a2,2,0,1,0,0,4h36.457a2,2,0,0,0,0-4Zm27.2,0h-7.81a2,2,0,1,0,0,4h7.81a2,2,0,0,0,0-4Zm-14.83,0h-3.256a2,2,0,0,0,0,4h3.256a2,2,0,0,0,0-4Z" transform="translate(-691.613 -519.975)" fill="black" />
</g><g transform="translate(300,70) scale(3.90625)"><title>diamond</title>
<path d="M2.103 12.052l13.398 16.629-5.373-16.629h-8.025zM11.584 12.052l4.745 16.663 4.083-16.663h-8.828zM17.051 28.681l12.898-16.629h-7.963l-4.935 16.629zM29.979 10.964l-3.867-6.612-3.869 6.612h7.736zM24.896 3.973h-7.736l3.867 6.839 3.869-6.839zM19.838 10.964l-3.867-6.612-3.868 6.612h7.735zM14.839 3.973h-7.735l3.868 6.839 3.867-6.839zM5.889 4.352l-3.867 6.612h7.735l-3.868-6.612z" />
</g><g transform="translate(90,270) scale(4.8076923076923075)"><path fill-rule="evenodd" clip-rule="evenodd" d="M12.31 16.826C12.2864 17.9963 11.3464 18.9278 10.2052 18.9118C9.06401 18.8957 8.14927 17.9382 8.15697 16.7676C8.16467 15.5971 9.09191 14.6522 10.2332 14.652C10.7897 14.6578 11.3212 14.8901 11.7106 15.2978C12.1001 15.7055 12.3157 16.2552 12.31 16.826V16.826Z" stroke="#000000" stroke-width="1.5" stroke-linecap="round" stroke-linejoin="round" />
<path fill-rule="evenodd" clip-rule="evenodd" d="M22.2014 16.826C22.1778 17.9963 21.2378 18.9278 20.0966 18.9118C18.9554 18.8957 18.0407 17.9382 18.0484 16.7676C18.0561 15.5971 18.9833 14.6522 20.1246 14.652C20.6811 14.6578 21.2126 14.8901 21.602 15.2978C21.9915 15.7055 22.2071 16.2552 22.2014 16.826V16.826Z" stroke="#000000" stroke-width="1.5" stroke-linecap="round" stroke-linejoin="round" />
<path d="M17.8032 17.576C18.2174 17.576 18.5532 17.2402 18.5532 16.826C18.5532 16.4118 18.2174 16.076 17.8032 16.076V17.576ZM12.31 16.076C11.8958 16.076 11.56 16.4118 11.56 16.826C11.56 17.2402 11.8958 17.576 12.31 17.576V16.076ZM17.0571 16.826C17.0571 17.2402 17.3928 17.576 17.8071 17.576C18.2213 17.576 18.5571 17.2402 18.5571 16.826H17.0571ZM18.5571 11.559C18.5571 11.1448 18.2213 10.809 17.8071 10.809C17.3928 10.809 17.0571 11.1448 17.0571 11.559H18.5571ZM17.8071 16.076C17.3928 16.076 17.0571 16.4118 17.0571 16.826C17.0571 17.2402 17.3928 17.576 17.8071 17.576V16.076ZM18.0518 17.576C18.466 17.576 18.8018 17.2402 18.8018 16.826C18.8018 16.4118 18.466 16.076 18.0518 16.076V17.576ZM22.189 16.0762C21.7749 16.0852 21.4465 16.4281 21.4555 16.8423C21.4644 17.2564 21.8074 17.5848 22.2215 17.5758L22.189 16.0762ZM24.4 14.485L25.1499 14.4718C25.1492 14.4331 25.1455 14.3946 25.1389 14.3565L24.4 14.485ZM24.63 11.4305C24.559 11.0224 24.1706 10.7491 23.7625 10.8201C23.3544 10.8911 23.0812 11.2794 23.1521 11.6875L24.63 11.4305ZM17.8031 6.127C17.3889 6.127 17.0531 6.46279 17.0531 6.877C17.0531 7.29121 17.3889 7.627 17.8031 7.627V6.127ZM21.2849 6.877L21.2849 7.62702L21.2897 7.62698L21.2849 6.877ZM22.8737 7.56387L22.327 8.07731L22.327 8.07731L22.8737 7.56387ZM23.4835 9.218L22.7342 9.18603C22.7319 9.23979 22.7354 9.29363 22.7446 9.34663L23.4835 9.218ZM23.1522 11.6876C23.2232 12.0957 23.6116 12.3689 24.0197 12.2979C24.4278 12.2268 24.701 11.8384 24.6299 11.4304L23.1522 11.6876ZM18.5531 6.877C18.5531 6.46279 18.2174 6.127 17.8031 6.127C17.3889 6.127 17.0531 6.46279 17.0531 6.877H18.5531ZM17.0531 11.559C17.0531 11.9732 17.3889 12.309 17.8031 12.309C18.2174 12.309 18.5531 11.9732 18.5531 11.559H17.0531ZM17.0531 6.877C17.0531 7.29121 17.3889 7.627 17.8031 7.627C18.2174 7.627 18.5531 7.29121 18.5531 6.877H17.0531ZM17.8031 6.077L17.0531 6.0722V6.077H17.8031ZM16.7657 5L16.77 4.25H16.7657V5ZM7.42037 5L7.42037 4.24999L7.41679 4.25001L7.42037 5ZM6.68411 5.31693L6.14467 4.79587L6.14467 4.79587L6.68411 5.31693ZM6.382 6.075L7.13201 6.075L7.13199 6.07158L6.382 6.075ZM6.382 15.75L7.132 15.7534V15.75H6.382ZM6.68411 16.5081L6.14467 17.0291L6.14467 17.0291L6.68411 16.5081ZM7.42037 16.825L7.41679 17.575H7.42037V16.825ZM8.1526 17.575C8.56681 17.575 8.9026 17.2392 8.9026 16.825C8.9026 16.4108 8.56681 16.075 8.1526 16.075V17.575ZM17.8051 10.808C17.3909 10.808 17.0551 11.1438 17.0551 11.558C17.0551 11.9722 17.3909 12.308 17.8051 12.308V10.808ZM23.893 12.308C24.3072 12.308 24.643 11.9722 24.643 11.558C24.643 11.1438 24.3072 10.808 23.893 10.808V12.308ZM1 6.25C0.585786 6.25 0.25 6.58579 0.25 7C0.25 7.41421 0.585786 7.75 1 7.75V6.25ZM4.05175 7.75C4.46596 7.75 4.80175 7.41421 4.80175 7C4.80175 6.58579 4.46596 6.25 4.05175 6.25V7.75ZM1.975 9.25C1.56079 9.25 1.225 9.58579 1.225 10C1.225 10.4142 1.56079 10.75 1.975 10.75V9.25ZM3.925 10.75C4.33921 10.75 4.675 10.4142 4.675 10C4.675 9.58579 4.33921 9.25 3.925 9.25V10.75ZM2.56975 12.25C2.15554 12.25 1.81975 12.5858 1.81975 13C1.81975 13.4142 2.15554 13.75 2.56975 13.75V12.25ZM3.925 13.75C4.33921 13.75 4.675 13.4142 4.675 13C4.675 12.5858 4.33921 12.25 3.925 12.25V13.75ZM17.8032 16.076H12.31V17.576H17.8032V16.076ZM18.5571 16.826V11.559H17.0571V16.826H18.5571ZM17.8071 17.576H18.0518V16.076H17.8071V17.576ZM22.2215 17.5758C23.8876 17.5397 25.1791 16.1341 25.1499 14.4718L23.6501 14.4982C23.6655 15.3704 22.9939 16.0587 22.189 16.0762L22.2215 17.5758ZM25.1389 14.3565L24.63 11.4305L23.1521 11.6875L23.6611 14.6135L25.1389 14.3565ZM17.8031 7.627H21.2849V6.127H17.8031V7.627ZM21.2897 7.62698C21.6768 7.62448 22.0522 7.7847 22.327 8.07731L23.4204 7.05042C22.8641 6.4581 22.0909 6.12177 21.28 6.12702L21.2897 7.62698ZM22.327 8.07731C22.6025 8.37065 22.7519 8.7712 22.7342 9.18603L24.2328 9.24997C24.2675 8.43728 23.976 7.642 23.4204 7.05042L22.327 8.07731ZM22.7446 9.34663L23.1522 11.6876L24.6299 11.4304L24.2224 9.08937L22.7446 9.34663ZM17.0531 6.877V11.559H18.5531V6.877H17.0531ZM18.5531 6.877V6.077H17.0531V6.877H18.5531ZM18.5531 6.0818C18.5562 5.60485 18.3745 5.14259 18.0422 4.79768L16.9619 5.83829C17.0188 5.8974 17.0537 5.98123 17.0532 6.0722L18.5531 6.0818ZM18.0422 4.79768C17.7094 4.45212 17.2522 4.25277 16.77 4.25001L16.7615 5.74999C16.8331 5.7504 16.9056 5.77984 16.9619 5.83829L18.0422 4.79768ZM16.7657 4.25H7.42037V5.75H16.7657V4.25ZM7.41679 4.25001C6.93498 4.25231 6.4778 4.45098 6.14467 4.79587L7.22355 5.83799C7.27989 5.77967 7.3524 5.75033 7.42396 5.74999L7.41679 4.25001ZM6.14467 4.79587C5.81216 5.1401 5.62983 5.60177 5.63201 6.07843L7.13199 6.07158C7.13158 5.98066 7.16659 5.89696 7.22355 5.83799L6.14467 4.79587ZM5.632 6.075V15.75H7.132V6.075H5.632ZM5.63201 15.7466C5.62983 16.2232 5.81216 16.6849 6.14467 17.0291L7.22355 15.987C7.16659 15.928 7.13158 15.8443 7.13199 15.7534L5.63201 15.7466ZM6.14467 17.0291C6.4778 17.374 6.93498 17.5727 7.41679 17.575L7.42396 16.075C7.3524 16.0747 7.27988 16.0453 7.22355 15.987L6.14467 17.0291ZM7.42037 17.575H8.1526V16.075H7.42037V17.575ZM17.8051 12.308H23.893V10.808H17.8051V12.308ZM1 7.75H4.05175V6.25H1V7.75ZM1.975 10.75H3.925V9.25H1.975V10.75ZM2.56975 13.75H3.925V12.25H2.56975V13.75Z" fill="#000000" />
</g><g transform="translate(300,270) scale(0.244140625)"><style type="text/css">
	.st0{fill:#000000;}
</style>
<g>
	<path class="st0" d="M379.987,204.198c-2.456-7.501-4.813-14.566-6.504-21.254c-1.703-6.702-2.74-12.982-2.734-19.03   c0.014-6.464,1.116-12.664,4.028-19.346c8.406-19.214,11.436-38.125,11.43-55.186c-0.007-21.895-4.92-40.806-9.799-54.335   c-4.893-13.528-9.785-21.703-10.05-22.146L358.588,0l-63.354,80.633h-78.25L153.637,0.007l-7.771,12.889   c-0.264,0.449-5.157,8.624-10.049,22.152c-4.886,13.529-9.792,32.426-9.799,54.335c-0.006,17.061,3.024,35.972,11.43,55.179   c2.806,6.438,3.928,12.816,3.935,19.604c0.052,12.863-4.371,27.25-9.323,42.582c-4.873,15.352-10.268,31.647-10.314,49.23   c0,4.483,0.37,9.052,1.222,13.641c2.311,12.433,6.96,27.554,12.631,43.77c8.504,24.285,19.34,50.881,28.029,72.34   c4.338,10.717,8.148,20.152,10.809,27.25c1.327,3.533,2.37,6.491,3.018,8.59c0.323,1.043,0.554,1.876,0.66,2.351l0.026,0.132   c-0.013,0.694-0.079,1.81-0.211,3.275c-0.436,5.183-1.433,13.523-1.44,22.72c0.013,7.171,0.588,14.936,2.753,22.602   c2.153,7.62,6.055,15.358,12.935,21.254c5.956,5.084,12.908,8.432,19.907,10.928c10.518,3.698,21.327,5.401,29.646,6.286   c8.313,0.872,14.117,0.884,14.381,0.884c0.357-0.013,10.538,0,23.427-2.08c6.444-1.056,13.576-2.622,20.594-5.091   c7.005-2.496,13.952-5.844,19.914-10.928c6.874-5.896,10.776-13.634,12.935-21.254c2.166-7.666,2.74-15.438,2.746-22.608   c0-6.141-0.449-11.859-0.872-16.56c-0.211-2.35-0.422-4.444-0.561-6.154c-0.132-1.453-0.198-2.549-0.211-3.249   c0.086-0.382,0.27-1.129,0.561-2.06c0.759-2.522,2.159-6.47,3.981-11.271c6.398-16.89,17.98-44.575,28.458-71.646   c5.242-13.543,10.215-26.966,14.169-38.97c3.956-12.044,6.907-22.502,8.082-31.006c0.634-4.676,0.918-9.238,0.918-13.675   C390.241,236.03,384.866,219.186,379.987,204.198z M213.636,101.426h85.618c0.31,0.515,0.614,1.057,0.918,1.664   c2.12,4.278,3.711,10.591,4.609,17.378c0.924,6.788,1.228,14.05,1.228,20.482c0,4.186-0.125,8.009-0.284,11.146l-18.21-3.038   l-20,43.314c-14.864-7.844-23.83-18.521-29.343-27.791c-3.136-5.289-5.098-10.102-6.253-13.523   c-0.574-1.703-0.951-3.063-1.182-3.954l-0.224-0.978l-0.039-0.198l-1.757-9.613l-25.711,11.02   c-0.819-3.117-1.539-7.138-1.532-11.898C201.52,126.305,203.944,114.638,213.636,101.426z M368.736,266.337   c-0.495,3.704-1.704,9.006-3.48,15.186c-6.193,21.763-19.036,54.255-30.287,82.185c-5.632,13.991-10.875,26.88-14.757,36.982   c-1.941,5.052-3.546,9.396-4.721,12.955c-0.588,1.796-1.076,3.381-1.459,4.886c-0.185,0.766-0.357,1.492-0.489,2.284   c-0.132,0.805-0.258,1.638-0.264,2.832c0.007,1.776,0.133,3.513,0.298,5.448c0.495,5.725,1.366,13.232,1.366,20.944   c0.007,5.982-0.548,11.99-1.961,16.929c-1.42,4.978-3.546,8.65-6.471,11.159c-3.129,2.707-7.877,5.203-13.297,7.091   c-8.122,2.885-17.597,4.47-24.9,5.229c-3.651,0.384-6.774,0.575-8.94,0.674c-1.083,0.04-1.935,0.066-2.496,0.08l-0.621,0.013   h-0.145h-0.046c-0.792,0-10.195-0.125-21.103-1.994c-5.447-0.924-11.257-2.298-16.461-4.173c-5.21-1.875-9.752-4.298-12.796-6.926   c-2.919-2.502-5.045-6.174-6.471-11.152c-1.406-4.932-1.968-10.948-1.954-16.923c0-5.13,0.383-10.214,0.786-14.691   c0.205-2.245,0.416-4.338,0.574-6.26c0.166-1.934,0.298-3.658,0.304-5.448c-0.014-1.287-0.152-2.192-0.304-3.076   c-0.304-1.664-0.733-3.216-1.28-4.998c-2.034-6.55-5.85-16.269-10.703-28.346c-7.257-18.045-16.738-41.01-25.091-63.248   c-8.345-22.185-15.542-43.842-18.157-58.13c-0.601-3.242-0.872-6.524-0.872-9.871c-0.053-13.093,4.371-27.566,9.323-42.886   c4.86-15.338,10.261-31.522,10.314-48.926c0.007-9.138-1.604-18.626-5.685-27.929c-7.124-16.296-9.68-32.209-9.686-46.854   c-0.006-18.758,4.265-35.405,8.564-47.269c0.535-1.486,1.07-2.899,1.598-4.226l43.407,55.252   c-11.066,15.484-14.533,30.478-14.487,42.298c0.026,15.418,5.454,25.341,5.844,26.074l3.42,6.154l22.687-9.719   c1.473,4.04,3.645,9.046,6.92,14.579c7.547,12.796,20.99,28.062,43.552,37.438l6.932,2.892l21.44-46.457l23.097,3.843l0.865-8.241   c0.012-0.172,0.957-9.178,0.957-21.05c-0.007-9.231-0.548-20.152-2.688-30.293c-1.082-5.071-2.562-9.964-4.747-14.434   c-0.594-1.202-1.255-2.384-1.968-3.526l43.05-54.79c4.734,11.945,10.221,30.36,10.168,51.476c0,14.638-2.556,30.544-9.687,46.854   c-4.113,9.362-5.783,18.732-5.764,27.678c0,8.399,1.406,16.408,3.361,24.133c2.951,11.595,7.124,22.615,10.406,33.688   c3.302,11.073,5.738,22.092,5.738,33.714C369.469,258.994,369.244,262.613,368.736,266.337z" />
	<path class="st0" d="M228.176,441.839c-4.305,0-7.798,6.398-7.798,14.288c0,7.896,3.493,14.295,7.798,14.295   c4.305,0,7.798-6.398,7.798-14.295C235.974,448.237,232.481,441.839,228.176,441.839z" />
	<path class="st0" d="M284.049,441.839c-4.305,0-7.798,6.398-7.798,14.288c0,7.896,3.493,14.295,7.798,14.295   c4.305,0,7.791-6.398,7.791-14.295C291.84,448.237,288.354,441.839,284.049,441.839z" />
	<path class="st0" d="M180.781,242.726c-8.075,0-14.618,6.537-14.618,14.612c0,8.082,6.543,14.619,14.618,14.619   c8.076,0,14.612-6.537,14.612-14.619C195.393,249.262,188.856,242.726,180.781,242.726z" />
	<path class="st0" d="M331.443,242.726c-8.075,0-14.612,6.537-14.612,14.612c0,8.082,6.537,14.619,14.612,14.619   c8.076,0,14.619-6.537,14.619-14.619C346.062,249.262,339.519,242.726,331.443,242.726z" />
</g>
</g></g><g transform="translate(260, -20) scale(2.5)"><g>
	<path d="M4.92,68.964c0.593,2.347,1.192,4.693,1.774,7.04c39.751-13.17,81.899-13.065,121.556,0.264   c0.611-2.437,1.233-4.862,1.851-7.304C89.216,55.329,45.802,55.329,4.92,68.964z" stroke="black" stroke-width="2" fill="#DAA520" />
	<path d="M125.977,75.06c3.586-1.523,6.097-5.089,6.097-9.229c0-5.539-4.493-10.038-10.035-10.038   c-5.559,0-10.052,4.499-10.052,10.038c0,2.073,0.633,3.992,1.703,5.596c-6.259,5.263-13.536,7.983-20.956,7.098   c-8.485-1.044-15.899-6.618-21.278-14.924c0.833,0.256,1.698,0.433,2.604,0.433c4.921,0,8.912-3.989,8.912-8.909   c0-4.58-3.47-8.306-7.92-8.807c0.422-0.979,0.643-2.052,0.643-3.183c0-4.52-3.67-8.18-8.184-8.18c-4.515,0-8.182,3.66-8.182,8.18   c0,1.131,0.221,2.204,0.643,3.183c-4.45,0.501-7.92,4.227-7.92,8.807c0,4.92,3.989,8.909,8.91,8.909   c0.907,0,1.771-0.177,2.592-0.433c-5.368,8.312-12.793,13.874-21.265,14.924c-7.42,0.886-14.7-1.846-20.964-7.098   c1.075-1.604,1.703-3.522,1.703-5.596c0-5.539-4.493-10.038-10.046-10.038c-5.54,0-10.033,4.499-10.033,10.038   c0,4.14,2.51,7.705,6.096,9.229C6.637,79.653,3.623,83.603,0,86.514c1.144,4.504,2.283,9.018,3.417,13.531   c41.86-13.975,86.305-13.975,128.166,0c1.128-4.514,2.272-9.027,3.417-13.531C131.398,83.603,128.387,79.653,125.977,75.06z    M17.273,88.945c-2.434,0-4.411-1.973-4.411-4.409s1.978-4.408,4.411-4.408c2.436,0,4.409,1.972,4.409,4.408   S19.709,88.945,17.273,88.945z M67.521,83.787c-2.436,0-4.405-1.972-4.405-4.397c0-2.437,1.969-4.419,4.405-4.419   c2.437,0,4.409,1.982,4.409,4.419C71.93,81.81,69.957,83.787,67.521,83.787z M116.295,88.945c-2.431,0-4.408-1.973-4.408-4.409   s1.978-4.408,4.408-4.408s4.414,1.972,4.414,4.408S118.726,88.945,116.295,88.945z" stroke="black" stroke-width="2" fill="#DAA520" />
</g>
</g></svg>