<svg xmlns="http://www.w3.org/2000/svg" width="850" height="850" style="shape-rendering:geometricPrecision; text-rendering:geometricPrecision; image-rendering:optimizeQuality; fill-rule:evenodd; clip-rule:evenodd" viewBox="0 0 850 850"><rect x="0" y="0" width="850" height="850" fill="white" /><circle cx="425" cy="425" r="420" stroke="black" stroke-width="5" fill="black" /><circle cx="425" cy="425" r="400" stroke="black" stroke-width="5" fill="#444444" /><g transform="translate(105, 135)"><g transform="scale(0.8125)"><g transform="translate(0, 17)"><path style="opacity:0.981" fill="#000000" d="M 396.5,48.5 C 398.527,48.3379 400.527,48.5045 402.5,49C 506.87,83.7345 611.204,118.568 715.5,153.5C 716.667,222.164 716.833,290.831 716,359.5C 705.643,483.766 650.143,581.932 549.5,654C 499.636,687.363 449.636,720.53 399.5,753.5C 349.364,720.53 299.364,687.363 249.5,654C 148.857,581.932 93.3567,483.766 83,359.5C 82.1667,290.831 82.3334,222.164 83.5,153.5C 188.005,118.665 292.338,83.6653 396.5,48.5 Z M 419.5,91.5 C 506.946,120.093 594.279,149.093 681.5,178.5C 682.783,240.172 682.783,301.838 681.5,363.5C 594.167,363.5 506.833,363.5 419.5,363.5C 419.5,272.833 419.5,182.167 419.5,91.5 Z M 373.5,92.5 C 375.144,92.2865 376.644,92.6198 378,93.5C 378.5,183.499 378.667,273.499 378.5,363.5C 291.5,363.5 204.5,363.5 117.5,363.5C 116.213,301.839 116.213,240.172 117.5,178.5C 203.005,149.999 288.338,121.332 373.5,92.5 Z M 147.5,399.5 C 224.5,399.5 301.5,399.5 378.5,399.5C 378.833,498.836 378.5,598.169 377.5,697.5C 334.423,669.254 291.757,640.421 249.5,611C 182.313,556.558 139.979,486.725 122.5,401.5C 130.99,400.833 139.324,400.167 147.5,399.5 Z M 419.5,399.5 C 493.834,399.333 568.167,399.5 642.5,400C 653.848,400.168 665.181,400.668 676.5,401.5C 659.01,486.732 616.677,556.565 549.5,611C 506.765,640.786 463.599,669.952 420,698.5C 419.5,598.834 419.333,499.167 419.5,399.5 Z" /></g>
</g><g transform="translate(145,150) scale(1.5439087652846968)"><path id="Path_28" data-name="Path 28" d="M736.185,530.844h8.3a2,2,0,0,0,0-4h-8.3a2,2,0,0,0,0,4Zm52.4,31.693-7.346-29.879a7.961,7.961,0,0,0-5.392-5.508,2,2,0,0,0-1.155,3.831,4.027,4.027,0,0,1,2.662,2.634l7.348,29.876a2.168,2.168,0,0,1,.066.515,2.242,2.242,0,0,1-.1.51,1.063,1.063,0,0,1-.317.466.446.446,0,0,1-.056.041.744.744,0,0,1-.1.065,2.376,2.376,0,0,1-.9.216h-.012v0h-86.17c-.074-.005-.136-.016-.2-.024a2.687,2.687,0,0,1-.5-.1c-.016-.005-.025-.012-.041-.017a1.38,1.38,0,0,1-.2-.086.867.867,0,0,1-.115-.08.817.817,0,0,1-.067-.049.93.93,0,0,1-.121-.138l-.018-.021a1.172,1.172,0,0,1-.091-.173l-.012-.024a1.374,1.374,0,0,1-.053-.164c-.01-.035-.019-.069-.027-.106-.006-.02-.01-.043-.014-.063-.013-.081-.025-.165-.035-.256a2.23,2.23,0,0,1,.068-.513l7.348-29.878a3.972,3.972,0,0,1,2.221-2.468,2,2,0,0,0-1.627-3.655,7.905,7.905,0,0,0-4.477,5.168L691.8,562.535a6.152,6.152,0,0,0-.184,1.469c0,.009,0,.018,0,.027a1.949,1.949,0,0,0,0,.418l3.316,31.948a2,2,0,0,0,1.989,1.792h86.814a2,2,0,0,0,1.992-1.812l2.967-31.54c0-.037,0-.072,0-.108a5.308,5.308,0,0,0,.068-.723A6.144,6.144,0,0,0,788.586,562.537Zm-6.664,31.653H698.73l-2.589-24.948a5.473,5.473,0,0,0,.97.063h86.2c.027,0,.052-.007.078-.007a5.52,5.52,0,0,0,.886-.061Zm-62-53.788a20.445,20.445,0,0,0,8.164-1.535,8.934,8.934,0,0,0,2.863-1.927,4.643,4.643,0,0,0,1.363-3.182v-2.5l0-4.6c0-.013,0-.025,0-.039a4.635,4.635,0,0,0-1.363-3.182c-2.347-2.356-6.351-3.409-11.027-3.465a20.486,20.486,0,0,0-8.166,1.537,8.916,8.916,0,0,0-2.861,1.928,4.629,4.629,0,0,0-1.366,3.182c0,.014,0,.026,0,.039l0,4.859v2.238a4.652,4.652,0,0,0,1.364,3.182C711.238,539.295,715.242,540.348,719.92,540.4Zm-8.393-13.78c0-.016-.011-.126.272-.432.806-.983,4.189-2.27,8.121-2.213a16.63,16.63,0,0,1,6.531,1.185,5.009,5.009,0,0,1,1.59,1.028c.283.306.268.416.271.432v0h-.005c0,.014.005.136-.284.446-.83.982-4.193,2.252-8.1,2.2-.326,0-.651-.007-.969-.021-.062,0-.123-.01-.183-.013-.256-.013-.51-.029-.756-.051-.061-.006-.118-.015-.176-.021-.246-.024-.49-.051-.727-.084-.076-.011-.148-.024-.224-.036-.213-.033-.426-.065-.631-.1-.1-.019-.186-.041-.281-.061-.176-.036-.354-.071-.524-.112-.146-.036-.285-.076-.426-.116-.1-.028-.214-.054-.316-.085-.213-.063-.412-.13-.6-.2-.024-.009-.051-.016-.075-.024-.215-.079-.42-.162-.611-.248a5.15,5.15,0,0,1-1.6-1.023c-.291-.31-.283-.432-.285-.446h0Zm0,5.007c.141.067.291.126.436.188.111.049.221.1.334.146.367.147.746.281,1.14.4.112.035.231.065.346.1.319.091.645.173.979.248.132.029.261.06.4.086.438.089.883.167,1.344.229.08.011.162.019.244.029q.609.077,1.242.125l.406.029c.5.031,1.008.055,1.526.061.777,0,1.535-.037,2.269-.1.342-.031.661-.092.991-.137.38-.05.775-.089,1.14-.158s.674-.162,1.008-.244.656-.142.961-.233c.281-.085.529-.2.8-.292.322-.117.66-.22.961-.353l.031-.015.006,0,.019-.009.207-.1v2.131c0,.014.012.125-.269.433-.809.981-4.189,2.27-8.121,2.212a16.61,16.61,0,0,1-6.531-1.186,5.069,5.069,0,0,1-1.59-1.026c-.283-.31-.268-.419-.272-.433Zm48.434,8.773a20.452,20.452,0,0,0,8.164-1.535,8.934,8.934,0,0,0,2.863-1.927,4.648,4.648,0,0,0,1.364-3.182v-2.5l0-4.6h0c0-.013,0-.025,0-.039a4.631,4.631,0,0,0-1.364-3.182c-2.345-2.356-6.349-3.409-11.027-3.465a20.48,20.48,0,0,0-8.164,1.537,8.906,8.906,0,0,0-2.861,1.928,4.62,4.62,0,0,0-1.366,3.182c0,.014,0,.026,0,.039l0,4.859v2.238a4.635,4.635,0,0,0,1.364,3.182C751.277,539.295,755.283,540.348,759.961,540.4Zm-8.393-13.78c0-.016-.013-.126.27-.432.808-.983,4.189-2.27,8.121-2.213a16.623,16.623,0,0,1,6.531,1.185,5,5,0,0,1,1.592,1.028c.283.306.268.416.27.432v0h-.006c0,.014.006.136-.284.446-.826.978-4.168,2.243-8.058,2.2h-.043c-.092,0-.18-.005-.27-.006-.234,0-.468-.005-.7-.015-.137-.007-.269-.018-.4-.027-.18-.012-.36-.021-.535-.037-.119-.011-.231-.028-.348-.04-.186-.021-.373-.039-.553-.065-.107-.014-.207-.034-.31-.05-.184-.029-.371-.056-.547-.089-.106-.02-.2-.044-.3-.066-.168-.035-.34-.068-.5-.107-.138-.034-.267-.072-.4-.108-.113-.031-.233-.06-.342-.093-.2-.059-.387-.124-.57-.189-.035-.012-.074-.023-.11-.036-.214-.079-.42-.161-.611-.247a5.175,5.175,0,0,1-1.6-1.023c-.287-.31-.281-.432-.281-.446h-.006Zm0,5.006c.135.064.28.121.418.182.119.052.237.107.36.156.363.145.736.278,1.125.4.121.037.244.069.367.1q.468.132.957.242c.135.03.269.062.408.089.436.088.879.166,1.336.228.084.011.172.019.256.03q.6.075,1.228.124l.414.029c.5.031,1,.054,1.516.061h.008c.777,0,1.535-.038,2.269-.1.256-.023.495-.071.745-.1.468-.058.941-.109,1.388-.193.307-.057.586-.143.881-.213.365-.087.742-.161,1.086-.265.266-.08.5-.186.754-.277.338-.12.689-.228,1-.367l.033-.015,0,0,.014-.006.215-.1v2.131c0,.014.011.123-.272.433-.807.981-4.189,2.27-8.119,2.212a16.613,16.613,0,0,1-6.533-1.186,5.094,5.094,0,0,1-1.59-1.026c-.281-.31-.266-.419-.27-.433Zm-49.531,16.614c0,.018,0,.034,0,.052l0,4v4.84a5.275,5.275,0,0,0,1.564,3.629c2.737,2.765,7.653,4.107,13.393,4.165a25.108,25.108,0,0,0,9.977-1.871,10.7,10.7,0,0,0,3.414-2.294,5.3,5.3,0,0,0,1.566-3.629v-4.149l0-4.694c0-.018,0-.034,0-.052a5.3,5.3,0,0,0-1.566-3.629c-2.737-2.767-7.653-4.108-13.391-4.165a25.12,25.12,0,0,0-9.98,1.87,10.689,10.689,0,0,0-3.414,2.295A5.3,5.3,0,0,0,702.037,548.242Zm25.914,8.9c0,.174-.058.433-.471.88-1.2,1.393-5.49,2.969-10.484,2.914a21.258,21.258,0,0,1-8.348-1.523,6.861,6.861,0,0,1-2.14-1.391c-.41-.447-.467-.706-.469-.88v-3.46c.063.034.135.061.2.1q.531.282,1.108.528c.17.072.347.139.521.207q.477.183.979.345c.179.057.355.116.541.17.472.136.959.261,1.463.371.082.017.166.035.25.051.507.1,1.029.192,1.562.268.186.027.375.049.565.072q.647.08,1.316.132c.185.016.369.031.557.043.621.039,1.252.067,1.9.073h0c.072,0,.143,0,.215-.005.4,0,.8-.009,1.2-.027.2-.009.4-.027.6-.041.26-.017.521-.029.775-.052.219-.02.432-.05.647-.074s.459-.047.683-.078.442-.071.662-.108.418-.063.621-.1c.225-.042.442-.094.661-.142.189-.041.382-.078.568-.122.23-.056.451-.121.676-.183.164-.045.334-.086.494-.135.232-.07.453-.149.678-.226.142-.049.291-.092.431-.144.242-.089.471-.187.7-.283.106-.044.219-.084.323-.13l.011-.005.036-.015c.337-.152.664-.312.978-.482ZM706.51,547.36c1.2-1.391,5.49-2.967,10.486-2.913a21.209,21.209,0,0,1,8.346,1.524,6.806,6.806,0,0,1,2.138,1.389c.413.447.469.708.471.882v.012h0a1.02,1.02,0,0,1-.236.584l-.008.009a3.142,3.142,0,0,1-.246.294c-1.225,1.391-5.5,2.947-10.463,2.892-.416,0-.828-.009-1.232-.026l-.153-.011c-.351-.017-.7-.04-1.041-.071-.074-.007-.142-.018-.215-.025-.316-.032-.628-.065-.933-.108-.07-.01-.135-.022-.2-.033-.3-.045-.6-.091-.891-.146-.066-.012-.127-.028-.193-.041-.283-.056-.567-.115-.836-.18-.076-.019-.147-.04-.221-.06-.252-.063-.5-.129-.74-.2-.088-.026-.166-.057-.254-.084-.211-.067-.426-.135-.623-.208-.121-.045-.231-.093-.346-.14-.15-.06-.306-.119-.447-.181s-.238-.117-.358-.174-.236-.112-.341-.168c-.149-.081-.28-.163-.412-.245-.057-.035-.123-.071-.178-.106a4.888,4.888,0,0,1-.848-.685,1.384,1.384,0,0,1-.49-.887h0l0-.012C706.041,548.068,706.1,547.809,706.51,547.36Zm69.5-2.747c-2.737-2.767-7.654-4.108-13.393-4.165a25.1,25.1,0,0,0-9.976,1.87,10.644,10.644,0,0,0-3.414,2.295,5.3,5.3,0,0,0-1.565,3.629c0,.03,0,.057,0,.086l0,3.346v5.463a5.274,5.274,0,0,0,1.567,3.629c2.734,2.765,7.652,4.107,13.388,4.165a25.114,25.114,0,0,0,9.981-1.871,10.7,10.7,0,0,0,3.412-2.294,5.284,5.284,0,0,0,1.564-3.629v-6.393l0-2.45c0-.018,0-.034,0-.052A5.292,5.292,0,0,0,776.006,544.613Zm-2.436,12.524c0,.174-.058.433-.468.88-1.2,1.393-5.493,2.969-10.489,2.914a21.237,21.237,0,0,1-8.344-1.523,6.79,6.79,0,0,1-2.14-1.391c-.412-.447-.469-.706-.471-.88v-3.46c.037.02.08.036.117.056.383.207.789.4,1.209.578.155.064.313.124.469.185.34.131.688.254,1.047.369.16.051.32.1.484.152.508.147,1.028.283,1.569.4l.078.016c.537.112,1.094.2,1.66.284.178.025.359.046.539.068q.658.081,1.336.135c.184.015.365.03.551.042.621.039,1.252.067,1.9.073q.716,0,1.412-.032c.149-.007.293-.02.44-.029.314-.02.629-.036.937-.064.164-.015.323-.038.485-.055.283-.031.568-.059.845-.1.178-.025.35-.058.528-.086.252-.04.508-.077.756-.123.181-.034.355-.077.533-.114.232-.05.469-.1.7-.151.182-.045.357-.1.535-.145.213-.058.43-.112.637-.174.174-.052.338-.112.506-.168.2-.067.408-.131.6-.2.162-.06.315-.127.471-.19.184-.073.373-.143.551-.221l.019-.01.024-.01q.507-.228.978-.481Zm0-8.883h0a.814.814,0,0,1-.088.341l0,0a1.659,1.659,0,0,1-.144.239c-.008.011-.022.024-.029.035a2.71,2.71,0,0,1-.225.27,4.4,4.4,0,0,1-.992.787l-.041.022c-.129.078-.268.156-.414.234l-.119.058c-.127.065-.256.13-.395.194l-.156.066c-.135.06-.27.119-.414.176l-.176.066c-.146.056-.291.112-.447.166-.051.018-.106.034-.157.052-.167.056-.337.112-.513.166-.035.011-.072.02-.108.03a22.56,22.56,0,0,1-6.535.875c-.416,0-.826-.009-1.232-.026l-.11-.008c-.367-.018-.73-.042-1.086-.074l-.039-.005a21.815,21.815,0,0,1-4.2-.79l-.008,0c-.3-.091-.591-.187-.869-.289-.06-.023-.113-.048-.174-.071-.213-.081-.421-.163-.617-.251-.1-.046-.193-.095-.291-.142-.137-.065-.277-.13-.4-.2-.164-.09-.313-.181-.457-.272-.041-.026-.09-.051-.129-.077a4.846,4.846,0,0,1-.85-.687,1.381,1.381,0,0,1-.492-.887h0l0-.012c0-.174.059-.433.473-.882,1.2-1.391,5.488-2.967,10.482-2.913a21.213,21.213,0,0,1,8.348,1.524,6.824,6.824,0,0,1,2.139,1.389c.412.447.468.708.47.882Zm-30.623,37.151H706.49a2,2,0,1,0,0,4h36.457a2,2,0,0,0,0-4Zm27.2,0h-7.81a2,2,0,1,0,0,4h7.81a2,2,0,0,0,0-4Zm-14.83,0h-3.256a2,2,0,0,0,0,4h3.256a2,2,0,0,0,0-4Z" transform="translate(-691.613 -519.975)" stroke-width="5" fill="black" />
</g><g transform="translate(350,150) scale(7.5)"><title>truck [#652]</title>
    <desc>Created with Sketch.</desc>
    <defs>

</defs>
    <g id="Page-1" stroke="none" stroke-width="1" fill="none" fill-rule="evenodd">
        <g id="Dribbble-Light-Preview" transform="translate(-300.000000, -5319.000000)" fill="#000000">
            <g id="icons" transform="translate(56.000000, 160.000000)">
                <path d="M258,5170 L262,5170 L262,5166 L258,5166 L258,5170 Z M262,5174 L261.388,5174 C260.839,5173.39 259.968,5173 259.083,5173 C258.731,5173 258,5173.072 258,5173.184 L258,5172 L262,5172 L262,5174 Z M259.167,5177 C258.615,5177 258.167,5176.551 258.167,5176 C258.167,5175.449 258.615,5175 259.167,5175 C259.718,5175 260.167,5175.449 260.167,5176 C260.167,5176.551 259.718,5177 259.167,5177 L259.167,5177 Z M256,5174 L253.65,5174 C253.204,5172.278 251.57,5171 249.708,5171 C248.097,5171 247,5171.958 246,5173.331 L246,5161 L256,5161 L256,5174 Z M251.513,5176 C251.167,5176.595 250.529,5177 249.792,5177 C249.055,5177 248.417,5176.595 248.07,5176 C247.898,5175.705 247.792,5175.366 247.792,5175 C247.792,5174.634 247.898,5174.295 248.07,5174 C248.417,5173.405 249.055,5173 249.792,5173 C250.529,5173 251.166,5173.405 251.513,5174 C251.686,5174.295 251.792,5174.634 251.792,5175 C251.792,5175.366 251.686,5175.705 251.513,5176 L251.513,5176 Z M258,5164 L258,5159 L244,5159 L244,5176 L245.933,5176 C246.379,5177.722 247.93,5179 249.792,5179 C251.653,5179 253.204,5177.722 253.65,5176 L256.167,5176 C256.167,5177.657 257.51,5179 259.167,5179 C260.824,5179 262.167,5177.657 262.167,5176 L264,5176 L264,5164 L258,5164 Z" id="truck-[#652]">

</path>
            </g>
        </g>
    </g>
</g><g transform="translate(145,350) scale(0.29296875)"><style type="text/css">
    .st0 {
        fill: #000000;
        stroke: black;
        stroke-width: 10;
    }
</style>
<g>
	<path class="st0" d="M379.987,204.198c-2.456-7.501-4.813-14.566-6.504-21.254c-1.703-6.702-2.74-12.982-2.734-19.03   c0.014-6.464,1.116-12.664,4.028-19.346c8.406-19.214,11.436-38.125,11.43-55.186c-0.007-21.895-4.92-40.806-9.799-54.335   c-4.893-13.528-9.785-21.703-10.05-22.146L358.588,0l-63.354,80.633h-78.25L153.637,0.007l-7.771,12.889   c-0.264,0.449-5.157,8.624-10.049,22.152c-4.886,13.529-9.792,32.426-9.799,54.335c-0.006,17.061,3.024,35.972,11.43,55.179   c2.806,6.438,3.928,12.816,3.935,19.604c0.052,12.863-4.371,27.25-9.323,42.582c-4.873,15.352-10.268,31.647-10.314,49.23   c0,4.483,0.37,9.052,1.222,13.641c2.311,12.433,6.96,27.554,12.631,43.77c8.504,24.285,19.34,50.881,28.029,72.34   c4.338,10.717,8.148,20.152,10.809,27.25c1.327,3.533,2.37,6.491,3.018,8.59c0.323,1.043,0.554,1.876,0.66,2.351l0.026,0.132   c-0.013,0.694-0.079,1.81-0.211,3.275c-0.436,5.183-1.433,13.523-1.44,22.72c0.013,7.171,0.588,14.936,2.753,22.602   c2.153,7.62,6.055,15.358,12.935,21.254c5.956,5.084,12.908,8.432,19.907,10.928c10.518,3.698,21.327,5.401,29.646,6.286   c8.313,0.872,14.117,0.884,14.381,0.884c0.357-0.013,10.538,0,23.427-2.08c6.444-1.056,13.576-2.622,20.594-5.091   c7.005-2.496,13.952-5.844,19.914-10.928c6.874-5.896,10.776-13.634,12.935-21.254c2.166-7.666,2.74-15.438,2.746-22.608   c0-6.141-0.449-11.859-0.872-16.56c-0.211-2.35-0.422-4.444-0.561-6.154c-0.132-1.453-0.198-2.549-0.211-3.249   c0.086-0.382,0.27-1.129,0.561-2.06c0.759-2.522,2.159-6.47,3.981-11.271c6.398-16.89,17.98-44.575,28.458-71.646   c5.242-13.543,10.215-26.966,14.169-38.97c3.956-12.044,6.907-22.502,8.082-31.006c0.634-4.676,0.918-9.238,0.918-13.675   C390.241,236.03,384.866,219.186,379.987,204.198z M213.636,101.426h85.618c0.31,0.515,0.614,1.057,0.918,1.664   c2.12,4.278,3.711,10.591,4.609,17.378c0.924,6.788,1.228,14.05,1.228,20.482c0,4.186-0.125,8.009-0.284,11.146l-18.21-3.038   l-20,43.314c-14.864-7.844-23.83-18.521-29.343-27.791c-3.136-5.289-5.098-10.102-6.253-13.523   c-0.574-1.703-0.951-3.063-1.182-3.954l-0.224-0.978l-0.039-0.198l-1.757-9.613l-25.711,11.02   c-0.819-3.117-1.539-7.138-1.532-11.898C201.52,126.305,203.944,114.638,213.636,101.426z M368.736,266.337   c-0.495,3.704-1.704,9.006-3.48,15.186c-6.193,21.763-19.036,54.255-30.287,82.185c-5.632,13.991-10.875,26.88-14.757,36.982   c-1.941,5.052-3.546,9.396-4.721,12.955c-0.588,1.796-1.076,3.381-1.459,4.886c-0.185,0.766-0.357,1.492-0.489,2.284   c-0.132,0.805-0.258,1.638-0.264,2.832c0.007,1.776,0.133,3.513,0.298,5.448c0.495,5.725,1.366,13.232,1.366,20.944   c0.007,5.982-0.548,11.99-1.961,16.929c-1.42,4.978-3.546,8.65-6.471,11.159c-3.129,2.707-7.877,5.203-13.297,7.091   c-8.122,2.885-17.597,4.47-24.9,5.229c-3.651,0.384-6.774,0.575-8.94,0.674c-1.083,0.04-1.935,0.066-2.496,0.08l-0.621,0.013   h-0.145h-0.046c-0.792,0-10.195-0.125-21.103-1.994c-5.447-0.924-11.257-2.298-16.461-4.173c-5.21-1.875-9.752-4.298-12.796-6.926   c-2.919-2.502-5.045-6.174-6.471-11.152c-1.406-4.932-1.968-10.948-1.954-16.923c0-5.13,0.383-10.214,0.786-14.691   c0.205-2.245,0.416-4.338,0.574-6.26c0.166-1.934,0.298-3.658,0.304-5.448c-0.014-1.287-0.152-2.192-0.304-3.076   c-0.304-1.664-0.733-3.216-1.28-4.998c-2.034-6.55-5.85-16.269-10.703-28.346c-7.257-18.045-16.738-41.01-25.091-63.248   c-8.345-22.185-15.542-43.842-18.157-58.13c-0.601-3.242-0.872-6.524-0.872-9.871c-0.053-13.093,4.371-27.566,9.323-42.886   c4.86-15.338,10.261-31.522,10.314-48.926c0.007-9.138-1.604-18.626-5.685-27.929c-7.124-16.296-9.68-32.209-9.686-46.854   c-0.006-18.758,4.265-35.405,8.564-47.269c0.535-1.486,1.07-2.899,1.598-4.226l43.407,55.252   c-11.066,15.484-14.533,30.478-14.487,42.298c0.026,15.418,5.454,25.341,5.844,26.074l3.42,6.154l22.687-9.719   c1.473,4.04,3.645,9.046,6.92,14.579c7.547,12.796,20.99,28.062,43.552,37.438l6.932,2.892l21.44-46.457l23.097,3.843l0.865-8.241   c0.012-0.172,0.957-9.178,0.957-21.05c-0.007-9.231-0.548-20.152-2.688-30.293c-1.082-5.071-2.562-9.964-4.747-14.434   c-0.594-1.202-1.255-2.384-1.968-3.526l43.05-54.79c4.734,11.945,10.221,30.36,10.168,51.476c0,14.638-2.556,30.544-9.687,46.854   c-4.113,9.362-5.783,18.732-5.764,27.678c0,8.399,1.406,16.408,3.361,24.133c2.951,11.595,7.124,22.615,10.406,33.688   c3.302,11.073,5.738,22.092,5.738,33.714C369.469,258.994,369.244,262.613,368.736,266.337z" />
	<path class="st0" d="M228.176,441.839c-4.305,0-7.798,6.398-7.798,14.288c0,7.896,3.493,14.295,7.798,14.295   c4.305,0,7.798-6.398,7.798-14.295C235.974,448.237,232.481,441.839,228.176,441.839z" />
	<path class="st0" d="M284.049,441.839c-4.305,0-7.798,6.398-7.798,14.288c0,7.896,3.493,14.295,7.798,14.295   c4.305,0,7.791-6.398,7.791-14.295C291.84,448.237,288.354,441.839,284.049,441.839z" />
	<path class="st0" d="M180.781,242.726c-8.075,0-14.618,6.537-14.618,14.612c0,8.082,6.543,14.619,14.618,14.619   c8.076,0,14.612-6.537,14.612-14.619C195.393,249.262,188.856,242.726,180.781,242.726z" />
	<path class="st0" d="M331.443,242.726c-8.075,0-14.612,6.537-14.612,14.612c0,8.082,6.537,14.619,14.612,14.619   c8.076,0,14.619-6.537,14.619-14.619C346.062,249.262,339.519,242.726,331.443,242.726z" />
</g>
</g><g transform="translate(350,350) scale(4.6875)"><path d="M31.835 9.233l-4.371-8.358c-0.255-0.487-0.915-0.886-1.464-0.886h-10.060c-0.011-0.001-0.022-0.003-0.033-0.004-0.009 0-0.018 0.003-0.027 0.004h-9.88c-0.55 0-1.211 0.398-1.47 0.883l-4.359 8.197c-0.259 0.486-0.207 1.248 0.113 1.696l15.001 20.911c0.161 0.224 0.375 0.338 0.588 0.338 0.212 0 0.424-0.11 0.587-0.331l15.247-20.758c0.325-0.444 0.383-1.204 0.128-1.691zM29.449 8.988h-5.358l2.146-6.144zM17.979 1.99h6.436l-1.997 5.716zM20.882 8.988h-9.301l4.396-6.316zM9.809 8.034l-2.006-6.044h6.213zM21.273 10.988l-5.376 15.392-5.108-15.392h10.484zM13.654 25.971l-10.748-14.983h5.776zM23.392 10.988h5.787l-11.030 15.018zM5.89 2.575l2.128 6.413h-5.539z" />
</g></g><g transform="translate(260, -40) scale(2.5)"><g>
	<path d="M4.92,68.964c0.593,2.347,1.192,4.693,1.774,7.04c39.751-13.17,81.899-13.065,121.556,0.264   c0.611-2.437,1.233-4.862,1.851-7.304C89.216,55.329,45.802,55.329,4.92,68.964z" stroke="black" fill="black" />
	<path d="M125.977,75.06c3.586-1.523,6.097-5.089,6.097-9.229c0-5.539-4.493-10.038-10.035-10.038   c-5.559,0-10.052,4.499-10.052,10.038c0,2.073,0.633,3.992,1.703,5.596c-6.259,5.263-13.536,7.983-20.956,7.098   c-8.485-1.044-15.899-6.618-21.278-14.924c0.833,0.256,1.698,0.433,2.604,0.433c4.921,0,8.912-3.989,8.912-8.909   c0-4.58-3.47-8.306-7.92-8.807c0.422-0.979,0.643-2.052,0.643-3.183c0-4.52-3.67-8.18-8.184-8.18c-4.515,0-8.182,3.66-8.182,8.18   c0,1.131,0.221,2.204,0.643,3.183c-4.45,0.501-7.92,4.227-7.92,8.807c0,4.92,3.989,8.909,8.91,8.909   c0.907,0,1.771-0.177,2.592-0.433c-5.368,8.312-12.793,13.874-21.265,14.924c-7.42,0.886-14.7-1.846-20.964-7.098   c1.075-1.604,1.703-3.522,1.703-5.596c0-5.539-4.493-10.038-10.046-10.038c-5.54,0-10.033,4.499-10.033,10.038   c0,4.14,2.51,7.705,6.096,9.229C6.637,79.653,3.623,83.603,0,86.514c1.144,4.504,2.283,9.018,3.417,13.531   c41.86-13.975,86.305-13.975,128.166,0c1.128-4.514,2.272-9.027,3.417-13.531C131.398,83.603,128.387,79.653,125.977,75.06z    M17.273,88.945c-2.434,0-4.411-1.973-4.411-4.409s1.978-4.408,4.411-4.408c2.436,0,4.409,1.972,4.409,4.408   S19.709,88.945,17.273,88.945z M67.521,83.787c-2.436,0-4.405-1.972-4.405-4.397c0-2.437,1.969-4.419,4.405-4.419   c2.437,0,4.409,1.982,4.409,4.419C71.93,81.81,69.957,83.787,67.521,83.787z M116.295,88.945c-2.431,0-4.408-1.973-4.408-4.409   s1.978-4.408,4.408-4.408s4.414,1.972,4.414,4.408S118.726,88.945,116.295,88.945z" />
</g>
</g><g transform="translate(34, 62) scale(0.61)"><metadata>
Created by potrace 1.15, written by Peter Selinger 2001-2017
</metadata>
<g transform="translate(0.000000,1200.000000) scale(0.100000,-0.100000)" fill="#000000" stroke="none">
<path d="M7855 11986 c-83 -16 -185 -43 -192 -50 -9 -8 56 -114 117 -189 184 -232 339 -295 601 -245 48 9 66 7 110 -7 l52 -18 -45 -17 c-89 -33 -174 -107 -246 -213 l-33 -47 63 -30 c159 -74 354 -96 453 -51 28 12 63 34 78 49 28 27 67 91 67 112 0 19 -197 12 -380 -15 -27 -4 -30 -3 -14 4 42 19 231 52 324 57 l95 5 135 -66 135 -67 -60 -17 c-79 -22 -165 -79 -244 -159 l-63 -66 23 -19 c44 -36 203 -107 289 -128 109 -28 191 -22 264 19 56 32 124 118 107 135 -6 6 -101 13 -218 15 -254 7 -223 21 57 27 l185 3 140 -91 139 -92 -59 -7 c-73 -8 -150 -37 -221 -84 -61 -41 -141 -110 -134 -116 46 -41 153 -112 216 -145 144 -75 280 -91 372 -44 45 23 112 87 112 106 0 21 -257 75 -357 75 -23 0 -45 5 -48 10 -12 19 255 1 367 -25 31 -7 59 -11 62 -8 5 5 249 -198 261 -216 3 -6 -17 -7 -48 -4 -33 3 -77 -1 -117 -11 -72 -18 -208 -83 -255 -122 l-30 -25 73 -70 c176 -170 358 -245 494 -205 56 16 157 92 141 106 -25 22 -214 83 -373 121 -41 9 -65 18 -54 18 47 2 275 -42 357 -70 49 -16 92 -27 97 -24 8 5 201 -204 238 -256 15 -21 14 -22 -4 -14 -10 5 -58 10 -105 13 -67 3 -104 -1 -163 -17 -61 -17 -186 -70 -205 -87 -11 -10 117 -158 201 -231 162 -141 334 -172 458 -82 36 26 40 33 29 44 -24 23 -240 127 -334 161 -113 41 -95 43 39 4 115 -33 230 -79 293 -116 28 -16 43 -20 43 -12 0 9 4 8 15 -2 18 -18 215 -313 211 -317 -1 -1 -22 7 -46 20 -62 30 -209 36 -317 12 -92 -20 -153 -43 -153 -57 0 -16 68 -126 128 -205 142 -191 314 -270 464 -214 73 28 84 42 55 68 -43 40 -213 151 -307 202 -52 28 -92 51 -88 51 10 0 156 -64 228 -100 36 -18 101 -57 144 -87 59 -40 81 -51 87 -41 7 11 123 -215 177 -344 l11 -27 -47 30 c-75 48 -142 64 -267 63 -114 0 -225 -18 -225 -36 0 -5 17 -51 39 -102 76 -182 195 -332 308 -387 64 -31 163 -37 232 -14 28 9 51 20 51 25 0 19 -232 227 -350 313 -14 10 2 4 35 -14 83 -43 205 -132 286 -207 43 -40 69 -58 69 -48 0 33 17 14 33 -36 15 -45 95 -301 114 -363 4 -15 -5 -10 -37 19 -56 51 -149 93 -244 111 -88 17 -252 20 -261 5 -9 -14 30 -166 65 -256 63 -158 144 -265 242 -319 48 -27 62 -30 145 -30 54 0 97 5 103 11 16 16 -120 194 -247 322 -92 93 -91 99 2 24 60 -47 215 -207 252 -258 39 -54 53 -65 53 -40 0 8 4 17 9 20 9 6 81 -422 81 -481 0 -3 -15 17 -33 43 -73 108 -233 181 -454 208 l-53 7 0 -46 c0 -134 59 -374 116 -471 52 -89 142 -162 223 -179 35 -8 141 -9 148 -1 13 12 -154 294 -237 403 l-61 78 80 -83 c83 -86 181 -222 238 -327 18 -33 33 -55 33 -49 0 5 7 19 15 30 13 17 14 -11 14 -246 l0 -265 -29 57 c-51 99 -160 188 -298 244 -75 30 -182 58 -190 49 -4 -4 -7 -91 -7 -193 0 -208 11 -266 67 -381 57 -118 152 -188 268 -198 33 -3 60 -3 60 0 0 41 -100 293 -170 425 -27 50 -46 92 -44 92 8 0 109 -161 152 -240 34 -63 81 -177 107 -255 5 -18 8 -16 27 13 11 18 22 32 23 30 3 -3 -1 -35 -26 -208 -5 -41 -22 -138 -36 -215 l-26 -140 -17 62 c-31 113 -110 208 -248 298 -39 24 -98 57 -132 72 -74 32 -71 34 -101 -92 -30 -124 -37 -344 -15 -438 20 -86 54 -152 103 -201 43 -44 144 -96 185 -96 32 0 32 -17 -7 186 -13 73 -42 185 -64 250 -21 66 -38 120 -36 122 1 1 19 -35 40 -80 53 -116 102 -265 121 -366 23 -125 21 -122 56 -82 20 24 28 29 24 15 -39 -137 -107 -341 -162 -485 l-29 -75 -6 76 c-9 114 -51 191 -164 305 -88 88 -209 179 -225 169 -12 -8 -85 -197 -112 -290 -18 -66 -22 -105 -23 -220 0 -136 1 -142 31 -205 17 -36 50 -84 73 -107 44 -43 139 -96 155 -86 15 10 -2 366 -23 488 -11 60 -18 111 -17 113 4 4 43 -140 61 -226 13 -58 30 -221 38 -346 l2 -39 33 27 c17 15 32 25 32 22 0 -27 -297 -572 -307 -563 -1 2 2 21 8 43 16 55 6 179 -20 244 -31 83 -106 190 -195 280 -44 44 -82 80 -85 80 -12 0 -106 -155 -153 -250 -68 -141 -92 -232 -93 -355 0 -92 3 -106 31 -165 32 -67 96 -140 145 -166 15 -8 30 -10 33 -6 19 32 60 356 67 542 2 40 3 38 9 -20 11 -92 11 -303 1 -380 -5 -36 -12 -90 -17 -120 l-7 -54 24 15 c13 9 37 24 54 35 l30 19 -33 -45 c-97 -136 -394 -500 -407 -500 -2 0 6 21 17 47 29 65 36 196 14 283 -9 36 -36 106 -61 155 -45 91 -137 225 -154 225 -16 0 -169 -179 -227 -265 -169 -255 -184 -475 -42 -630 27 -30 53 -55 58 -55 23 0 134 352 165 520 l13 75 1 -54 c2 -112 -46 -355 -98 -494 -16 -42 -25 -77 -20 -77 5 0 32 9 61 20 l51 19 -39 -40 c-91 -95 -540 -474 -519 -438 5 8 19 28 31 45 112 148 100 394 -31 654 -42 83 -30 85 -174 -30 -178 -143 -297 -293 -341 -429 -41 -130 -17 -280 62 -375 l24 -29 51 79 c68 107 173 319 213 432 18 51 34 91 36 89 7 -6 -63 -241 -95 -322 -40 -99 -100 -220 -135 -271 -24 -35 -25 -39 -9 -42 10 -1 42 4 71 11 28 8 52 12 52 10 0 -19 -642 -393 -675 -393 -4 0 15 20 41 44 62 56 109 133 130 216 24 95 15 302 -19 428 -14 52 -29 98 -33 102 -13 12 -188 -77 -302 -154 -223 -148 -334 -308 -335 -481 -1 -72 22 -163 49 -200 15 -19 18 -17 87 56 92 97 213 254 277 360 68 114 71 119 60 85 -44 -125 -224 -412 -321 -511 -27 -28 -49 -54 -49 -57 0 -4 33 -8 73 -10 l72 -3 -90 -37 c-184 -77 -391 -146 -670 -225 -11 -3 14 17 55 45 42 28 92 72 114 101 47 63 90 173 106 271 12 75 11 353 -1 365 -9 8 -145 -27 -256 -66 -279 -98 -457 -246 -508 -423 -19 -66 -17 -205 4 -244 11 -21 13 -20 84 30 137 98 289 233 407 363 63 70 63 70 24 15 -116 -166 -297 -356 -411 -433 -34 -23 -63 -45 -63 -48 0 -7 56 -23 131 -37 33 -6 67 -5 113 5 147 30 391 97 571 158 105 35 181 57 170 49 -96 -68 -144 -114 -120 -114 75 0 722 -94 734 -106 3 -3 -21 -3 -54 0 -62 7 -634 46 -672 46 -20 0 -21 -2 -9 -47 18 -68 41 -109 92 -163 123 -132 358 -154 640 -62 132 44 207 78 332 155 l83 50 -53 54 c-127 130 -316 248 -454 283 -90 23 -154 25 -244 6 -36 -8 -66 -13 -68 -11 -1 1 23 13 55 25 110 44 419 197 563 280 80 45 150 85 155 88 6 3 -11 -17 -36 -44 -26 -28 -52 -60 -58 -73 -12 -22 -12 -22 31 -17 87 12 318 25 508 30 l195 5 -365 -48 c-201 -27 -366 -49 -368 -50 -1 0 9 -24 23 -51 34 -68 95 -126 164 -159 51 -24 67 -26 176 -26 108 1 129 4 210 32 99 34 227 102 320 168 77 55 215 175 215 187 0 13 -114 84 -215 132 -127 62 -213 86 -330 93 -89 5 -108 3 -175 -20 -41 -14 -76 -24 -78 -22 -2 1 39 32 91 68 122 86 341 256 442 345 44 38 81 69 82 68 2 -2 -11 -28 -28 -60 -17 -31 -29 -60 -26 -63 3 -3 68 12 143 32 153 42 526 126 532 120 2 -2 -7 -6 -20 -10 -13 -4 -149 -47 -303 -95 -154 -49 -292 -92 -307 -96 -16 -3 -28 -10 -28 -14 0 -4 14 -26 30 -49 37 -51 106 -96 179 -118 218 -63 554 133 789 461 l34 46 -54 24 c-139 62 -294 96 -432 96 -117 0 -186 -16 -260 -62 l-50 -30 51 58 c28 33 66 73 83 89 43 40 211 230 293 333 60 74 83 91 58 44 -4 -9 -11 -34 -15 -54 l-7 -37 144 69 c135 65 479 211 495 210 4 -1 -24 -17 -63 -36 -38 -20 -177 -92 -308 -162 l-238 -125 32 -33 c17 -17 54 -45 82 -60 47 -26 61 -29 142 -29 100 1 153 18 255 84 84 54 209 185 282 296 70 106 136 231 126 240 -3 3 -38 13 -79 22 -55 13 -120 17 -249 17 -214 0 -248 -9 -389 -111 -17 -13 -6 9 36 72 72 107 230 369 267 443 14 28 29 52 32 52 3 0 2 -26 -2 -57 -6 -49 -5 -56 7 -47 117 92 549 376 549 361 0 -2 -21 -19 -47 -38 -40 -28 -347 -266 -448 -347 -27 -22 -28 -23 -9 -37 41 -31 111 -58 165 -62 152 -14 308 87 435 282 71 109 96 163 144 301 31 91 38 119 28 126 -19 14 -282 1 -363 -17 -100 -22 -206 -75 -271 -137 l-57 -53 26 50 c29 59 164 399 198 500 l24 70 3 -40 c1 -22 5 -46 8 -54 3 -10 53 32 152 130 81 80 190 183 242 230 108 96 114 103 -150 -185 -74 -82 -150 -165 -167 -186 l-33 -38 38 -18 c46 -22 167 -30 216 -14 97 32 191 121 265 252 62 110 122 308 137 452 l7 67 -44 -7 c-179 -25 -312 -64 -407 -121 -58 -34 -122 -94 -163 -154 -13 -19 -11 -3 8 71 14 52 45 190 68 305 37 181 44 205 50 172 4 -20 11 -39 15 -42 4 -2 33 35 66 83 32 48 110 152 173 232 170 217 179 223 50 29 -173 -259 -240 -372 -229 -383 6 -6 48 -11 98 -11 75 0 94 4 138 27 135 71 232 259 263 513 12 97 14 227 5 262 -6 21 -7 21 -57 6 -224 -65 -408 -187 -467 -307 -12 -26 -23 -46 -25 -44 -1 2 2 39 6 83 4 44 11 172 15 285 7 193 8 202 22 172 9 -18 18 -32 21 -31 3 0 36 62 73 137 70 142 210 394 216 388 2 -2 -10 -30 -26 -62 -45 -89 -212 -472 -212 -485 0 -8 22 -10 73 -7 202 13 317 180 334 484 6 111 -16 320 -37 354 -7 12 -20 9 -72 -15 -193 -92 -337 -226 -381 -356 l-15 -44 -7 80 c-11 133 -35 347 -45 404 -11 62 -9 71 10 36 7 -14 16 -25 19 -25 3 0 30 73 59 163 51 154 140 391 141 374 1 -4 -13 -53 -29 -110 -71 -240 -118 -438 -106 -443 18 -7 102 14 145 36 75 38 140 139 161 250 14 76 12 204 -5 304 -15 88 -71 276 -82 276 -29 0 -199 -140 -266 -218 -54 -63 -107 -166 -107 -206 0 -51 -16 -25 -34 57 -16 70 -75 286 -101 367 -8 25 -7 25 13 7 20 -18 20 -18 26 0 2 10 8 45 11 78 6 48 43 246 82 428 15 70 10 5 -12 -174 -13 -106 -27 -229 -30 -271 -7 -78 -7 -78 17 -78 39 0 125 49 163 92 55 65 70 123 69 263 -1 99 -6 135 -28 210 -27 90 -121 295 -135 295 -5 0 -45 -38 -90 -85 -120 -125 -176 -220 -201 -340 l-12 -58 -47 114 c-26 63 -68 158 -94 213 -26 54 -47 101 -47 104 0 3 8 -2 19 -12 17 -16 18 -10 25 186 13 338 21 366 29 103 4 -126 10 -247 13 -267 l6 -38 35 15 c60 25 111 73 140 132 24 50 27 69 27 148 1 105 -24 195 -84 318 -42 83 -137 227 -151 227 -19 0 -112 -132 -160 -228 -47 -92 -53 -112 -58 -187 l-6 -84 -68 114 c-37 63 -90 148 -118 190 -37 57 -45 75 -31 71 18 -6 18 -3 11 46 -16 98 -39 337 -38 390 l1 53 9 -55 c27 -169 73 -416 79 -423 21 -24 119 64 148 132 41 97 8 259 -82 407 -50 82 -188 254 -204 254 -14 0 -91 -143 -123 -230 -27 -71 -32 -100 -33 -177 -1 -67 -4 -89 -12 -80 -6 7 -50 59 -97 117 -47 58 -103 124 -122 148 -20 23 -30 39 -21 36 21 -8 20 -7 -9 90 -30 100 -87 355 -82 369 2 6 11 -18 21 -54 32 -113 118 -374 126 -383 14 -14 68 32 97 82 25 41 28 57 28 132 0 75 -4 93 -32 152 -42 89 -82 146 -161 229 -63 68 -150 139 -169 139 -15 0 -70 -151 -89 -242 -16 -80 -15 -186 2 -233 4 -11 -33 18 -82 65 -49 47 -115 107 -147 134 -31 28 -52 53 -47 56 6 4 -2 33 -21 76 -38 84 -141 365 -136 371 2 2 14 -20 26 -49 42 -103 176 -377 184 -378 12 0 56 50 75 85 11 20 17 55 17 105 0 107 -41 185 -155 301 -80 81 -226 189 -256 189 -16 0 -40 -77 -55 -175 -13 -80 -7 -221 10 -254 7 -12 11 -26 9 -30 -4 -11 -281 186 -284 202 -1 7 -17 37 -36 67 -43 68 -181 330 -176 335 2 2 23 -29 47 -68 45 -73 190 -299 197 -306 7 -8 36 24 56 63 82 159 -65 375 -348 512 -52 26 -97 45 -99 42 -9 -8 -25 -137 -25 -198 0 -75 21 -185 44 -229 16 -29 12 -28 -134 47 -82 42 -150 81 -150 85 0 4 -24 38 -54 75 -45 56 -165 227 -190 270 -18 31 7 6 60 -60 32 -40 94 -115 138 -167 l80 -94 24 49 c19 41 22 61 19 117 -4 59 -9 75 -43 124 -21 31 -64 76 -94 101 -80 64 -292 162 -350 162 -18 0 -20 -7 -20 -87 0 -110 21 -212 59 -285 l29 -57 -52 21 c-28 11 -129 49 -225 84 -95 35 -246 100 -335 144 -176 88 -176 89 -6 23 63 -24 151 -57 195 -73 44 -15 111 -40 149 -55 l69 -26 -5 53 c-5 68 -45 155 -92 201 -41 42 -124 87 -206 112 -75 23 -283 29 -375 11z m3242 -8488 c-3 -8 -6 -5 -6 6 -1 11 2 17 5 13 3 -3 4 -12 1 -19z" />
<path d="M4215 11956 c-55 -18 -123 -44 -150 -58 -85 -43 -175 -118 -213 -176 -35 -52 -37 -60 -37 -137 0 -63 4 -87 19 -110 l19 -29 69 74 c38 41 101 113 140 160 102 121 109 126 43 30 -58 -85 -186 -249 -221 -283 -28 -28 -295 -155 -288 -137 46 104 62 218 49 354 -7 78 -7 78 -33 72 -55 -12 -231 -108 -294 -160 -152 -126 -202 -258 -144 -382 13 -28 28 -54 34 -58 8 -5 108 132 236 324 20 30 36 52 36 49 0 -12 -115 -217 -176 -314 l-63 -100 -138 -91 -139 -90 18 50 c20 58 24 202 8 286 -17 91 -30 130 -43 130 -20 0 -167 -94 -225 -144 -69 -59 -132 -134 -168 -199 -26 -46 -29 -62 -29 -138 0 -78 3 -90 30 -135 17 -27 38 -50 46 -52 10 -2 47 61 122 209 59 117 107 209 107 205 0 -14 -113 -292 -143 -351 -16 -33 -33 -70 -36 -82 -5 -18 -185 -183 -254 -233 -19 -14 -20 -14 -14 4 28 72 15 221 -30 357 -39 120 -37 119 -113 61 -144 -110 -263 -261 -300 -380 -24 -77 -25 -112 -5 -178 14 -48 80 -134 102 -134 10 0 108 261 149 394 10 32 20 54 22 48 4 -14 -62 -272 -97 -374 -16 -49 -25 -88 -20 -88 6 0 -27 -42 -73 -93 -46 -50 -103 -116 -128 -145 l-46 -54 4 70 c3 49 -2 94 -17 153 -23 92 -107 269 -127 269 -6 0 -44 -35 -84 -77 -231 -248 -300 -496 -178 -643 22 -27 88 -73 95 -66 7 7 88 376 98 447 4 28 9 48 12 45 7 -6 -23 -263 -46 -396 -10 -60 -14 -108 -9 -111 5 -3 -25 -54 -67 -114 -41 -59 -91 -134 -111 -166 -19 -33 -36 -59 -37 -59 -1 0 -3 29 -4 65 -4 110 -80 283 -173 394 -29 34 -30 34 -49 17 -38 -34 -122 -166 -166 -259 -98 -206 -100 -372 -6 -479 36 -41 114 -88 126 -76 8 8 24 191 31 360 11 235 26 145 22 -133 -2 -186 0 -235 9 -232 7 3 13 3 13 0 0 -4 -33 -73 -73 -154 -40 -81 -82 -168 -92 -193 l-18 -45 -8 47 c-13 84 -40 148 -99 237 -53 78 -174 211 -183 200 -14 -17 -78 -131 -92 -164 -144 -338 -114 -588 79 -676 61 -28 83 -25 80 9 -10 88 -35 474 -32 478 8 8 78 -440 78 -500 0 -6 5 -5 12 2 26 26 23 8 -12 -95 -20 -60 -52 -161 -70 -225 l-34 -118 -13 50 c-33 130 -134 257 -307 385 -37 28 -39 29 -52 10 -21 -28 -81 -220 -93 -296 -18 -108 -14 -258 9 -331 35 -114 106 -192 199 -218 38 -11 91 -13 91 -5 0 9 -109 478 -120 514 -5 19 -8 37 -6 39 7 6 130 -379 152 -470 18 -78 26 -92 38 -62 17 44 14 -7 -8 -147 -14 -85 -28 -185 -32 -224 -7 -71 -22 -130 -23 -91 -2 62 -114 203 -227 287 -60 44 -202 124 -209 117 -8 -8 -35 -123 -45 -193 -44 -310 42 -572 211 -644 49 -21 151 -33 164 -19 4 4 -41 125 -98 270 -58 145 -104 264 -102 266 5 5 178 -344 216 -435 19 -46 37 -83 40 -83 3 0 11 10 17 23 8 17 11 -22 11 -163 1 -102 4 -223 6 -270 l6 -85 -22 45 c-13 25 -55 77 -94 116 -58 58 -94 82 -183 127 -120 60 -217 95 -229 83 -5 -4 -8 -85 -7 -179 1 -202 20 -300 84 -434 65 -133 157 -208 272 -220 56 -5 119 6 125 23 2 5 -66 125 -151 267 -84 141 -152 257 -151 257 8 0 214 -287 278 -387 40 -62 75 -113 79 -113 4 0 11 15 16 33 l9 32 6 -30 c4 -16 14 -84 22 -150 9 -66 28 -176 41 -244 14 -67 23 -125 21 -127 -2 -2 -16 14 -32 35 -76 111 -292 213 -518 245 -56 9 -55 15 -31 -143 20 -137 38 -207 80 -310 110 -264 288 -386 478 -326 31 10 56 20 56 24 0 6 -250 308 -353 426 l-62 70 65 -56 c36 -31 139 -135 230 -231 l165 -175 9 39 c9 38 10 35 71 -149 34 -103 79 -230 99 -281 20 -52 36 -95 36 -97 0 -2 -22 18 -48 44 -56 56 -149 103 -259 132 -84 21 -278 40 -330 32 -30 -5 -32 -8 -27 -32 98 -410 329 -702 557 -704 34 0 85 7 112 16 49 17 105 52 95 59 -3 3 -84 71 -180 153 -96 82 -202 171 -235 199 -33 27 -67 56 -75 64 -42 41 325 -218 439 -311 l86 -68 5 47 5 47 23 -49 c37 -77 170 -320 229 -417 29 -48 53 -90 53 -93 0 -3 -17 9 -38 25 -98 79 -247 116 -433 107 -64 -2 -146 -10 -183 -17 -78 -13 -77 -7 -14 -136 129 -265 332 -471 511 -519 111 -29 218 -6 298 64 l42 38 -194 114 c-107 62 -238 138 -291 169 -54 30 -96 56 -94 58 6 6 388 -176 496 -236 93 -51 105 -56 108 -39 2 11 -1 33 -7 50 -6 17 -10 33 -8 34 1 2 46 -54 99 -124 79 -105 208 -261 322 -391 19 -21 15 -20 -36 9 -32 17 -81 38 -110 46 -71 18 -226 18 -329 -2 -92 -17 -265 -70 -273 -83 -9 -14 107 -173 192 -263 283 -297 579 -372 759 -192 29 29 53 57 53 63 0 5 -19 16 -43 25 -23 8 -121 44 -217 80 -96 35 -224 83 -285 105 -60 22 -106 40 -101 41 19 0 389 -102 524 -145 79 -26 146 -45 148 -43 2 2 -8 28 -21 57 -14 29 -25 56 -25 59 0 4 37 -30 83 -74 97 -95 257 -233 379 -328 103 -80 114 -92 56 -66 -114 50 -261 46 -430 -10 -85 -29 -234 -99 -292 -138 l-28 -20 78 -78 c183 -180 387 -300 581 -340 149 -31 281 4 368 97 42 45 84 114 74 122 -2 2 -146 27 -319 57 -355 59 -398 67 -360 69 62 2 575 -48 663 -65 36 -7 34 3 -9 66 -20 29 -30 49 -22 44 7 -4 50 -32 96 -61 125 -80 330 -197 464 -264 65 -32 118 -61 118 -63 0 -2 -26 3 -57 10 -141 33 -292 0 -475 -105 -90 -51 -253 -181 -253 -201 0 -19 146 -117 255 -171 184 -91 326 -129 485 -129 146 0 264 48 329 133 30 39 76 135 76 159 0 18 8 18 -584 4 -98 -3 -176 -3 -174 -1 8 8 487 56 621 62 75 3 137 9 137 13 0 5 -26 32 -59 62 l-58 55 96 -39 c101 -42 198 -56 290 -43 l44 7 -66 66 c-97 99 -224 275 -291 404 -33 62 -57 111 -53 108 3 -3 32 -46 65 -96 66 -100 202 -262 309 -367 l70 -68 24 53 c20 44 24 69 24 153 0 91 -3 106 -31 165 -43 90 -101 160 -196 235 -89 70 -266 170 -370 209 l-67 26 -11 -41 c-40 -147 -51 -324 -29 -445 21 -115 80 -208 184 -292 l40 -32 -55 22 c-166 67 -759 384 -680 364 42 -11 140 -19 140 -12 0 4 -18 33 -39 65 -76 111 -163 301 -213 459 -23 76 -18 93 7 25 50 -137 274 -518 299 -510 6 2 29 38 51 81 37 72 39 82 39 164 0 134 -45 233 -168 375 -87 100 -330 285 -359 274 -17 -6 -68 -132 -99 -242 -17 -61 -22 -107 -22 -195 0 -139 18 -193 95 -289 28 -35 45 -60 37 -55 -87 52 -448 334 -568 443 l-55 51 45 -19 c48 -20 100 -34 100 -27 0 2 -11 28 -24 59 -57 129 -118 373 -130 522 l-5 70 23 -105 c33 -146 117 -385 173 -494 l15 -28 33 32 c36 35 88 126 99 174 13 52 8 166 -9 224 -38 129 -140 284 -289 436 l-87 89 -35 -49 c-55 -76 -102 -164 -136 -256 -29 -74 -32 -95 -32 -194 -1 -107 0 -112 35 -183 l36 -72 -59 58 c-132 129 -450 503 -429 503 6 0 13 -5 16 -10 8 -13 85 -53 91 -47 2 2 -5 48 -17 103 -17 78 -22 143 -25 304 -2 124 0 195 5 180 5 -14 10 -52 10 -85 2 -110 64 -461 85 -482 6 -7 65 37 102 75 14 15 40 56 58 92 29 61 31 72 30 170 0 87 -5 119 -27 183 -37 107 -83 195 -168 322 l-72 108 -69 -72 c-189 -198 -262 -404 -202 -573 7 -21 11 -38 8 -38 -14 0 -273 421 -345 562 l-22 43 42 -38 c22 -20 45 -37 50 -37 5 0 9 63 10 140 0 137 14 254 47 398 21 93 28 87 12 -9 -14 -82 -18 -502 -5 -515 13 -14 114 45 153 88 20 23 48 66 63 97 24 52 26 65 25 196 0 137 -1 143 -41 261 -43 126 -107 264 -122 264 -17 0 -137 -94 -193 -152 -117 -121 -168 -227 -168 -350 -1 -71 -1 -72 -16 -45 -36 66 -214 528 -214 555 0 3 15 -9 34 -27 l34 -33 7 48 c20 155 89 397 137 484 10 19 16 26 13 15 -37 -113 -86 -349 -100 -484 l-6 -64 33 7 c130 26 235 142 267 294 15 74 14 221 -4 320 -13 77 -51 227 -62 244 -6 11 -137 -57 -208 -107 -127 -90 -204 -198 -229 -319 l-13 -61 -31 130 c-26 109 -92 442 -92 463 0 4 12 -11 26 -31 14 -21 27 -37 29 -35 2 2 15 39 30 83 33 100 112 268 171 363 25 39 47 72 49 72 2 0 -20 -51 -50 -112 -50 -106 -125 -311 -140 -387 l-7 -34 53 6 c149 18 255 128 305 317 19 72 25 310 11 413 -10 68 -12 69 -124 29 -184 -65 -321 -175 -365 -294 l-23 -63 -7 55 c-3 30 -9 159 -13 285 -5 209 -5 227 9 198 8 -18 17 -33 20 -33 3 0 20 28 37 63 46 90 132 221 205 308 89 107 106 117 39 24 -69 -96 -117 -178 -181 -308 -57 -114 -54 -121 39 -113 109 11 206 78 270 187 58 99 106 313 107 473 l0 58 -57 -7 c-205 -25 -399 -129 -453 -240 -12 -25 -24 -45 -26 -45 -8 0 39 430 55 500 l8 35 7 -32 c4 -18 11 -33 14 -33 4 0 27 31 52 68 24 37 98 121 165 188 131 132 215 193 99 73 -123 -129 -284 -342 -269 -357 4 -4 48 -7 98 -7 75 0 100 4 138 23 130 64 236 242 288 484 12 54 21 102 21 108 0 15 -156 12 -247 -5 -105 -20 -211 -73 -262 -132 -23 -25 -41 -42 -41 -37 0 13 74 293 102 387 22 74 38 98 38 57 0 -25 12 -26 27 -1 22 36 187 173 283 235 106 70 140 89 95 54 -151 -117 -355 -310 -355 -335 0 -20 66 -38 140 -38 59 0 86 5 125 25 96 46 183 147 257 295 36 70 91 215 85 221 -12 12 -168 26 -247 21 -110 -6 -188 -31 -255 -83 -25 -19 -45 -32 -45 -31 0 17 155 369 177 402 13 19 13 19 13 -4 0 -23 0 -23 38 7 78 60 166 115 273 168 61 30 113 54 115 52 1 -2 -32 -24 -74 -48 -86 -50 -312 -217 -312 -230 0 -4 21 -19 48 -32 70 -34 187 -32 259 5 70 36 179 140 241 230 48 70 117 196 110 202 -2 2 -37 13 -78 25 -155 44 -343 35 -421 -21 -16 -11 -29 -17 -29 -13 0 11 70 128 154 259 46 72 72 103 74 92 2 -10 7 -17 10 -15 4 2 49 25 101 51 85 44 328 134 336 125 2 -2 -46 -25 -108 -51 -89 -37 -284 -141 -306 -163 -9 -9 24 -35 74 -59 42 -19 70 -25 123 -25 62 0 79 5 153 42 66 33 102 60 169 127 47 47 104 114 128 149 l44 63 -64 28 c-110 50 -175 65 -278 65 -66 0 -106 -5 -132 -16 -21 -10 -38 -15 -38 -13 0 7 249 303 260 310 6 4 7 -1 3 -11 -5 -14 -3 -16 13 -9 114 47 262 88 379 104 86 12 97 7 19 -9 -114 -24 -384 -122 -384 -140 0 -4 18 -24 40 -43 137 -125 363 -62 584 162 l79 79 -59 38 c-32 21 -93 52 -134 68 -67 27 -87 31 -179 31 l-103 0 83 79 c130 122 199 179 199 166 0 -8 8 -10 23 -6 80 23 189 38 297 41 105 3 114 3 56 -5 -79 -10 -242 -44 -315 -66 l-52 -15 22 -31 c30 -42 101 -85 165 -99 119 -27 309 50 481 194 l43 35 -37 33 c-105 92 -231 150 -330 152 -35 1 -63 4 -63 7 0 3 62 47 136 99 l136 94 144 5 c79 2 183 1 231 -4 l88 -8 -150 -7 c-144 -7 -272 -22 -283 -34 -11 -11 58 -91 103 -120 43 -27 59 -30 139 -33 80 -3 102 0 180 27 80 27 199 87 251 127 19 15 17 18 -56 87 -87 83 -158 125 -248 147 l-63 16 145 75 145 75 139 -13 c76 -7 172 -22 213 -33 41 -11 62 -17 45 -14 -16 3 -110 8 -209 11 l-178 6 7 -24 c8 -28 50 -86 80 -111 66 -57 193 -72 330 -39 79 20 221 73 239 91 11 11 -10 45 -71 117 -54 63 -135 120 -204 143 l-51 18 103 40 c259 100 380 129 574 137 l110 5 -90 -14 c-104 -17 -298 -65 -400 -99 l-69 -24 45 -44 c164 -165 411 -130 716 100 43 33 88 70 101 84 l23 24 -75 52 c-155 106 -308 158 -435 147 -111 -10 -271 -101 -331 -189 -19 -28 -39 -41 -83 -56 l-58 -20 22 30 c44 63 79 204 79 326 0 34 -3 64 -7 66 -5 3 -53 -10 -108 -27z m-3478 -3328 c-3 -8 -6 -5 -6 6 -1 11 2 17 5 13 3 -3 4 -12 1 -19z" />
<path d="M4735 1375 c-9 -67 1 -203 22 -305 37 -188 125 -313 270 -386 43 -21 80 -41 83 -45 9 -10 136 -29 191 -29 56 0 151 19 182 36 15 9 5 18 -65 67 -106 72 -258 209 -345 312 -114 134 -120 151 -17 48 109 -109 241 -215 379 -305 108 -70 110 -69 110 78 0 95 -2 103 -37 176 -88 178 -305 309 -638 384 -58 13 -110 24 -117 24 -7 0 -14 -23 -18 -55z" />
<path d="M4255 875 c70 -34 521 -173 531 -163 2 2 -42 17 -99 33 -56 15 -174 52 -262 82 -173 59 -217 71 -170 48z" />
<path d="M4700 700 c-157 -11 -268 -61 -419 -190 -81 -70 -244 -257 -236 -270 9 -15 259 -108 345 -128 323 -78 579 -43 720 98 52 52 91 136 97 211 l6 62 -29 -6 c-16 -4 -112 -25 -214 -47 -102 -23 -237 -52 -300 -66 -63 -13 -131 -29 -150 -34 -36 -10 -66 -13 -59 -6 7 8 491 154 617 187 118 31 122 33 105 50 -44 43 -163 99 -267 123 -58 14 -107 25 -108 24 -2 0 -50 -4 -108 -8z" />
<path d="M7600 627 c-61 -10 -266 -106 -261 -122 2 -5 81 -35 175 -66 94 -31 234 -80 311 -109 77 -28 159 -59 183 -67 73 -26 38 -26 -49 1 -46 13 -172 48 -279 76 -166 44 -239 64 -352 96 -42 12 -6 -172 46 -241 66 -86 136 -131 261 -167 111 -31 333 -31 481 0 97 21 240 64 317 97 l37 15 -39 58 c-148 217 -362 389 -521 421 -74 14 -242 19 -310 8z" />
</g>
</g></svg>