<?xml version="1.0" encoding="iso-8859-1"?>
<!-- Uploaded to: SVG Repo, www.svgrepo.com, Generator: SVG Repo Mixer Tools -->
<!DOCTYPE svg PUBLIC "-//W3C//DTD SVG 1.1//EN" "http://www.w3.org/Graphics/SVG/1.1/DTD/svg11.dtd">
<svg fill="#000000" version="1.1" id="Capa_1" xmlns="http://www.w3.org/2000/svg" xmlns:xlink="http://www.w3.org/1999/xlink" 
	 width="800px" height="800px" viewBox="0 0 135 135" xml:space="preserve">
<g>
	<path d="M4.92,68.964c0.593,2.347,1.192,4.693,1.774,7.04c39.751-13.17,81.899-13.065,121.556,0.264
		c0.611-2.437,1.233-4.862,1.851-7.304C89.216,55.329,45.802,55.329,4.92,68.964z" stroke="black" fill="black"/>
	<path d="M125.977,75.06c3.586-1.523,6.097-5.089,6.097-9.229c0-5.539-4.493-10.038-10.035-10.038
		c-5.559,0-10.052,4.499-10.052,10.038c0,2.073,0.633,3.992,1.703,5.596c-6.259,5.263-13.536,7.983-20.956,7.098
		c-8.485-1.044-15.899-6.618-21.278-14.924c0.833,0.256,1.698,0.433,2.604,0.433c4.921,0,8.912-3.989,8.912-8.909
		c0-4.58-3.47-8.306-7.92-8.807c0.422-0.979,0.643-2.052,0.643-3.183c0-4.52-3.67-8.18-8.184-8.18c-4.515,0-8.182,3.66-8.182,8.18
		c0,1.131,0.221,2.204,0.643,3.183c-4.45,0.501-7.92,4.227-7.92,8.807c0,4.92,3.989,8.909,8.91,8.909
		c0.907,0,1.771-0.177,2.592-0.433c-5.368,8.312-12.793,13.874-21.265,14.924c-7.42,0.886-14.7-1.846-20.964-7.098
		c1.075-1.604,1.703-3.522,1.703-5.596c0-5.539-4.493-10.038-10.046-10.038c-5.54,0-10.033,4.499-10.033,10.038
		c0,4.14,2.51,7.705,6.096,9.229C6.637,79.653,3.623,83.603,0,86.514c1.144,4.504,2.283,9.018,3.417,13.531
		c41.86-13.975,86.305-13.975,128.166,0c1.128-4.514,2.272-9.027,3.417-13.531C131.398,83.603,128.387,79.653,125.977,75.06z
		 M17.273,88.945c-2.434,0-4.411-1.973-4.411-4.409s1.978-4.408,4.411-4.408c2.436,0,4.409,1.972,4.409,4.408
		S19.709,88.945,17.273,88.945z M67.521,83.787c-2.436,0-4.405-1.972-4.405-4.397c0-2.437,1.969-4.419,4.405-4.419
		c2.437,0,4.409,1.982,4.409,4.419C71.93,81.81,69.957,83.787,67.521,83.787z M116.295,88.945c-2.431,0-4.408-1.973-4.408-4.409
		s1.978-4.408,4.408-4.408s4.414,1.972,4.414,4.408S118.726,88.945,116.295,88.945z"/>
</g>
</svg>