<?xml version="1.0" encoding="UTF-8"?>
<svg version="1.1" xmlns="http://www.w3.org/2000/svg" width="2836" height="2836">
<path d="M0 0 C1.19608887 0.16628906 2.39217773 0.33257813 3.62451172 0.50390625 C57.22067147 8.24135479 119.80327569 27.60523152 154.8046875 72.015625 C163.94619731 84.4428732 174.67646503 100.09605224 175.07592773 116.02832031 C175.35623321 121.24614098 175.58980836 124.73216501 179.59985352 128.33740234 C183.21712626 130.47048322 186.87108459 132.261762 190.6875 134 C192.06787275 134.67314929 193.4456263 135.35169428 194.82080078 136.03540039 C197.58550518 137.40711817 200.35850275 138.75909168 203.13916016 140.09814453 C208.35690103 142.63677707 213.36314789 145.51777864 218.375 148.4375 C228.16419991 154.05193286 238.11168694 159.33947936 248.09173584 164.60324097 C256.63520736 169.11223281 265.11721225 173.69629485 273.5 178.5 C283.95394043 184.48733422 294.57492146 190.133311 305.22412109 195.76245117 C306.58564042 196.48220532 307.94713163 197.20201265 309.30859375 197.921875 C309.97225952 198.27276688 310.63592529 198.62365875 311.31970215 198.98518372 C319.71607229 203.43002553 328.04798655 207.99166323 336.37597656 212.56298828 C339.16145066 214.08841632 341.95127567 215.60563894 344.7421875 217.12109375 C345.69625488 217.6406665 346.65032227 218.16023926 347.63330078 218.69555664 C349.52601445 219.72186459 351.42277525 220.74074793 353.32373047 221.75170898 C357.24277818 223.85177606 361.02708724 225.9165811 364.578125 228.6015625 C372.3662836 234.18371559 377.48599158 234.25305874 386.78125 233.21484375 C400.4623032 231.92987928 414.0156187 231.64281604 427.75 231.6875 C429.51133774 231.69023422 429.51133774 231.69023422 431.30825806 231.69302368 C492.11438735 231.85139044 561.87163775 243.24754786 611 282 C611.83660156 282.64582031 612.67320313 283.29164063 613.53515625 283.95703125 C636.0042054 301.56415323 653.44189597 323.52598717 658.58056641 352.24462891 C659.01361288 356.12188207 658.84506972 359.56314023 658.5078125 363.4453125 C657.19660615 378.120857 657.19660615 378.120857 661.78466797 391.53417969 C666.91851053 395.88422108 673.11664664 398.13506235 679.34423828 400.5078125 C685.45118506 403.00051042 691.15723116 406.22014696 696.93893433 409.38037109 C699.69202992 410.87593014 702.46341898 412.33567798 705.23524475 413.79614258 C713.31503753 418.05661279 721.27406158 422.5051062 729.19921875 427.046875 C738.06110807 432.09652703 747.07363263 436.84706942 756.09429932 441.60452271 C764.59611367 446.09126661 773.03557547 450.65308346 781.375 455.4375 C791.64515038 461.32639504 802.09044905 466.85805192 812.56408691 472.37310791 C821.3115621 476.97957517 830.0345991 481.61109625 838.6550293 486.45263672 C844.61354608 489.79799497 850.61435132 493.06181863 856.625 496.3125 C857.62813232 496.85567871 858.63126465 497.39885742 859.66479492 497.95849609 C864.9538249 500.82014057 870.24876835 503.67029318 875.55078125 506.5078125 C876.62054199 507.08233154 877.69030273 507.65685059 878.79248047 508.2487793 C880.82464139 509.3399497 882.85869639 510.42760324 884.89501953 511.51098633 C905.07687318 522.36375629 905.07687318 522.36375629 909.38151164 532.80282433 C910.70004324 537.48689881 910.40872346 542.36089448 910.38031673 547.19002342 C910.38497665 548.42285163 910.38963657 549.65567984 910.3944377 550.92586648 C910.40433628 554.35103565 910.40079567 557.77571502 910.39160402 561.20085469 C910.38489924 564.92592785 910.39555782 568.65095794 910.40399987 572.37602198 C910.41638196 578.9057822 910.41757256 585.43547057 910.41144943 591.96523857 C910.4023684 601.67524055 910.41038234 611.38517594 910.42174067 621.09517281 C910.44142457 638.43659387 910.44375169 655.77798507 910.43854547 673.11941464 C910.43399125 688.29628482 910.43458378 703.47314317 910.44038582 718.65001297 C910.44114268 720.68449851 910.44189866 722.71898405 910.44265376 724.75346959 C910.44379894 727.81912369 910.44494881 730.88477778 910.44611301 733.95043187 C910.45682085 762.45885498 910.46154034 790.96727415 910.45364285 819.47569847 C910.45319709 821.08827397 910.45319709 821.08827397 910.45274232 822.73342675 C910.45029329 831.46402404 910.44768175 840.19462129 910.44505819 848.92521854 C910.43495524 882.9827165 910.44331092 917.04016516 910.46655273 951.09765625 C910.49261406 989.34875682 910.50547627 1027.59982771 910.49836498 1065.85093749 C910.49764891 1069.92807682 910.49697452 1074.00521616 910.49632454 1078.0823555 C910.49615473 1079.08627359 910.49598492 1080.09019168 910.49580997 1081.12453153 C910.49350518 1096.29134905 910.50149252 1111.45813906 910.51461601 1126.62495041 C910.52951116 1143.87016167 910.53039205 1161.11530835 910.5125451 1178.3605182 C910.50296595 1188.0145926 910.50444985 1197.66851645 910.52177979 1207.32258087 C910.53224533 1213.76896138 910.52820274 1220.21522686 910.51229975 1226.66159599 C910.5036427 1230.33604919 910.50130453 1234.01020676 910.51656907 1237.6846451 C910.53285677 1241.64267976 910.51823302 1245.60025774 910.50057125 1249.5582943 C910.51022176 1250.69900938 910.51987227 1251.83972446 910.52981523 1253.01500666 C910.45529194 1261.11452841 908.98580199 1267.33172898 903.8125 1273.6875 C896.46082776 1279.73220829 888.22161594 1284.15067165 879.81817627 1288.54562378 C876.46105773 1290.30242478 873.11294716 1292.07618291 869.765625 1293.8515625 C869.09604767 1294.20659348 868.42647034 1294.56162445 867.73660278 1294.92741394 C861.97277273 1297.99384654 856.2884596 1301.18953631 850.625 1304.4375 C840.83141303 1310.04476379 830.88864116 1315.33930632 820.90826416 1320.60324097 C812.36480222 1325.11222776 803.88264255 1329.69605434 795.5 1334.5 C785.74863649 1340.08833568 775.84738868 1345.36112055 765.90771484 1350.60351562 C757.3644378 1355.11241178 748.88246375 1359.69615681 740.5 1364.5 C730.74863649 1370.08833568 720.84738868 1375.36112055 710.90771484 1380.60351562 C702.3644378 1385.11241178 693.88246375 1389.69615681 685.5 1394.5 C675.74863649 1400.08833568 665.84738868 1405.36112055 655.90771484 1410.60351562 C647.3644378 1415.11241178 638.88246375 1419.69615681 630.5 1424.5 C620.74863649 1430.08833568 610.84738868 1435.36112055 600.90771484 1440.60351562 C592.3644378 1445.11241178 583.88246375 1449.69615681 575.5 1454.5 C565.74863649 1460.08833568 555.84738868 1465.36112055 545.90771484 1470.60351562 C537.3644378 1475.11241178 528.88246375 1479.69615681 520.5 1484.5 C510.75166682 1490.08659904 500.853882 1495.35865721 490.91677856 1500.59848022 C481.2378559 1505.70534778 471.66564181 1510.95971357 462.16796875 1516.3984375 C454.74528535 1520.62936704 447.19705997 1524.57982263 439.60302734 1528.49267578 C433.00100298 1531.91144174 426.5138869 1535.49319382 420.0625 1539.1875 C410.80652772 1544.4858351 401.43255542 1549.52622457 392 1554.5 C382.75767597 1559.3742904 373.56701486 1564.30385256 364.5 1569.5 C354.74863649 1575.08833568 344.84738868 1580.36112055 334.90771484 1585.60351562 C326.3644378 1590.11241178 317.88246375 1594.69615681 309.5 1599.5 C299.74863649 1605.08833568 289.84738868 1610.36112055 279.90771484 1615.60351562 C271.3644378 1620.11241178 262.88246375 1624.69615681 254.5 1629.5 C244.74863649 1635.08833568 234.84738868 1640.36112055 224.90771484 1645.60351562 C216.3644378 1650.11241178 207.88246375 1654.69615681 199.5 1659.5 C189.74863649 1665.08833568 179.84738868 1670.36112055 169.90771484 1675.60351562 C161.3644378 1680.11241178 152.88246375 1684.69615681 144.5 1689.5 C134.74863649 1695.08833568 124.84738868 1700.36112055 114.90771484 1705.60351562 C106.3644378 1710.11241178 97.88246375 1714.69615681 89.5 1719.5 C79.74863649 1725.08833568 69.84738868 1730.36112055 59.90771484 1735.60351562 C51.3644378 1740.11241178 42.88246375 1744.69615681 34.5 1749.5 C24.75405336 1755.08523136 14.85913311 1760.35706593 4.92382812 1765.5944519 C-3.96459837 1770.28266066 -12.77706148 1775.07036339 -21.5 1780.0625 C-27.99177406 1783.7740381 -34.50335619 1787.39480073 -41.1875 1790.75 C-41.82945312 1791.07363525 -42.47140625 1791.39727051 -43.1328125 1791.73071289 C-49.76302474 1794.99413382 -55.68390167 1796.21017913 -62.91796875 1793.9140625 C-69.33258723 1791.69424542 -75.18621586 1788.37216155 -81.125 1785.125 C-82.37576121 1784.44800693 -83.62674141 1783.7714183 -84.87792969 1783.09521484 C-93.31165212 1778.52437463 -101.66473453 1773.81785872 -109.99267578 1769.05712891 C-118.92549328 1763.97925211 -128.00375788 1759.19006746 -137.09118652 1754.39703369 C-146.55363078 1749.40304288 -155.91522748 1744.27361783 -165.19921875 1738.953125 C-173.37556388 1734.29410746 -181.67722193 1729.88960991 -190 1725.5 C-200.16159881 1720.14055699 -210.23047681 1714.66603645 -220.19921875 1708.953125 C-228.37556388 1704.29410746 -236.67722193 1699.88960991 -245 1695.5 C-255.16159881 1690.14055699 -265.23047681 1684.66603645 -275.19921875 1678.953125 C-283.37556388 1674.29410746 -291.67722193 1669.88960991 -300 1665.5 C-309.24221441 1660.62545985 -318.43281546 1655.69589453 -327.5 1650.5 C-337.95535643 1644.51185479 -348.57772623 1638.86498299 -359.22851562 1633.23535156 C-360.59117587 1632.51503078 -361.95380643 1631.79465383 -363.31640625 1631.07421875 C-363.98048492 1630.72312042 -364.6445636 1630.37202209 -365.32876587 1630.01028442 C-372.8314324 1626.03851757 -380.27915271 1621.96800947 -387.72265625 1617.88671875 C-391.430996 1615.85378752 -395.1479175 1613.83766177 -398.87109375 1611.83203125 C-408.6390831 1606.56894255 -418.3646568 1601.25262234 -428 1595.75 C-437.92191421 1590.08863676 -447.9874412 1584.72622465 -458.09008789 1579.39758301 C-467.55290279 1574.40341198 -476.91486964 1569.2738229 -486.19921875 1563.953125 C-494.37556388 1559.29410746 -502.67722193 1554.88960991 -511 1550.5 C-521.16159881 1545.14055699 -531.23047681 1539.66603645 -541.19921875 1533.953125 C-549.37556388 1529.29410746 -557.67722193 1524.88960991 -566 1520.5 C-576.16159881 1515.14055699 -586.23047681 1509.66603645 -596.19921875 1503.953125 C-604.37556388 1499.29410746 -612.67722193 1494.88960991 -621 1490.5 C-631.16159881 1485.14055699 -641.23047681 1479.66603645 -651.19921875 1473.953125 C-659.37556388 1469.29410746 -667.67722193 1464.88960991 -676 1460.5 C-686.16159881 1455.14055699 -696.23047681 1449.66603645 -706.19921875 1443.953125 C-714.37556388 1439.29410746 -722.67722193 1434.88960991 -731 1430.5 C-741.16159881 1425.14055699 -751.23047681 1419.66603645 -761.19921875 1413.953125 C-769.37556388 1409.29410746 -777.67722193 1404.88960991 -786 1400.5 C-796.16159881 1395.14055699 -806.23047681 1389.66603645 -816.19921875 1383.953125 C-825.06110807 1378.90347297 -834.07363263 1374.15293058 -843.09429932 1369.39547729 C-851.59611041 1364.90873512 -860.03562082 1360.34699054 -868.375 1355.5625 C-877.80423076 1350.15476067 -887.37999579 1345.05692483 -897 1340 C-907.53282706 1334.46323374 -917.97804362 1328.82473191 -928.30078125 1322.90234375 C-937.12146825 1317.86914146 -946.09586552 1313.14104033 -955.07772827 1308.40426636 C-964.88554408 1303.22844642 -974.59961658 1297.92124215 -984.22094727 1292.40380859 C-989.16860843 1289.57258945 -994.14926725 1286.85574701 -999.22412109 1284.25952148 C-1008.87893377 1279.31071115 -1017.09592256 1274.69761332 -1021 1264 C-1021.92466264 1260.89347623 -1022.12579691 1258.1135048 -1022.1276505 1254.8765142 C-1022.13066647 1253.83321419 -1022.13368244 1252.78991418 -1022.1367898 1251.71499902 C-1022.13502033 1250.5678521 -1022.13325086 1249.42070518 -1022.13142776 1248.23879623 C-1022.1334804 1247.01588345 -1022.13553303 1245.79297068 -1022.13764787 1244.53299993 C-1022.14234591 1241.12181538 -1022.1425404 1237.71068328 -1022.14087028 1234.29949936 C-1022.14014043 1230.59466116 -1022.14515917 1226.88983011 -1022.1494453 1223.18499494 C-1022.15703386 1215.82942493 -1022.15921879 1208.47386219 -1022.15977435 1201.11828868 C-1022.16068714 1192.31094315 -1022.16735213 1183.50360436 -1022.17412117 1174.69626172 C-1022.19019183 1153.40809898 -1022.19608551 1132.11993694 -1022.20086992 1110.83176923 C-1022.20320464 1100.76464463 -1022.20680714 1090.6975206 -1022.2105653 1080.63039645 C-1022.22340128 1046.18142805 -1022.2341208 1011.73245997 -1022.2375679 977.28348923 C-1022.23778954 975.12042867 -1022.23801132 972.95736811 -1022.23823325 970.79430754 C-1022.23845389 968.62597288 -1022.23867438 966.45763821 -1022.2388947 964.28930354 C-1022.23933726 959.93912554 -1022.23978437 955.58894753 -1022.24023438 951.23876953 C-1022.24034377 950.16017588 -1022.24045316 949.08158223 -1022.24056586 947.97030393 C-1022.2441976 912.98613659 -1022.2601218 878.00198996 -1022.28342474 843.01783056 C-1022.30800706 806.04550363 -1022.32173998 769.07318855 -1022.32293582 732.1008532 C-1022.32310728 728.04418707 -1022.32332271 723.98752093 -1022.32357025 719.9308548 C-1022.32362602 718.93196239 -1022.32368179 717.93306997 -1022.32373925 716.90390809 C-1022.32489104 700.81214659 -1022.33592388 684.72040629 -1022.35045731 668.62865196 C-1022.36480605 652.46216015 -1022.36806847 636.2956956 -1022.36001733 620.12919918 C-1022.35555351 610.51938596 -1022.35945167 600.9096606 -1022.37525584 591.29985889 C-1022.38498242 584.88415943 -1022.38384986 578.46852174 -1022.37381961 572.0528229 C-1022.36841078 568.39505056 -1022.3677712 564.73744731 -1022.38032833 561.07968876 C-1022.39373652 557.14123426 -1022.38399243 553.20303166 -1022.3719368 549.26456833 C-1022.37953199 548.12678607 -1022.38712718 546.98900382 -1022.39495254 545.81674331 C-1022.33035715 536.09422174 -1020.08857347 528.00866129 -1013 521 C-1009.52096468 518.5878976 -1005.84470438 516.70360219 -1002.0625 514.8125 C-999.88559834 513.68053751 -997.70984265 512.54636881 -995.53515625 511.41015625 C-994.43703613 510.84184082 -993.33891602 510.27352539 -992.20751953 509.68798828 C-987.40327667 507.15970885 -982.70528272 504.45662333 -978 501.75 C-968.08009553 496.085329 -958.01241651 490.7261496 -947.90991211 485.39758301 C-939.3658955 480.88832433 -930.88317895 476.30425306 -922.5 471.5 C-912.74863649 465.91166432 -902.84738868 460.63887945 -892.90771484 455.39648438 C-884.3644378 450.88758822 -875.88246375 446.30384319 -867.5 441.5 C-858.43296753 436.30384246 -849.24215182 431.37464029 -840 426.5 C-830.67610507 421.5818866 -821.40259501 416.60796583 -812.25 411.375 C-804.09139361 406.7128332 -795.87611963 402.1690785 -787.60119629 397.71734619 C-786.33292136 397.03483031 -785.06541365 396.35088668 -783.79870605 395.66546631 C-782.03874951 394.71398214 -780.2753111 393.76894685 -778.51171875 392.82421875 C-777.49553467 392.27854248 -776.47935059 391.73286621 -775.43237305 391.1706543 C-773 390 -773 390 -771 390 C-771.01571045 388.74678955 -771.01571045 388.74678955 -771.03173828 387.46826172 C-771.06631852 384.29607206 -771.09113648 381.12398007 -771.10986328 377.95166016 C-771.12458051 375.93255127 -771.15002367 373.91352948 -771.17578125 371.89453125 C-771.32756356 341.08272253 -760.08009559 317.14067337 -738.8125 295.375 C-701.48790628 258.40300029 -646.50802078 242.62452759 -596 235 C-594.95473145 234.83483887 -593.90946289 234.66967773 -592.83251953 234.49951172 C-575.02547102 231.79588228 -557.22430213 231.71474999 -539.25 231.6875 C-538.09011566 231.68382416 -536.93023132 231.68014832 -535.73519897 231.67636108 C-532.30764007 231.6706967 -528.8806311 231.67987472 -525.453125 231.69921875 C-524.33560349 231.70506989 -523.21808197 231.71092102 -522.06669617 231.71694946 C-515.2835276 231.80558943 -508.65604042 232.30904951 -501.9178772 233.0737915 C-490.12174134 234.37025586 -483.04628996 234.12514685 -472.875 227.4375 C-471.70057613 226.73202982 -470.52239599 226.03278069 -469.34082031 225.33935547 C-466.97179836 223.93818333 -464.62536266 222.50827491 -462.29394531 221.04541016 C-457.52939201 218.08681042 -452.64387384 215.36202193 -447.75 212.625 C-446.39044189 211.84950806 -446.39044189 211.84950806 -445.00341797 211.05834961 C-436.07615964 205.9727835 -426.99524749 201.18954286 -417.90881348 196.39703369 C-409.36516665 191.88795627 -400.88282135 187.30404813 -392.5 182.5 C-382.74863649 176.91166432 -372.84738868 171.63887945 -362.90771484 166.39648438 C-353.45670965 161.40851538 -344.10460263 156.28822735 -334.83374023 150.97070312 C-324.98407079 145.35484034 -314.95087132 140.08641105 -304.91015625 134.82226562 C-302.36036672 133.48416123 -299.81792449 132.13379993 -297.28295898 130.76782227 C-295.31464331 129.70791494 -293.33751862 128.66379633 -291.34399414 127.65209961 C-287.51817897 125.56844644 -286.26503114 124.73437422 -284.73828125 120.50390625 C-284.52751953 118.55291016 -284.52751953 118.55291016 -284.3125 116.5625 C-284.11161242 115.12505239 -283.90179717 113.68882741 -283.68359375 112.25390625 C-283.52479736 111.17906982 -283.52479736 111.17906982 -283.36279297 110.08251953 C-280.25122488 92.22136487 -269.0750729 76.90783655 -257 64 C-256.23816406 63.16855469 -255.47632813 62.33710937 -254.69140625 61.48046875 C-216.25586446 21.21130478 -155.04386552 6.26260558 -102 -1 C-101.02434082 -1.13422363 -100.04868164 -1.26844727 -99.04345703 -1.40673828 C-66.7723739 -5.56264122 -32.16828265 -4.52484773 0 0 Z M-223 101 C-231.11867315 110.55666692 -235.93427467 120.93894871 -235.41796875 133.609375 C-233.62260512 148.17363322 -223.85092233 160.77895056 -212.6484375 169.76171875 C-156.15983462 213.20807779 -74.94543251 219.67574669 -6.55859375 210.94140625 C23.87285688 206.749111 53.87558761 198.60545282 81 184 C81.61746094 183.67386719 82.23492188 183.34773437 82.87109375 183.01171875 C101.11850858 173.3286297 117.62379728 159.79928099 125 140 C127.85876316 130.12427272 125.42545383 120.4434525 120.875 111.5 C112.5874497 97.46542822 98.95881942 86.88488996 85 79 C83.92878906 78.36578125 82.85757812 77.7315625 81.75390625 77.078125 C2.60364863 32.15743395 -133.39485295 32.13062165 -223 101 Z M-293.94921875 186.04296875 C-294.8493293 186.52228851 -294.8493293 186.52228851 -295.7676239 187.0112915 C-297.74337009 188.06550843 -299.71553067 189.12623713 -301.6875 190.1875 C-303.06524153 190.92525903 -304.44300869 191.66297018 -305.82080078 192.40063477 C-314.65087561 197.13998761 -323.39474681 202.0146096 -332.0925293 206.99291992 C-340.98574636 212.05430797 -350.02668761 216.82237627 -359.07662964 221.59518433 C-368.87934765 226.76829798 -378.58606731 232.07634923 -388.20556641 237.58520508 C-394.73462826 241.31720491 -401.33487494 244.88237958 -408.04077148 248.28710938 C-411.65009282 249.96299361 -411.65009282 249.96299361 -414 253 C-412.82308594 253.43828125 -411.64617188 253.8765625 -410.43359375 254.328125 C-384.51132479 264.20581212 -361.66412266 277.50323503 -341 296 C-340.3503125 296.56589844 -339.700625 297.13179687 -339.03125 297.71484375 C-324.78865114 310.91612053 -315.33209686 329.27653052 -311 348 C-310.73566272 349.11971081 -310.73566272 349.11971081 -310.4659853 350.26204205 C-309.91827155 353.48020627 -309.86447008 356.53017315 -309.85282898 359.79560852 C-309.84915229 360.46646128 -309.8454756 361.13731405 -309.8416875 361.82849568 C-309.83070149 364.06967231 -309.8268154 366.31080249 -309.82299805 368.55200195 C-309.8167292 370.16222784 -309.81008202 371.77245229 -309.80308533 373.38267517 C-309.78208 378.66786703 -309.77168128 383.95305903 -309.76171875 389.23828125 C-309.75766887 391.06338198 -309.75355188 392.88848256 -309.74936867 394.71358299 C-309.73031905 403.29608294 -309.71609159 411.87857433 -309.7077567 420.46109134 C-309.69800661 430.33574123 -309.67174457 440.21016563 -309.63125581 450.08473617 C-309.60097165 457.73598099 -309.58627594 465.38716167 -309.58297569 473.0384652 C-309.5806378 477.59861946 -309.57184434 482.1585328 -309.54651451 486.71862221 C-309.52301469 491.01889889 -309.51908723 495.31877982 -309.52927589 499.61910439 C-309.52976621 501.18464484 -309.52359747 502.75020625 -309.50971985 504.31568527 C-309.39503248 518.03782056 -311.44222246 531.19829304 -317.625 543.625 C-317.96418457 544.32318848 -318.30336914 545.02137695 -318.65283203 545.74072266 C-326.70892164 561.75470123 -338.76518493 575.22060178 -353 586 C-353.52045898 586.39541992 -354.04091797 586.79083984 -354.57714844 587.19824219 C-419.41063892 636.06556526 -511.73748517 646.97084906 -590.44384766 636.50048828 C-647.98118844 628.40275736 -711.68489136 610.35340434 -749.6875 563.09375 C-764.99540309 542.61425802 -770.01328561 521.98389233 -770.31640625 496.90234375 C-770.3370187 495.45788538 -770.35801616 494.01343245 -770.37937927 492.56898499 C-770.43415745 488.79619808 -770.48375883 485.02336082 -770.53222656 481.25048828 C-770.58276809 477.38895266 -770.63828242 473.52748875 -770.69335938 469.66601562 C-770.80039829 462.11073808 -770.90196002 454.55540026 -771 447 C-780.93426628 451.92020149 -790.79756085 456.93739588 -800.5625 462.1875 C-801.15905396 462.50736877 -801.75560791 462.82723755 -802.37023926 463.15679932 C-811.31947891 467.95746893 -820.17804711 472.90338349 -828.99438477 477.9440918 C-837.92693755 483.0210325 -847.00436432 487.8102524 -856.09118652 492.60296631 C-864.63483663 497.11204546 -873.1171324 501.69602747 -881.5 506.5 C-891.35405302 512.14610122 -901.35620381 517.484888 -911.39697266 522.7885437 C-922.00733983 528.39315769 -932.5531306 534.09461688 -943 540 C-943 540.66 -943 541.32 -943 542 C-942.39341553 542.32572998 -941.78683105 542.65145996 -941.16186523 542.98706055 C-930.04377607 548.96474086 -918.95974116 554.98602187 -908 561.25 C-898.07830091 566.91172108 -888.01254448 572.2737829 -877.90991211 577.60241699 C-868.44709721 582.59658802 -859.08513036 587.7261771 -849.80078125 593.046875 C-841.62443612 597.70589254 -833.32277807 602.11039009 -825 606.5 C-814.83840119 611.85944301 -804.76952319 617.33396355 -794.80078125 623.046875 C-786.62443612 627.70589254 -778.32277807 632.11039009 -770 636.5 C-760.75778559 641.37454015 -751.56718454 646.30410547 -742.5 651.5 C-732.04464357 657.48814521 -721.42227377 663.13501701 -710.77148438 668.76464844 C-709.40882413 669.48496922 -708.04619357 670.20534617 -706.68359375 670.92578125 C-706.01951508 671.27687958 -705.3554364 671.62797791 -704.67123413 671.98971558 C-697.1685676 675.96148243 -689.72084729 680.03199053 -682.27734375 684.11328125 C-678.569004 686.14621248 -674.8520825 688.16233823 -671.12890625 690.16796875 C-661.3609169 695.43105745 -651.6353432 700.74737766 -642 706.25 C-632.07808579 711.91136324 -622.0125588 717.27377535 -611.90991211 722.60241699 C-602.44709721 727.59658802 -593.08513036 732.7261771 -583.80078125 738.046875 C-575.62443612 742.70589254 -567.32277807 747.11039009 -559 751.5 C-548.83840119 756.85944301 -538.76952319 762.33396355 -528.80078125 768.046875 C-520.62443612 772.70589254 -512.32277807 777.11039009 -504 781.5 C-493.83840119 786.85944301 -483.76952319 792.33396355 -473.80078125 798.046875 C-465.62443612 802.70589254 -457.32277807 807.11039009 -449 811.5 C-438.83840119 816.85944301 -428.76952319 822.33396355 -418.80078125 828.046875 C-410.62443612 832.70589254 -402.32277807 837.11039009 -394 841.5 C-383.83840119 846.85944301 -373.76952319 852.33396355 -363.80078125 858.046875 C-355.62443612 862.70589254 -347.32277807 867.11039009 -339 871.5 C-328.83840119 876.85944301 -318.76952319 882.33396355 -308.80078125 888.046875 C-300.62443612 892.70589254 -292.32277807 897.11039009 -284 901.5 C-274.75778559 906.37454015 -265.56718454 911.30410547 -256.5 916.5 C-246.04464357 922.48814521 -235.42227377 928.13501701 -224.77148438 933.76464844 C-223.40882413 934.48496922 -222.04619357 935.20534617 -220.68359375 935.92578125 C-220.01951508 936.27687958 -219.3554364 936.62797791 -218.67123413 936.98971558 C-211.1685676 940.96148243 -203.72084729 945.03199053 -196.27734375 949.11328125 C-192.569004 951.14621248 -188.8520825 953.16233823 -185.12890625 955.16796875 C-175.3609169 960.43105745 -165.6353432 965.74737766 -156 971.25 C-146.07808579 976.91136324 -136.0125588 982.27377535 -125.90991211 987.60241699 C-117.36581287 992.11171928 -108.88443391 996.69782649 -100.5 1001.5 C-91.73721707 1006.49512411 -82.92677782 1011.39906779 -74.05297852 1016.1940918 C-72.61093135 1016.97597523 -71.17158461 1017.76286156 -69.73510742 1018.55493164 C-67.72381286 1019.66249548 -65.70338776 1020.7512474 -63.6796875 1021.8359375 C-62.77807388 1022.33950272 -62.77807388 1022.33950272 -61.85824585 1022.85324097 C-59.22688647 1024.24087536 -57.38935232 1025.02193021 -54.390625 1024.85302734 C-51.79865814 1023.92815682 -49.48449353 1022.83924447 -47.0703125 1021.515625 C-46.12285156 1020.99967773 -45.17539063 1020.48373047 -44.19921875 1019.95214844 C-43.18472656 1019.39043945 -42.17023437 1018.82873047 -41.125 1018.25 C-40.05636719 1017.66508789 -38.98773437 1017.08017578 -37.88671875 1016.47753906 C-29.94896538 1012.11831938 -22.07721147 1007.64643757 -14.21142578 1003.15917969 C-5.20732624 998.05427838 3.93602657 993.22589324 13.09008789 988.39758301 C21.6341045 983.88832433 30.11682105 979.30425306 38.5 974.5 C48.25136351 968.91166432 58.15261132 963.63887945 68.09228516 958.39648438 C76.6355622 953.88758822 85.11753625 949.30384319 93.5 944.5 C103.25136351 938.91166432 113.15261132 933.63887945 123.09228516 928.39648438 C131.6355622 923.88758822 140.11753625 919.30384319 148.5 914.5 C158.25136351 908.91166432 168.15261132 903.63887945 178.09228516 898.39648438 C186.63557178 893.88758316 195.11739105 889.30360269 203.5 884.5 C213.95535643 878.51185479 224.57772623 872.86498299 235.22851562 867.23535156 C236.59117587 866.51503078 237.95380643 865.79465383 239.31640625 865.07421875 C240.31252426 864.54757126 240.31252426 864.54757126 241.32876587 864.01028442 C248.8314324 860.03851757 256.27915271 855.96800947 263.72265625 851.88671875 C267.430996 849.85378752 271.1479175 847.83766177 274.87109375 845.83203125 C284.6390831 840.56894255 294.3646568 835.25262234 304 829.75 C313.92191421 824.08863676 323.9874412 818.72622465 334.09008789 813.39758301 C342.6341045 808.88832433 351.11682105 804.30425306 359.5 799.5 C369.25136351 793.91166432 379.15261132 788.63887945 389.09228516 783.39648438 C397.6355622 778.88758822 406.11753625 774.30384319 414.5 769.5 C424.25136351 763.91166432 434.15261132 758.63887945 444.09228516 753.39648438 C452.6355622 748.88758822 461.11753625 744.30384319 469.5 739.5 C479.25136351 733.91166432 489.15261132 728.63887945 499.09228516 723.39648438 C507.6355622 718.88758822 516.11753625 714.30384319 524.5 709.5 C534.25136351 703.91166432 544.15261132 698.63887945 554.09228516 693.39648438 C562.6355622 688.88758822 571.11753625 684.30384319 579.5 679.5 C589.25136351 673.91166432 599.15261132 668.63887945 609.09228516 663.39648438 C617.6355622 658.88758822 626.11753625 654.30384319 634.5 649.5 C644.25136351 643.91166432 654.15261132 638.63887945 664.09228516 633.39648438 C672.6355622 628.88758822 681.11753625 624.30384319 689.5 619.5 C699.25200805 613.91129496 709.15385697 608.63801554 719.09429932 603.39547729 C727.59611041 598.90873512 736.03562082 594.34699054 744.375 589.5625 C754.53017014 583.73842862 764.86125898 578.27765924 775.22213745 572.83206177 C785.30093037 567.53141277 795.28073094 562.09772926 805.16430664 556.4387207 C813.9904978 551.39622908 822.97094994 546.66729192 832 542 C828.94710686 538.627012 825.88112264 536.66005587 821.85546875 534.56640625 C821.25781708 534.25229294 820.66016541 533.93817963 820.04440308 533.61454773 C818.7621823 532.94124493 817.47829257 532.27111257 816.19290161 531.60388184 C812.77913546 529.8311526 809.37805994 528.03440952 805.9765625 526.23828125 C805.29338455 525.87809906 804.6102066 525.51791687 803.90632629 525.14682007 C797.89062106 521.96514779 791.96578576 518.63553257 786.0625 515.25 C777.68018075 510.45370753 769.18777744 505.9306628 760.60351562 501.50756836 C754.00132077 498.08873402 747.5140454 494.50689694 741.0625 490.8125 C731.80652577 485.51416378 722.43254817 480.4737949 713 475.5 C700.65686423 468.99025654 688.46950259 462.24991125 676.34863281 455.33349609 C672.97851345 453.420025 669.59185397 451.53930559 666.1875 449.6875 C665.21167969 449.15511719 664.23585938 448.62273437 663.23046875 448.07421875 C661.11229283 446.85536317 661.11229283 446.85536317 659 447 C658.99453156 448.2588224 658.99453156 448.2588224 658.98895264 449.54307556 C658.95077358 457.52887377 658.89358948 465.51427592 658.81609726 473.49979305 C658.7769187 477.60331037 658.74458763 481.7066226 658.72900391 485.81030273 C658.7136387 489.78525723 658.67885375 493.75964668 658.63169098 497.73434639 C658.61707844 499.2358052 658.60897085 500.73734477 658.60811615 502.23887444 C658.57480748 531.46803406 647.03985068 554.22248611 627 575 C626.40703125 575.64453125 625.8140625 576.2890625 625.203125 576.953125 C603.48755008 599.95873407 570.60826458 613.79822541 541 623 C540.00774414 623.30921387 539.01548828 623.61842773 537.99316406 623.93701172 C502.5839188 634.78896401 466.00205911 639.22778785 429.0625 639.25 C428.04866241 639.25067474 427.03482483 639.25134949 425.99026489 639.25204468 C357.16753502 639.17967303 278.20244574 623.70448479 227.25 573.6875 C210.33180858 556.55586189 197.94392401 533.86018931 197.85282898 509.32537842 C197.84915229 508.67958368 197.8454756 508.03378893 197.8416875 507.36842465 C197.83073004 505.21793889 197.82682031 503.06750158 197.82299805 500.91699219 C197.81672698 499.36897634 197.81007962 497.82096197 197.80308533 496.27294922 C197.78210442 491.19760168 197.77168281 486.12225407 197.76171875 481.046875 C197.7576678 479.29208613 197.75355078 477.53729741 197.74936867 475.78250885 C197.73032354 467.52891288 197.71609576 459.27532577 197.7077567 451.02171206 C197.69801164 441.53592144 197.67176103 432.05036587 197.63125581 422.56465793 C197.60093555 415.20805135 197.58627253 407.85151149 197.58297569 400.49484372 C197.58064167 396.11348851 197.57190026 391.73238452 197.54651451 387.35109711 C197.36139348 353.62345793 201.11717782 326.23316983 225.34765625 300.92578125 C227.21705721 299.16993875 227.21705721 299.16993875 227 297 C227.83724609 296.64615234 227.83724609 296.64615234 228.69140625 296.28515625 C231.5491611 294.69429103 233.57884808 292.70393395 235.9375 290.4375 C241.83937416 284.93997294 248.19707312 280.33615361 255 276 C255.62084473 275.60312988 256.24168945 275.20625977 256.88134766 274.79736328 C271.05139826 265.85551157 286.25564475 258.71352915 302 253 C298.94710686 249.627012 295.88112264 247.66005587 291.85546875 245.56640625 C291.25781708 245.25229294 290.66016541 244.93817963 290.04440308 244.61454773 C288.7621823 243.94124493 287.47829257 243.27111257 286.19290161 242.60388184 C282.77913546 240.8311526 279.37805994 239.03440952 275.9765625 237.23828125 C275.29338455 236.87809906 274.6102066 236.51791687 273.90632629 236.14682007 C267.89062106 232.96514779 261.96578576 229.63553257 256.0625 226.25 C248.62461412 221.99410435 241.1175397 217.92524009 233.5 214 C224.74988005 209.49042569 216.15426476 204.75919603 207.60302734 199.8840332 C200.64549304 195.91968939 193.65226567 192.02692103 186.625 188.1875 C185.67294678 187.66542969 184.72089355 187.14335938 183.73999023 186.60546875 C182.86930908 186.13109375 181.99862793 185.65671875 181.1015625 185.16796875 C180.33150879 184.74797607 179.56145508 184.3279834 178.76806641 183.89526367 C177.18160954 182.92470979 177.18160954 182.92470979 176 183 C175.99786247 184.83471611 175.99786247 184.83471611 175.99568176 186.70649719 C175.97891172 198.31179571 175.93583537 209.91674807 175.86790943 221.52186298 C175.83382034 227.48622339 175.80855777 233.45033255 175.80444336 239.41479492 C175.80012138 245.18576058 175.77133933 250.95616121 175.72656822 256.72694969 C175.71371672 258.91337971 175.70924093 261.09987778 175.71384621 263.28634071 C175.74209465 280.79284419 174.03184951 297.5729842 165.1875 313.0625 C164.75445557 313.85068115 164.32141113 314.6388623 163.87524414 315.45092773 C160.48110185 321.48502779 156.65499915 326.86662149 152 332 C150.99066406 333.20269531 150.99066406 333.20269531 149.9609375 334.4296875 C109.47228532 381.69098695 37.15865465 398.67234901 -21.92871094 403.59423828 C-32.60499845 404.3812431 -43.30047687 404.34751938 -54 404.3125 C-55.16087128 404.31067719 -56.32174255 404.30885437 -57.51779175 404.30697632 C-75.52471804 404.25948423 -93.16857303 403.69313658 -111 401 C-112.13937012 400.83371094 -113.27874023 400.66742187 -114.45263672 400.49609375 C-168.79563775 392.33671086 -231.06196714 372.49798393 -265.98046875 327.04101562 C-278.45795585 310.05243703 -285.06633872 290.46214356 -285.20532227 269.39282227 C-285.21522186 268.45545731 -285.22512146 267.51809235 -285.23532104 266.55232239 C-285.26674736 263.47370881 -285.29161842 260.39507983 -285.31640625 257.31640625 C-285.33699209 255.17406325 -285.35798898 253.03172416 -285.37937927 250.88938904 C-285.4344316 245.26542338 -285.48391481 239.64142209 -285.53222656 234.01739502 C-285.58256491 228.27263234 -285.63818646 222.52792105 -285.69335938 216.78320312 C-285.80073484 205.52217938 -285.90222516 194.26111091 -286 183 C-289.10559364 183 -291.22544243 184.58801374 -293.94921875 186.04296875 Z M120.69995117 217.99609375 C80.26776558 246.19559507 29.28533546 257.29796582 -19 262 C-19.94544678 262.09571289 -20.89089355 262.19142578 -21.86499023 262.29003906 C-32.33178682 263.23136753 -42.81152722 263.24354574 -53.3125 263.25 C-54.79907104 263.25101212 -54.79907104 263.25101212 -56.31567383 263.25204468 C-114.43895153 263.18956788 -183.60527746 253.34081283 -231.40625 217.1796875 C-232.93744686 215.80168505 -232.93744686 215.80168505 -235 216 C-235.09318788 224.02414245 -235.16400959 232.04805414 -235.20724869 240.07260609 C-235.22801431 243.79982092 -235.25612611 247.52666219 -235.30175781 251.25366211 C-235.3456147 254.85877272 -235.36921972 258.46352685 -235.37950897 262.0688839 C-235.38682972 263.435855 -235.4011229 264.80280933 -235.42292023 266.16962624 C-235.68544751 283.33354707 -229.84631537 293.79745971 -218.3125 306.125 C-184.26705241 338.49827433 -131.32345484 350.45717155 -86 354 C-84.36309204 354.12918823 -84.36309204 354.12918823 -82.69311523 354.26098633 C-19.46416946 358.88648995 54.60616017 350.89367408 105 309 C105.92232422 308.29810547 105.92232422 308.29810547 106.86328125 307.58203125 C116.84919519 299.75399296 123.87763127 288.49789956 126 276 C126.08468938 273.94565119 126.1177823 271.88885297 126.11352539 269.83276367 C126.11341209 268.00143135 126.11341209 268.00143135 126.11329651 266.13310242 C126.10813522 264.82460831 126.10297394 263.5161142 126.09765625 262.16796875 C126.09578961 260.80748039 126.09436687 259.44699135 126.09336853 258.08650208 C126.08956275 254.51744713 126.07974914 250.94843331 126.06866455 247.37939453 C126.05840863 243.73275305 126.05386197 240.08610489 126.04882812 236.43945312 C126.03812503 229.29295199 126.02107204 222.14647869 126 215 C123.92211015 215 122.34325851 216.8369477 120.69995117 217.99609375 Z M-676 312 C-677.05445313 312.56332031 -678.10890625 313.12664062 -679.1953125 313.70703125 C-696.56127351 323.38753432 -712.96020277 336.60970762 -719.3359375 356.125 C-721.94455433 367.41877639 -719.54819897 377.65200062 -713.49609375 387.4296875 C-706.29617126 397.17994398 -697.25381542 405.59136536 -687 412 C-686.15501953 412.54624023 -686.15501953 412.54624023 -685.29296875 413.10351562 C-657.26140251 431.13223875 -624.65250604 439.9742899 -592 445 C-591.0085498 445.16371094 -590.01709961 445.32742188 -588.99560547 445.49609375 C-556.14626338 450.78257141 -519.80413815 450.35844488 -487 445 C-485.92572754 444.82839355 -484.85145508 444.65678711 -483.74462891 444.47998047 C-444.12532765 437.95739725 -403.48047459 425.46913756 -374 397 C-373.36191406 396.38769531 -372.72382812 395.77539062 -372.06640625 395.14453125 C-363.72635918 386.43298988 -358.54719333 374.88013867 -358.7265625 362.80859375 C-359.66753591 353.14345257 -364.02384321 345.43945445 -370 338 C-370.58523438 337.25105469 -371.17046875 336.50210938 -371.7734375 335.73046875 C-381.3019069 324.25208051 -393.92635914 316.77846297 -407 310 C-407.63824707 309.66258789 -408.27649414 309.32517578 -408.93408203 308.97753906 C-448.49816852 288.28185718 -495.26178226 281.73849005 -539.4375 281.8125 C-540.17222534 281.81343658 -540.90695068 281.81437317 -541.66394043 281.81533813 C-587.86989982 281.94173022 -635.02080158 289.81154327 -676 312 Z M259.44921875 336.12890625 C249.81871992 347.41824698 246.86460218 358.53787024 248 373 C252.17877719 390.92600444 268.11577145 404.09288064 282.9140625 413.5390625 C315.45263055 433.65572048 353.25252456 442.99447545 391 447 C391.80695313 447.0942627 392.61390625 447.18852539 393.4453125 447.28564453 C404.58460862 448.42027765 415.81562599 448.24394429 427 448.25 C428.11737549 448.25067474 429.23475098 448.25134949 430.38598633 448.25204468 C447.43831883 448.2356917 464.13651488 447.76292879 481 445 C482.09554199 444.82307617 483.19108398 444.64615234 484.31982422 444.46386719 C499.16658627 441.99118626 513.67924056 438.63509132 528 434 C528.89138672 433.71286133 529.78277344 433.42572266 530.70117188 433.12988281 C550.25874 426.71017007 568.91490498 417.99257987 585 405 C585.52916016 404.57783203 586.05832031 404.15566406 586.60351562 403.72070312 C597.31678756 395.02189258 607.1306104 383.44347357 608.75 369.25 C609.62806085 358.14998548 605.69855284 348.16113738 598.9921875 339.3671875 C596.75096969 336.80464814 594.42052035 334.39354003 592 332 C591.21109375 331.18917969 590.4221875 330.37835937 589.609375 329.54296875 C547.2644316 288.3021113 475.25502311 281.10394042 419.25390625 281.8125 C364.31475787 282.7135072 299.28510286 295.12993063 259.44921875 336.12890625 Z M247 450 C246.95336524 457.24187003 246.91797434 464.48370693 246.89637566 471.72569752 C246.8860019 475.08956575 246.87196215 478.45333016 246.84912109 481.81713867 C246.82468699 485.69713005 246.81347436 489.5769766 246.8046875 493.45703125 C246.79436493 494.64706253 246.78404236 495.83709381 246.77340698 497.06318665 C246.77113936 514.18121123 250.93274154 526.85379604 263.08984375 539.1875 C305.14368452 580.3626038 374.21768941 590.64846731 430.72680664 590.23413086 C486.92621909 589.06522225 554.9609048 579.05032699 596 536.3515625 C604.4117538 526.4611801 609.14155176 515.96311953 609.11352539 502.90283203 C609.11341209 501.13167526 609.11341209 501.13167526 609.11329651 499.32473755 C609.10813522 498.06515228 609.10297394 496.80556702 609.09765625 495.5078125 C609.0962413 494.20673553 609.09482635 492.90565857 609.09336853 491.56515503 C609.08956844 488.12270147 609.07975983 484.68029075 609.06866455 481.237854 C609.05839625 477.71847106 609.05385934 474.19908113 609.04882812 470.6796875 C609.03813509 463.78644084 609.02108911 456.89322248 609 450 C607.58060604 450.78321991 606.16187155 451.56763501 604.7434082 452.35253906 C603.95327835 452.78922913 603.1631485 453.22591919 602.34907532 453.67584229 C600.24065015 454.86434716 598.16757729 456.09268799 596.10546875 457.359375 C555.872365 482.01096066 508.55590212 492.78596054 462 497 C461.2687793 497.07057617 460.53755859 497.14115234 459.78417969 497.21386719 C391.36744094 503.59312896 315.05534804 491.59410776 256.14208984 455.28930664 C253.12450879 453.47304888 250.06167018 451.74089113 247 450 Z M-971 584 C-971 801.14 -971 1018.28 -971 1242 C-952.06482451 1252.72154648 -952.06482451 1252.72154648 -932.9375 1263.0625 C-930.37016665 1264.42273438 -927.80417171 1265.78548365 -925.23828125 1267.1484375 C-924.61588562 1267.47875473 -923.99348999 1267.80907196 -923.35223389 1268.1493988 C-916.8677351 1271.59421492 -910.42173674 1275.10781694 -903.98193359 1278.63525391 C-899.36922953 1281.16176744 -894.7513133 1283.67757247 -890.12109375 1286.171875 C-880.35585283 1291.4339123 -870.63281046 1296.74882407 -861 1302.25 C-851.07808579 1307.91136324 -841.0125588 1313.27377535 -830.90991211 1318.60241699 C-821.44709721 1323.59658802 -812.08513036 1328.7261771 -802.80078125 1334.046875 C-794.62443612 1338.70589254 -786.32277807 1343.11039009 -778 1347.5 C-767.83840119 1352.85944301 -757.76952319 1358.33396355 -747.80078125 1364.046875 C-739.62443612 1368.70589254 -731.32277807 1373.11039009 -723 1377.5 C-712.83840119 1382.85944301 -702.76952319 1388.33396355 -692.80078125 1394.046875 C-684.62443612 1398.70589254 -676.32277807 1403.11039009 -668 1407.5 C-657.83840119 1412.85944301 -647.76952319 1418.33396355 -637.80078125 1424.046875 C-629.62443612 1428.70589254 -621.32277807 1433.11039009 -613 1437.5 C-602.83840119 1442.85944301 -592.76952319 1448.33396355 -582.80078125 1454.046875 C-574.62443612 1458.70589254 -566.32277807 1463.11039009 -558 1467.5 C-548.75778559 1472.37454015 -539.56718454 1477.30410547 -530.5 1482.5 C-520.04464357 1488.48814521 -509.42227377 1494.13501701 -498.77148438 1499.76464844 C-497.40882413 1500.48496922 -496.04619357 1501.20534617 -494.68359375 1501.92578125 C-493.68747574 1502.45242874 -493.68747574 1502.45242874 -492.67123413 1502.98971558 C-485.1685676 1506.96148243 -477.72084729 1511.03199053 -470.27734375 1515.11328125 C-466.569004 1517.14621248 -462.8520825 1519.16233823 -459.12890625 1521.16796875 C-449.3609169 1526.43105745 -439.6353432 1531.74737766 -430 1537.25 C-420.07808579 1542.91136324 -410.0125588 1548.27377535 -399.90991211 1553.60241699 C-390.44709721 1558.59658802 -381.08513036 1563.7261771 -371.80078125 1569.046875 C-363.62443612 1573.70589254 -355.32277807 1578.11039009 -347 1582.5 C-336.83840119 1587.85944301 -326.76952319 1593.33396355 -316.80078125 1599.046875 C-308.62443612 1603.70589254 -300.32277807 1608.11039009 -292 1612.5 C-281.83840119 1617.85944301 -271.76952319 1623.33396355 -261.80078125 1629.046875 C-253.62443612 1633.70589254 -245.32277807 1638.11039009 -237 1642.5 C-226.83840119 1647.85944301 -216.76952319 1653.33396355 -206.80078125 1659.046875 C-198.62443612 1663.70589254 -190.32277807 1668.11039009 -182 1672.5 C-171.83840119 1677.85944301 -161.76952319 1683.33396355 -151.80078125 1689.046875 C-142.94798385 1694.0913463 -133.94571685 1698.83943751 -124.93289185 1703.5894165 C-114.9053604 1708.87697733 -104.9798278 1714.30047489 -95.16601562 1719.97851562 C-94.31587891 1720.46771484 -93.46574219 1720.95691406 -92.58984375 1721.4609375 C-91.86659912 1721.88165527 -91.14335449 1722.30237305 -90.39819336 1722.73583984 C-87.35500101 1724.33999845 -84.16195836 1725.64487499 -81 1727 C-81 1509.86 -81 1292.72 -81 1069 C-89.44496779 1064.17430412 -97.87007262 1059.40198323 -106.4375 1054.8125 C-114.34894719 1050.55420695 -122.19965243 1046.20823444 -130 1041.75 C-139.9216938 1036.08827236 -149.98745641 1030.72621663 -160.09008789 1025.39758301 C-169.55290279 1020.40341198 -178.91486964 1015.2738229 -188.19921875 1009.953125 C-197.05743233 1004.90556748 -206.0659297 1000.15632715 -215.08322144 995.40151978 C-224.7621441 990.29465222 -234.33435819 985.04028643 -243.83203125 979.6015625 C-250.31026569 975.90896887 -256.87177465 972.41521741 -263.5 969 C-271.07665743 965.09609948 -278.54112825 961.04793996 -285.9375 956.8125 C-295.19347228 951.5141649 -304.56744458 946.47377543 -314 941.5 C-324.16173378 936.14082397 -334.23048818 930.66602993 -344.19921875 924.953125 C-352.37556388 920.29410746 -360.67722193 915.88960991 -369 911.5 C-379.16159881 906.14055699 -389.23047681 900.66603645 -399.19921875 894.953125 C-407.37556388 890.29410746 -415.67722193 885.88960991 -424 881.5 C-434.16159881 876.14055699 -444.23047681 870.66603645 -454.19921875 864.953125 C-462.37556388 860.29410746 -470.67722193 855.88960991 -479 851.5 C-489.16159881 846.14055699 -499.23047681 840.66603645 -509.19921875 834.953125 C-517.37556388 830.29410746 -525.67722193 825.88960991 -534 821.5 C-543.24221441 816.62545985 -552.43281546 811.69589453 -561.5 806.5 C-570.5920214 801.29268404 -579.80092684 796.3341681 -589.0625 791.4375 C-590.09910263 790.88934128 -590.09910263 790.88934128 -591.15664673 790.33010864 C-592.18766006 789.78494095 -592.18766006 789.78494095 -593.23950195 789.22875977 C-594.60500058 788.5067112 -595.97047934 787.78462507 -597.3359375 787.0625 C-598.00104843 786.71078232 -598.66615936 786.35906464 -599.35142517 785.99668884 C-610.93387552 779.86544915 -622.40982505 773.53929346 -633.87890625 767.19921875 C-635.71462286 766.18450824 -637.55034789 765.16981298 -639.3861084 764.15518188 C-640.62695239 763.46936142 -641.86775654 762.78346888 -643.10852051 762.09750366 C-652.92870342 756.67026324 -662.78795769 751.3195642 -672.67382812 746.01269531 C-682.24472851 740.87472577 -691.78326101 735.67894751 -701.31445312 730.46777344 C-705.87462116 727.97543433 -710.43744634 725.48796834 -715 723 C-720.4772154 720.01291327 -725.95414606 717.02531058 -731.4296875 714.03515625 C-733.24477244 713.04423561 -735.05987666 712.0533503 -736.875 711.0625 C-738.22960327 710.32277954 -738.22960327 710.32277954 -739.61157227 709.56811523 C-744.371458 706.97108654 -749.13657354 704.38427453 -753.91015625 701.8125 C-763.66440043 696.55466257 -773.37732026 691.2453904 -783 685.75 C-792.92191421 680.08863676 -802.9874412 674.72622465 -813.09008789 669.39758301 C-822.55290279 664.40341198 -831.91486964 659.2738229 -841.19921875 653.953125 C-849.37556388 649.29410746 -857.67722193 644.88960991 -866 640.5 C-876.16159881 635.14055699 -886.23047681 629.66603645 -896.19921875 623.953125 C-905.05330736 618.90791795 -914.0567966 614.15887289 -923.07113647 609.40856934 C-932.98060253 604.18389066 -942.79669767 598.83014839 -952.48242188 593.19726562 C-958.5681779 589.68823463 -964.52825337 586.94170301 -971 584 Z M852.890625 586.640625 C851.8372998 587.21047119 850.78397461 587.78031738 849.69873047 588.36743164 C847.99160889 589.29930298 847.99160889 589.29930298 846.25 590.25 C845.06545527 590.89284392 843.88072004 591.53533692 842.69580078 592.17749023 C839.12758656 594.11294204 835.56360653 596.05607731 832 598 C830.07553225 599.04819804 828.15105397 600.09637676 826.2265625 601.14453125 C823.54688531 602.60491776 820.86783564 604.06641737 818.19018555 605.53051758 C813.50239485 608.09361702 808.80908405 610.6457274 804.10546875 613.1796875 C794.34572559 618.43962372 784.62774506 623.75171686 775 629.25 C765.07808579 634.91136324 755.0125588 640.27377535 744.90991211 645.60241699 C736.3658955 650.11167567 727.88317895 654.69574694 719.5 659.5 C709.74863649 665.08833568 699.84738868 670.36112055 689.90771484 675.60351562 C681.3644378 680.11241178 672.88246375 684.69615681 664.5 689.5 C654.74863649 695.08833568 644.84738868 700.36112055 634.90771484 705.60351562 C626.3644378 710.11241178 617.88246375 714.69615681 609.5 719.5 C599.74863649 725.08833568 589.84738868 730.36112055 579.90771484 735.60351562 C571.3644378 740.11241178 562.88246375 744.69615681 554.5 749.5 C544.74863649 755.08833568 534.84738868 760.36112055 524.90771484 765.60351562 C516.3644378 770.11241178 507.88246375 774.69615681 499.5 779.5 C489.74863649 785.08833568 479.84738868 790.36112055 469.90771484 795.60351562 C461.3644378 800.11241178 452.88246375 804.69615681 444.5 809.5 C434.74863649 815.08833568 424.84738868 820.36112055 414.90771484 825.60351562 C406.36442822 830.11241684 397.88260895 834.69639731 389.5 839.5 C379.04464357 845.48814521 368.42227377 851.13501701 357.77148438 856.76464844 C356.40882413 857.48496922 355.04619357 858.20534617 353.68359375 858.92578125 C353.01951508 859.27687958 352.3554364 859.62797791 351.67123413 859.98971558 C344.1685676 863.96148243 336.72084729 868.03199053 329.27734375 872.11328125 C325.569004 874.14621248 321.8520825 876.16233823 318.12890625 878.16796875 C308.3609169 883.43105745 298.6353432 888.74737766 289 894.25 C279.07808579 899.91136324 269.0125588 905.27377535 258.90991211 910.60241699 C250.3658955 915.11167567 241.88317895 919.69574694 233.5 924.5 C223.74863649 930.08833568 213.84738868 935.36112055 203.90771484 940.60351562 C195.3644378 945.11241178 186.88246375 949.69615681 178.5 954.5 C168.74863649 960.08833568 158.84738868 965.36112055 148.90771484 970.60351562 C140.3644378 975.11241178 131.88246375 979.69615681 123.5 984.5 C113.74863649 990.08833568 103.84738868 995.36112055 93.90771484 1000.60351562 C85.3644378 1005.11241178 76.88246375 1009.69615681 68.5 1014.5 C58.74863649 1020.08833568 48.84738868 1025.36112055 38.90771484 1030.60351562 C29.46194223 1035.58872301 20.114804 1040.70583907 10.84912109 1046.02050781 C0.78939139 1051.75608203 -9.45837456 1057.13746485 -19.70507812 1062.52929688 C-20.38104034 1062.88566223 -21.05700256 1063.24202759 -21.75344849 1063.60919189 C-23.03302736 1064.28342302 -24.31348991 1064.95598044 -25.59494019 1065.62664795 C-28.48325234 1067.0453627 -28.48325234 1067.0453627 -31 1069 C-31.09708839 1070.44510531 -31.12447369 1071.89495073 -31.1241985 1073.34331375 C-31.12644579 1074.28874957 -31.12869308 1075.23418538 -31.13100848 1076.20827076 C-31.12838146 1077.26130304 -31.12575445 1078.31433533 -31.12304783 1079.39927769 C-31.12420167 1080.51138142 -31.12535552 1081.62348514 -31.12654433 1082.76928899 C-31.1292197 1086.54636689 -31.12468131 1090.32340332 -31.12025452 1094.10047913 C-31.12013401 1096.81546136 -31.12152218 1099.53044234 -31.12284368 1102.24542421 C-31.12492329 1108.17436205 -31.12326368 1114.10328988 -31.11920547 1120.03222656 C-31.1131877 1128.84843458 -31.11286806 1137.66463625 -31.11374746 1146.48084594 C-31.11506357 1161.30878164 -31.11171159 1176.13671289 -31.10573006 1190.96464729 C-31.09981984 1205.653311 -31.09596549 1220.34197285 -31.09487724 1235.03063774 C-31.0948085 1235.94278518 -31.09473976 1236.85493262 -31.09466894 1237.7947209 C-31.09433062 1242.42676149 -31.09402923 1247.05880208 -31.09374207 1251.69084268 C-31.09163977 1284.52835276 -31.08489717 1317.36586042 -31.07543945 1350.20336914 C-31.06626007 1382.11124661 -31.05917399 1414.01912342 -31.05493164 1445.92700195 C-31.05480011 1446.90995922 -31.05466859 1447.89291648 -31.05453308 1448.90566033 C-31.05321459 1458.77661785 -31.05193878 1468.64757538 -31.05069422 1478.51853292 C-31.04815777 1498.62811357 -31.04533652 1518.73769419 -31.04234314 1538.84727478 C-31.04220585 1539.7719492 -31.04206856 1540.69662362 -31.04192711 1541.64931848 C-31.03272121 1603.43288 -31.0168754 1665.21644016 -31 1727 C-27.10286577 1725.47343193 -23.45499159 1723.72953669 -19.7578125 1721.76171875 C-19.16198364 1721.44500214 -18.56615479 1721.12828552 -17.95227051 1720.80197144 C-16.00818311 1719.76689987 -14.06646042 1718.72748959 -12.125 1717.6875 C-11.11792999 1717.14970413 -11.11792999 1717.14970413 -10.09051514 1716.6010437 C-0.61552603 1711.53923838 8.76983864 1706.34323409 18.09326172 1701.0065918 C26.99129101 1695.94269158 36.03715897 1691.17240037 45.09173584 1686.39675903 C53.63519778 1681.88777224 62.11735745 1677.30394566 70.5 1672.5 C80.25136351 1666.91166432 90.15261132 1661.63887945 100.09228516 1656.39648438 C108.6355622 1651.88758822 117.11753625 1647.30384319 125.5 1642.5 C135.25136351 1636.91166432 145.15261132 1631.63887945 155.09228516 1626.39648438 C163.6355622 1621.88758822 172.11753625 1617.30384319 180.5 1612.5 C190.25136351 1606.91166432 200.15261132 1601.63887945 210.09228516 1596.39648438 C218.6355622 1591.88758822 227.11753625 1587.30384319 235.5 1582.5 C245.25136351 1576.91166432 255.15261132 1571.63887945 265.09228516 1566.39648438 C273.6355622 1561.88758822 282.11753625 1557.30384319 290.5 1552.5 C300.24833318 1546.91340096 310.146118 1541.64134279 320.08322144 1536.40151978 C329.7621441 1531.29465222 339.33435819 1526.04028643 348.83203125 1520.6015625 C356.25471465 1516.37063296 363.80294003 1512.42017737 371.39697266 1508.50732422 C377.99899702 1505.08855826 384.4861131 1501.50680618 390.9375 1497.8125 C400.19347228 1492.5141649 409.56744458 1487.47377543 419 1482.5 C428.24232403 1477.6257096 437.43298514 1472.69614744 446.5 1467.5 C456.25136351 1461.91166432 466.15261132 1456.63887945 476.09228516 1451.39648438 C484.6355622 1446.88758822 493.11753625 1442.30384319 501.5 1437.5 C511.25136351 1431.91166432 521.15261132 1426.63887945 531.09228516 1421.39648438 C539.6355622 1416.88758822 548.11753625 1412.30384319 556.5 1407.5 C566.25136351 1401.91166432 576.15261132 1396.63887945 586.09228516 1391.39648438 C594.6355622 1386.88758822 603.11753625 1382.30384319 611.5 1377.5 C621.25136351 1371.91166432 631.15261132 1366.63887945 641.09228516 1361.39648438 C649.6355622 1356.88758822 658.11753625 1352.30384319 666.5 1347.5 C676.25136351 1341.91166432 686.15261132 1336.63887945 696.09228516 1331.39648438 C704.6355622 1326.88758822 713.11753625 1322.30384319 721.5 1317.5 C731.25136351 1311.91166432 741.15261132 1306.63887945 751.09228516 1301.39648438 C759.6355622 1296.88758822 768.11753625 1292.30384319 776.5 1287.5 C786.24639979 1281.91450895 796.142382 1276.64393676 806.07717896 1271.40454102 C815.79535257 1266.27603537 825.43355657 1261.03718384 834.95507812 1255.54882812 C843.20562524 1250.80915212 851.56592351 1246.46509932 860 1242 C860 1024.86 860 807.72 860 584 C857.12939463 584 855.41025703 585.27139139 852.890625 586.640625 Z " fill="#040404" transform="translate(1474,522)"/>
<path d="M0 0 C0.8362793 0.40589355 1.67255859 0.81178711 2.53417969 1.22998047 C33.23579964 16.28612742 61.35782815 38.15887686 75.8125 69.9375 C76.22943115 70.83009521 76.22943115 70.83009521 76.65478516 71.74072266 C81.77212044 83.53582229 82.44545723 95.82303905 82.40405273 108.48193359 C82.40977106 110.08363822 82.41674091 111.68533878 82.42485046 113.28703308 C82.44263612 117.59505208 82.44164124 121.90286579 82.43590808 126.21091032 C82.43279476 129.82627184 82.43893233 133.44159513 82.44494683 137.05695117 C82.4589427 145.59561766 82.45747225 154.134184 82.44604492 162.67285156 C82.43457003 171.44002745 82.44864012 180.20689719 82.4754414 188.97403276 C82.49769415 196.54055392 82.50421429 204.10697966 82.49836498 211.67353117 C82.49501683 216.1753973 82.49726622 220.67706733 82.51461601 225.17890549 C82.53023675 229.41614092 82.52596469 233.65292758 82.50731087 237.89014626 C82.50366631 239.4314917 82.50661025 240.97287155 82.51719666 242.51418495 C82.69750567 270.97220198 70.31585954 294.16594181 50.8125 314.5 C-4.81225982 368.48873747 -90.10501754 379.34136224 -163.99609375 378.31640625 C-178.14581246 378.06422851 -192.01342776 377.28759972 -206 375 C-207.91329102 374.69400879 -207.91329102 374.69400879 -209.86523438 374.38183594 C-260.97949061 366.06944842 -310.90977279 349.24540139 -349 313 C-349.71929688 312.34515625 -350.43859375 311.6903125 -351.1796875 311.015625 C-367.87404948 295.32694747 -379.19839566 271.72811495 -380.13142776 248.76545906 C-380.13440243 247.65096823 -380.13737709 246.53647739 -380.14044189 245.38821411 C-380.14615204 244.0989653 -380.15186218 242.80971649 -380.15774536 241.48139954 C-380.15899047 240.0697938 -380.16011562 238.65818795 -380.16113281 237.24658203 C-380.16576709 235.74605692 -380.17079256 234.24553298 -380.17617798 232.74501038 C-380.18925112 228.68036391 -380.19573776 224.61573393 -380.20018864 220.55106974 C-380.2031295 218.00391199 -380.20723633 215.45675864 -380.21169281 212.90960312 C-380.22535857 204.91817247 -380.23502795 196.926752 -380.2388947 188.93531048 C-380.24336384 179.75236343 -380.26086222 170.56956609 -380.2898953 161.38666451 C-380.31162551 154.26274671 -380.3216051 147.13887066 -380.32293582 140.01492012 C-380.3239764 135.77282874 -380.32972202 131.53087824 -380.34775543 127.28882217 C-380.36443199 123.28814131 -380.36629852 119.28770423 -380.35761642 115.28700066 C-380.3568562 113.83315177 -380.36105135 112.3792887 -380.37107468 110.92547417 C-380.42170649 103.11188058 -379.98237954 95.67343461 -378.64959717 87.98532104 C-378.53117564 87.30183598 -378.41275412 86.61835091 -378.29074407 85.91415417 C-372.78620574 56.87484775 -350.46800547 33.05167891 -327.02880859 16.61083984 C-288.13232193 -9.82522715 -241.2073136 -22.42751423 -195 -28 C-194.08347656 -28.11714355 -193.16695312 -28.23428711 -192.22265625 -28.35498047 C-128.82935738 -36.18605428 -57.65403784 -28.19049876 0 0 Z M-277 46 C-277.70044434 46.33499512 -278.40088867 46.66999023 -279.12255859 47.01513672 C-299.28271886 56.83374568 -320.09596241 71.15765957 -328 93 C-330.92372908 102.4383469 -329.27200435 112.30959863 -325 121 C-315.15925199 138.85691964 -298.6086158 149.87022878 -281 159 C-280.36175293 159.33741211 -279.72350586 159.67482422 -279.06591797 160.02246094 C-211.47102248 195.3808523 -120.22156756 194.87594051 -48.80444336 172.54052734 C-21.29496332 163.57344802 12.19146484 148.95082331 26.85546875 122.28515625 C31.50201542 113.00792143 33.62577886 104.44584018 30.9375 94.1875 C25.01759579 76.67107111 11.4442222 64.38185018 -4 55 C-4.6609668 54.5968457 -5.32193359 54.19369141 -6.00292969 53.77832031 C-17.49892836 46.87010125 -29.38907348 41.53150285 -42 37 C-43.13743652 36.59056152 -43.13743652 36.59056152 -44.29785156 36.17285156 C-73.80874351 25.77010142 -105.08341967 21.28060409 -136.25 20.375 C-137.37365967 20.34231018 -137.37365967 20.34231018 -138.52001953 20.30895996 C-185.74961993 18.99591079 -234.04885065 25.4324932 -277 46 Z M27.1875 190.8125 C-22.55301985 225.81508805 -88.93732518 236.5320022 -148.5 236.3125 C-149.53838013 236.31067719 -150.57676025 236.30885437 -151.64660645 236.30697632 C-209.03762255 236.13843756 -276.29236849 226.11628779 -323.88671875 191.203125 C-326.6364356 188.80745071 -326.6364356 188.80745071 -329 189 C-329.09318788 197.02414245 -329.16400959 205.04805414 -329.20724869 213.07260609 C-329.22801431 216.79982092 -329.25612611 220.52666219 -329.30175781 224.25366211 C-329.3456147 227.85877272 -329.36921972 231.46352685 -329.37950897 235.0688839 C-329.38682972 236.435855 -329.4011229 237.80280933 -329.42292023 239.16962624 C-329.67728814 255.80009045 -324.17779469 266.58616819 -312.875 278.5625 C-268.33210872 321.27799061 -196.03022182 329.37923944 -137.22416687 328.17344666 C-108.7151441 327.48064592 -80.32549626 323.23648092 -53 315 C-52.16919922 314.75056641 -51.33839844 314.50113281 -50.48242188 314.24414062 C-31.58016474 308.42230529 -11.67279642 300.24437221 4 288 C4.52980469 287.58927246 5.05960938 287.17854492 5.60546875 286.75537109 C18.14408428 276.93178186 29.3003353 265.34187945 32 249 C32.26798916 244.29000521 32.23296436 239.59129088 32.1953125 234.875 C32.1915756 233.51880096 32.18873183 232.1625992 32.18673706 230.80639648 C32.1791538 227.26198685 32.15955195 223.71774492 32.1373291 220.17340088 C32.11675534 216.54661323 32.10771085 212.91979811 32.09765625 209.29296875 C32.07630021 202.1952445 32.04222958 195.09763328 32 188 C30.14037047 188 28.61442317 189.74543136 27.1875 190.8125 Z " fill="#040404" transform="translate(1568,1056)"/>
<path d="M0 0 C1.63702881 0.93005859 1.63702881 0.93005859 3.30712891 1.87890625 C4.22795761 2.40206421 4.22795761 2.40206421 5.16738892 2.93579102 C6.8283594 3.9003272 8.45925855 4.91619271 10.0859375 5.9375 C42.68553653 26.38000391 80.07095012 38.60249404 118.10595703 43.73242188 C120.73001415 44.10313167 123.33097228 44.58529936 125.9375 45.0625 C142.30285309 47.74103982 158.59148492 48.32136018 175.15185547 48.26074219 C178.6001164 48.25007696 182.04784905 48.26067531 185.49609375 48.2734375 C207.03225077 48.28934032 228.38261752 47.16902966 249.5625 43.125 C251.03622361 42.85141869 252.51002049 42.57823184 253.98388672 42.30541992 C256.79729686 41.7804819 259.60833655 41.24505546 262.41748047 40.69775391 C264.49306852 40.2934994 266.5697137 39.89445857 268.64892578 39.50927734 C298.50949985 33.9461562 332.34181266 21.20820958 356.88671875 3.203125 C360 1 360 1 362 1 C362.11655565 9.13722333 362.20504616 17.27408995 362.25906086 25.41194534 C362.28500339 29.19192529 362.32011376 32.97132845 362.37719727 36.75097656 C362.43207422 40.40798241 362.46153546 44.06443839 362.47438622 47.72182465 C362.48352761 49.10753775 362.50137487 50.49322545 362.52865028 51.87870026 C362.84100366 68.42368161 356.52825145 80.14500005 345.375 92.0625 C311.84396552 124.02788306 259.84730163 136.32906703 215 140 C214.02659668 140.08540039 213.05319336 140.17080078 212.05029297 140.25878906 C202.47849952 141.0346211 192.97002682 141.15960456 183.375 141.125 C182.58219635 141.12311676 181.7893927 141.12123352 180.9725647 141.11929321 C123.55196743 140.95956067 57.48067426 131.35213969 15 89 C14.32324219 88.34644531 13.64648438 87.69289063 12.94921875 87.01953125 C4.82904472 78.57527045 -0.13731189 67.42013963 -0.11352539 55.7409668 C-0.11344986 54.50005783 -0.11337433 53.25914886 -0.11329651 51.9806366 C-0.10819072 50.63683023 -0.10297474 49.29302429 -0.09765625 47.94921875 C-0.09578965 46.56631013 -0.09436689 45.18340085 -0.09336853 43.80049133 C-0.08956237 40.17225294 -0.07974843 36.544055 -0.06866455 32.91583252 C-0.05840945 29.20886787 -0.05386215 25.50189664 -0.04882812 21.79492188 C-0.03812435 14.52992954 -0.0210709 7.26497045 0 0 Z " fill="#FEFEFE" transform="translate(753,971)"/>
<path d="M0 0 C0.66 0.33 1.32 0.66 2 1 C-0.97 3.97 -3.94 6.94 -7 10 C-7 6.04435836 -5.59478606 4.89133304 -3 2 C-2.01 1.34 -1.02 0.68 0 0 Z " fill="#525252" transform="translate(464,1041)"/>
</svg>
