<?xml version="1.0" encoding="UTF-8"?>
<!DOCTYPE svg PUBLIC "-//W3C//DTD SVG 1.1//EN" "http://www.w3.org/Graphics/SVG/1.1/DTD/svg11.dtd">
<svg xmlns="http://www.w3.org/2000/svg" version="1.1" width="800px" height="800px" style="shape-rendering:geometricPrecision; text-rendering:geometricPrecision; image-rendering:optimizeQuality; fill-rule:evenodd; clip-rule:evenodd" xmlns:xlink="http://www.w3.org/1999/xlink" viewBox="0 0 800 800">
<g><path style="opacity:0.977" fill="#000000" d="M 229.5,-0.5 C 236.5,-0.5 243.5,-0.5 250.5,-0.5C 281.334,38.5045 312,77.6712 342.5,117C 380.5,117.667 418.5,117.667 456.5,117C 487.763,78.2446 518.43,39.078 548.5,-0.5C 555.5,-0.5 562.5,-0.5 569.5,-0.5C 608.976,61.6916 620.143,128.692 603,200.5C 598.924,213.728 594.258,226.728 589,239.5C 586.843,252.558 587.176,265.558 590,278.5C 595.535,298.305 601.535,317.972 608,337.5C 620.995,378.296 620.662,418.963 607,459.5C 602.197,474.241 597.197,488.908 592,503.5C 571.069,556.794 550.235,610.127 529.5,663.5C 533.092,686.13 533.258,708.797 530,731.5C 524.826,759.03 509.66,778.863 484.5,791C 477.107,793.959 469.773,796.793 462.5,799.5C 420.5,799.5 378.5,799.5 336.5,799.5C 321.81,794.822 308.143,787.988 295.5,779C 281.042,765.589 272.209,749.089 269,729.5C 268.019,720.507 267.186,711.507 266.5,702.5C 267.508,688.826 268.341,675.16 269,661.5C 247.804,607.579 226.804,553.579 206,499.5C 196.154,473.446 188.487,446.779 183,419.5C 179.98,394.344 182.313,369.678 190,345.5C 196.405,325.62 202.405,305.62 208,285.5C 212.356,269.946 213.022,254.279 210,238.5C 175.805,155.441 182.305,75.7748 229.5,-0.5 Z M 247.5,76.5 C 266.331,98.9822 284.331,122.149 301.5,146C 275.968,186.716 275.135,227.882 299,269.5C 300.133,271.211 301.633,271.711 303.5,271C 313.833,266.5 324.167,262 334.5,257.5C 355.395,299.555 388.228,327.888 433,342.5C 434.819,340.874 436.152,338.874 437,336.5C 447.231,313.705 457.731,291.038 468.5,268.5C 481.037,270.783 493.537,273.117 506,275.5C 511.863,240.487 511.863,205.487 506,170.5C 504.062,161.854 501.229,153.521 497.5,145.5C 515.5,122.5 533.5,99.5 551.5,76.5C 563.295,110.962 565.128,145.962 557,181.5C 551.127,198.787 545.46,216.12 540,233.5C 536.803,256.529 538.469,279.196 545,301.5C 553.016,325.214 560.016,349.214 566,373.5C 570.517,397.701 568.517,421.367 560,444.5C 539.61,503.608 517.276,561.941 493,619.5C 486.902,633.293 482.735,647.626 480.5,662.5C 481.678,675.653 482.678,688.82 483.5,702C 483.383,712.054 481.883,721.888 479,731.5C 477.561,734.603 475.727,737.436 473.5,740C 460.191,748.882 445.525,754.216 429.5,756C 399.914,760.861 370.914,758.527 342.5,749C 326.631,744.464 318.131,733.964 317,717.5C 316.259,699.467 316.759,681.467 318.5,663.5C 318.695,657.68 317.862,652.013 316,646.5C 295,592.5 274,538.5 253,484.5C 243.431,459.462 236.098,433.795 231,407.5C 230.102,395.678 231.102,384.012 234,372.5C 241.333,347.167 248.667,321.833 256,296.5C 262.125,273.633 262.792,250.633 258,227.5C 253.34,214.177 248.673,200.843 244,187.5C 234.46,150.14 235.627,113.14 247.5,76.5 Z M 337.5,166.5 C 379.167,166.5 420.833,166.5 462.5,166.5C 468.164,186.465 470.164,206.798 468.5,227.5C 460.042,225.224 451.542,224.224 443,224.5C 433.772,245.953 423.772,266.953 413,287.5C 391.865,273.598 377.199,254.598 369,230.5C 367,220.5 365,210.5 363,200.5C 349.907,206.296 336.74,211.962 323.5,217.5C 322.06,198.82 326.727,181.82 337.5,166.5 Z"/></g>
<g><path style="opacity:0.923" fill="#000000" d="M 277.5,360.5 C 306.749,358.934 323.082,372.601 326.5,401.5C 324.855,422.294 314.189,435.794 294.5,442C 270.178,444.967 253.678,435.134 245,412.5C 240.772,385.312 251.605,367.979 277.5,360.5 Z"/></g>
<g><path style="opacity:0.923" fill="#000000" d="M 508.5,360.5 C 537.749,358.934 554.082,372.601 557.5,401.5C 555.855,422.294 545.189,435.794 525.5,442C 501.178,444.967 484.678,435.134 476,412.5C 471.772,385.312 482.605,367.979 508.5,360.5 Z"/></g>
<g><path style="opacity:0.913" fill="#000000" d="M 434.5,653.5 C 448.755,650.66 459.588,655.327 467,667.5C 472.882,676.956 475.049,687.289 473.5,698.5C 474.437,711.795 471.104,723.795 463.5,734.5C 460.615,737.546 457.282,740.046 453.5,742C 438.889,746.276 427.723,742.11 420,729.5C 417.405,724.712 415.405,719.712 414,714.5C 412.793,700.998 413.626,687.665 416.5,674.5C 420.194,665.368 426.194,658.368 434.5,653.5 Z"/></g>
<g><path style="opacity:0.913" fill="#000000" d="M 350.5,654.5 C 364.755,651.66 375.588,656.327 383,668.5C 388.882,677.956 391.049,688.289 389.5,699.5C 390.437,712.795 387.104,724.795 379.5,735.5C 376.615,738.546 373.282,741.046 369.5,743C 354.889,747.276 343.723,743.11 336,730.5C 333.405,725.712 331.405,720.712 330,715.5C 328.793,701.998 329.626,688.665 332.5,675.5C 336.194,666.368 342.194,659.368 350.5,654.5 Z"/></g>
</svg>
