<?xml version="1.0" standalone="no"?>
<!DOCTYPE svg PUBLIC "-//W3C//DTD SVG 20010904//EN"
 "http://www.w3.org/TR/2001/REC-SVG-20010904/DTD/svg10.dtd">
<svg version="1.0" xmlns="http://www.w3.org/2000/svg"
 width="1280.000000pt" height="1200.000000pt" viewBox="0 0 1280.000000 1200.000000"
 preserveAspectRatio="xMidYMid meet">
<metadata>
Created by potrace 1.15, written by Peter Selinger 2001-2017
</metadata>
<g transform="translate(0.000000,1200.000000) scale(0.100000,-0.100000)"
fill="#000000" stroke="none">
<path d="M7855 11986 c-83 -16 -185 -43 -192 -50 -9 -8 56 -114 117 -189 184
-232 339 -295 601 -245 48 9 66 7 110 -7 l52 -18 -45 -17 c-89 -33 -174 -107
-246 -213 l-33 -47 63 -30 c159 -74 354 -96 453 -51 28 12 63 34 78 49 28 27
67 91 67 112 0 19 -197 12 -380 -15 -27 -4 -30 -3 -14 4 42 19 231 52 324 57
l95 5 135 -66 135 -67 -60 -17 c-79 -22 -165 -79 -244 -159 l-63 -66 23 -19
c44 -36 203 -107 289 -128 109 -28 191 -22 264 19 56 32 124 118 107 135 -6 6
-101 13 -218 15 -254 7 -223 21 57 27 l185 3 140 -91 139 -92 -59 -7 c-73 -8
-150 -37 -221 -84 -61 -41 -141 -110 -134 -116 46 -41 153 -112 216 -145 144
-75 280 -91 372 -44 45 23 112 87 112 106 0 21 -257 75 -357 75 -23 0 -45 5
-48 10 -12 19 255 1 367 -25 31 -7 59 -11 62 -8 5 5 249 -198 261 -216 3 -6
-17 -7 -48 -4 -33 3 -77 -1 -117 -11 -72 -18 -208 -83 -255 -122 l-30 -25 73
-70 c176 -170 358 -245 494 -205 56 16 157 92 141 106 -25 22 -214 83 -373
121 -41 9 -65 18 -54 18 47 2 275 -42 357 -70 49 -16 92 -27 97 -24 8 5 201
-204 238 -256 15 -21 14 -22 -4 -14 -10 5 -58 10 -105 13 -67 3 -104 -1 -163
-17 -61 -17 -186 -70 -205 -87 -11 -10 117 -158 201 -231 162 -141 334 -172
458 -82 36 26 40 33 29 44 -24 23 -240 127 -334 161 -113 41 -95 43 39 4 115
-33 230 -79 293 -116 28 -16 43 -20 43 -12 0 9 4 8 15 -2 18 -18 215 -313 211
-317 -1 -1 -22 7 -46 20 -62 30 -209 36 -317 12 -92 -20 -153 -43 -153 -57 0
-16 68 -126 128 -205 142 -191 314 -270 464 -214 73 28 84 42 55 68 -43 40
-213 151 -307 202 -52 28 -92 51 -88 51 10 0 156 -64 228 -100 36 -18 101 -57
144 -87 59 -40 81 -51 87 -41 7 11 123 -215 177 -344 l11 -27 -47 30 c-75 48
-142 64 -267 63 -114 0 -225 -18 -225 -36 0 -5 17 -51 39 -102 76 -182 195
-332 308 -387 64 -31 163 -37 232 -14 28 9 51 20 51 25 0 19 -232 227 -350
313 -14 10 2 4 35 -14 83 -43 205 -132 286 -207 43 -40 69 -58 69 -48 0 33 17
14 33 -36 15 -45 95 -301 114 -363 4 -15 -5 -10 -37 19 -56 51 -149 93 -244
111 -88 17 -252 20 -261 5 -9 -14 30 -166 65 -256 63 -158 144 -265 242 -319
48 -27 62 -30 145 -30 54 0 97 5 103 11 16 16 -120 194 -247 322 -92 93 -91
99 2 24 60 -47 215 -207 252 -258 39 -54 53 -65 53 -40 0 8 4 17 9 20 9 6 81
-422 81 -481 0 -3 -15 17 -33 43 -73 108 -233 181 -454 208 l-53 7 0 -46 c0
-134 59 -374 116 -471 52 -89 142 -162 223 -179 35 -8 141 -9 148 -1 13 12
-154 294 -237 403 l-61 78 80 -83 c83 -86 181 -222 238 -327 18 -33 33 -55 33
-49 0 5 7 19 15 30 13 17 14 -11 14 -246 l0 -265 -29 57 c-51 99 -160 188
-298 244 -75 30 -182 58 -190 49 -4 -4 -7 -91 -7 -193 0 -208 11 -266 67 -381
57 -118 152 -188 268 -198 33 -3 60 -3 60 0 0 41 -100 293 -170 425 -27 50
-46 92 -44 92 8 0 109 -161 152 -240 34 -63 81 -177 107 -255 5 -18 8 -16 27
13 11 18 22 32 23 30 3 -3 -1 -35 -26 -208 -5 -41 -22 -138 -36 -215 l-26
-140 -17 62 c-31 113 -110 208 -248 298 -39 24 -98 57 -132 72 -74 32 -71 34
-101 -92 -30 -124 -37 -344 -15 -438 20 -86 54 -152 103 -201 43 -44 144 -96
185 -96 32 0 32 -17 -7 186 -13 73 -42 185 -64 250 -21 66 -38 120 -36 122 1
1 19 -35 40 -80 53 -116 102 -265 121 -366 23 -125 21 -122 56 -82 20 24 28
29 24 15 -39 -137 -107 -341 -162 -485 l-29 -75 -6 76 c-9 114 -51 191 -164
305 -88 88 -209 179 -225 169 -12 -8 -85 -197 -112 -290 -18 -66 -22 -105 -23
-220 0 -136 1 -142 31 -205 17 -36 50 -84 73 -107 44 -43 139 -96 155 -86 15
10 -2 366 -23 488 -11 60 -18 111 -17 113 4 4 43 -140 61 -226 13 -58 30 -221
38 -346 l2 -39 33 27 c17 15 32 25 32 22 0 -27 -297 -572 -307 -563 -1 2 2 21
8 43 16 55 6 179 -20 244 -31 83 -106 190 -195 280 -44 44 -82 80 -85 80 -12
0 -106 -155 -153 -250 -68 -141 -92 -232 -93 -355 0 -92 3 -106 31 -165 32
-67 96 -140 145 -166 15 -8 30 -10 33 -6 19 32 60 356 67 542 2 40 3 38 9 -20
11 -92 11 -303 1 -380 -5 -36 -12 -90 -17 -120 l-7 -54 24 15 c13 9 37 24 54
35 l30 19 -33 -45 c-97 -136 -394 -500 -407 -500 -2 0 6 21 17 47 29 65 36
196 14 283 -9 36 -36 106 -61 155 -45 91 -137 225 -154 225 -16 0 -169 -179
-227 -265 -169 -255 -184 -475 -42 -630 27 -30 53 -55 58 -55 23 0 134 352
165 520 l13 75 1 -54 c2 -112 -46 -355 -98 -494 -16 -42 -25 -77 -20 -77 5 0
32 9 61 20 l51 19 -39 -40 c-91 -95 -540 -474 -519 -438 5 8 19 28 31 45 112
148 100 394 -31 654 -42 83 -30 85 -174 -30 -178 -143 -297 -293 -341 -429
-41 -130 -17 -280 62 -375 l24 -29 51 79 c68 107 173 319 213 432 18 51 34 91
36 89 7 -6 -63 -241 -95 -322 -40 -99 -100 -220 -135 -271 -24 -35 -25 -39 -9
-42 10 -1 42 4 71 11 28 8 52 12 52 10 0 -19 -642 -393 -675 -393 -4 0 15 20
41 44 62 56 109 133 130 216 24 95 15 302 -19 428 -14 52 -29 98 -33 102 -13
12 -188 -77 -302 -154 -223 -148 -334 -308 -335 -481 -1 -72 22 -163 49 -200
15 -19 18 -17 87 56 92 97 213 254 277 360 68 114 71 119 60 85 -44 -125 -224
-412 -321 -511 -27 -28 -49 -54 -49 -57 0 -4 33 -8 73 -10 l72 -3 -90 -37
c-184 -77 -391 -146 -670 -225 -11 -3 14 17 55 45 42 28 92 72 114 101 47 63
90 173 106 271 12 75 11 353 -1 365 -9 8 -145 -27 -256 -66 -279 -98 -457
-246 -508 -423 -19 -66 -17 -205 4 -244 11 -21 13 -20 84 30 137 98 289 233
407 363 63 70 63 70 24 15 -116 -166 -297 -356 -411 -433 -34 -23 -63 -45 -63
-48 0 -7 56 -23 131 -37 33 -6 67 -5 113 5 147 30 391 97 571 158 105 35 181
57 170 49 -96 -68 -144 -114 -120 -114 75 0 722 -94 734 -106 3 -3 -21 -3 -54
0 -62 7 -634 46 -672 46 -20 0 -21 -2 -9 -47 18 -68 41 -109 92 -163 123 -132
358 -154 640 -62 132 44 207 78 332 155 l83 50 -53 54 c-127 130 -316 248
-454 283 -90 23 -154 25 -244 6 -36 -8 -66 -13 -68 -11 -1 1 23 13 55 25 110
44 419 197 563 280 80 45 150 85 155 88 6 3 -11 -17 -36 -44 -26 -28 -52 -60
-58 -73 -12 -22 -12 -22 31 -17 87 12 318 25 508 30 l195 5 -365 -48 c-201
-27 -366 -49 -368 -50 -1 0 9 -24 23 -51 34 -68 95 -126 164 -159 51 -24 67
-26 176 -26 108 1 129 4 210 32 99 34 227 102 320 168 77 55 215 175 215 187
0 13 -114 84 -215 132 -127 62 -213 86 -330 93 -89 5 -108 3 -175 -20 -41 -14
-76 -24 -78 -22 -2 1 39 32 91 68 122 86 341 256 442 345 44 38 81 69 82 68 2
-2 -11 -28 -28 -60 -17 -31 -29 -60 -26 -63 3 -3 68 12 143 32 153 42 526 126
532 120 2 -2 -7 -6 -20 -10 -13 -4 -149 -47 -303 -95 -154 -49 -292 -92 -307
-96 -16 -3 -28 -10 -28 -14 0 -4 14 -26 30 -49 37 -51 106 -96 179 -118 218
-63 554 133 789 461 l34 46 -54 24 c-139 62 -294 96 -432 96 -117 0 -186 -16
-260 -62 l-50 -30 51 58 c28 33 66 73 83 89 43 40 211 230 293 333 60 74 83
91 58 44 -4 -9 -11 -34 -15 -54 l-7 -37 144 69 c135 65 479 211 495 210 4 -1
-24 -17 -63 -36 -38 -20 -177 -92 -308 -162 l-238 -125 32 -33 c17 -17 54 -45
82 -60 47 -26 61 -29 142 -29 100 1 153 18 255 84 84 54 209 185 282 296 70
106 136 231 126 240 -3 3 -38 13 -79 22 -55 13 -120 17 -249 17 -214 0 -248
-9 -389 -111 -17 -13 -6 9 36 72 72 107 230 369 267 443 14 28 29 52 32 52 3
0 2 -26 -2 -57 -6 -49 -5 -56 7 -47 117 92 549 376 549 361 0 -2 -21 -19 -47
-38 -40 -28 -347 -266 -448 -347 -27 -22 -28 -23 -9 -37 41 -31 111 -58 165
-62 152 -14 308 87 435 282 71 109 96 163 144 301 31 91 38 119 28 126 -19 14
-282 1 -363 -17 -100 -22 -206 -75 -271 -137 l-57 -53 26 50 c29 59 164 399
198 500 l24 70 3 -40 c1 -22 5 -46 8 -54 3 -10 53 32 152 130 81 80 190 183
242 230 108 96 114 103 -150 -185 -74 -82 -150 -165 -167 -186 l-33 -38 38
-18 c46 -22 167 -30 216 -14 97 32 191 121 265 252 62 110 122 308 137 452 l7
67 -44 -7 c-179 -25 -312 -64 -407 -121 -58 -34 -122 -94 -163 -154 -13 -19
-11 -3 8 71 14 52 45 190 68 305 37 181 44 205 50 172 4 -20 11 -39 15 -42 4
-2 33 35 66 83 32 48 110 152 173 232 170 217 179 223 50 29 -173 -259 -240
-372 -229 -383 6 -6 48 -11 98 -11 75 0 94 4 138 27 135 71 232 259 263 513
12 97 14 227 5 262 -6 21 -7 21 -57 6 -224 -65 -408 -187 -467 -307 -12 -26
-23 -46 -25 -44 -1 2 2 39 6 83 4 44 11 172 15 285 7 193 8 202 22 172 9 -18
18 -32 21 -31 3 0 36 62 73 137 70 142 210 394 216 388 2 -2 -10 -30 -26 -62
-45 -89 -212 -472 -212 -485 0 -8 22 -10 73 -7 202 13 317 180 334 484 6 111
-16 320 -37 354 -7 12 -20 9 -72 -15 -193 -92 -337 -226 -381 -356 l-15 -44
-7 80 c-11 133 -35 347 -45 404 -11 62 -9 71 10 36 7 -14 16 -25 19 -25 3 0
30 73 59 163 51 154 140 391 141 374 1 -4 -13 -53 -29 -110 -71 -240 -118
-438 -106 -443 18 -7 102 14 145 36 75 38 140 139 161 250 14 76 12 204 -5
304 -15 88 -71 276 -82 276 -29 0 -199 -140 -266 -218 -54 -63 -107 -166 -107
-206 0 -51 -16 -25 -34 57 -16 70 -75 286 -101 367 -8 25 -7 25 13 7 20 -18
20 -18 26 0 2 10 8 45 11 78 6 48 43 246 82 428 15 70 10 5 -12 -174 -13 -106
-27 -229 -30 -271 -7 -78 -7 -78 17 -78 39 0 125 49 163 92 55 65 70 123 69
263 -1 99 -6 135 -28 210 -27 90 -121 295 -135 295 -5 0 -45 -38 -90 -85 -120
-125 -176 -220 -201 -340 l-12 -58 -47 114 c-26 63 -68 158 -94 213 -26 54
-47 101 -47 104 0 3 8 -2 19 -12 17 -16 18 -10 25 186 13 338 21 366 29 103 4
-126 10 -247 13 -267 l6 -38 35 15 c60 25 111 73 140 132 24 50 27 69 27 148
1 105 -24 195 -84 318 -42 83 -137 227 -151 227 -19 0 -112 -132 -160 -228
-47 -92 -53 -112 -58 -187 l-6 -84 -68 114 c-37 63 -90 148 -118 190 -37 57
-45 75 -31 71 18 -6 18 -3 11 46 -16 98 -39 337 -38 390 l1 53 9 -55 c27 -169
73 -416 79 -423 21 -24 119 64 148 132 41 97 8 259 -82 407 -50 82 -188 254
-204 254 -14 0 -91 -143 -123 -230 -27 -71 -32 -100 -33 -177 -1 -67 -4 -89
-12 -80 -6 7 -50 59 -97 117 -47 58 -103 124 -122 148 -20 23 -30 39 -21 36
21 -8 20 -7 -9 90 -30 100 -87 355 -82 369 2 6 11 -18 21 -54 32 -113 118
-374 126 -383 14 -14 68 32 97 82 25 41 28 57 28 132 0 75 -4 93 -32 152 -42
89 -82 146 -161 229 -63 68 -150 139 -169 139 -15 0 -70 -151 -89 -242 -16
-80 -15 -186 2 -233 4 -11 -33 18 -82 65 -49 47 -115 107 -147 134 -31 28 -52
53 -47 56 6 4 -2 33 -21 76 -38 84 -141 365 -136 371 2 2 14 -20 26 -49 42
-103 176 -377 184 -378 12 0 56 50 75 85 11 20 17 55 17 105 0 107 -41 185
-155 301 -80 81 -226 189 -256 189 -16 0 -40 -77 -55 -175 -13 -80 -7 -221 10
-254 7 -12 11 -26 9 -30 -4 -11 -281 186 -284 202 -1 7 -17 37 -36 67 -43 68
-181 330 -176 335 2 2 23 -29 47 -68 45 -73 190 -299 197 -306 7 -8 36 24 56
63 82 159 -65 375 -348 512 -52 26 -97 45 -99 42 -9 -8 -25 -137 -25 -198 0
-75 21 -185 44 -229 16 -29 12 -28 -134 47 -82 42 -150 81 -150 85 0 4 -24 38
-54 75 -45 56 -165 227 -190 270 -18 31 7 6 60 -60 32 -40 94 -115 138 -167
l80 -94 24 49 c19 41 22 61 19 117 -4 59 -9 75 -43 124 -21 31 -64 76 -94 101
-80 64 -292 162 -350 162 -18 0 -20 -7 -20 -87 0 -110 21 -212 59 -285 l29
-57 -52 21 c-28 11 -129 49 -225 84 -95 35 -246 100 -335 144 -176 88 -176 89
-6 23 63 -24 151 -57 195 -73 44 -15 111 -40 149 -55 l69 -26 -5 53 c-5 68
-45 155 -92 201 -41 42 -124 87 -206 112 -75 23 -283 29 -375 11z m3242 -8488
c-3 -8 -6 -5 -6 6 -1 11 2 17 5 13 3 -3 4 -12 1 -19z"/>
<path d="M4215 11956 c-55 -18 -123 -44 -150 -58 -85 -43 -175 -118 -213 -176
-35 -52 -37 -60 -37 -137 0 -63 4 -87 19 -110 l19 -29 69 74 c38 41 101 113
140 160 102 121 109 126 43 30 -58 -85 -186 -249 -221 -283 -28 -28 -295 -155
-288 -137 46 104 62 218 49 354 -7 78 -7 78 -33 72 -55 -12 -231 -108 -294
-160 -152 -126 -202 -258 -144 -382 13 -28 28 -54 34 -58 8 -5 108 132 236
324 20 30 36 52 36 49 0 -12 -115 -217 -176 -314 l-63 -100 -138 -91 -139 -90
18 50 c20 58 24 202 8 286 -17 91 -30 130 -43 130 -20 0 -167 -94 -225 -144
-69 -59 -132 -134 -168 -199 -26 -46 -29 -62 -29 -138 0 -78 3 -90 30 -135 17
-27 38 -50 46 -52 10 -2 47 61 122 209 59 117 107 209 107 205 0 -14 -113
-292 -143 -351 -16 -33 -33 -70 -36 -82 -5 -18 -185 -183 -254 -233 -19 -14
-20 -14 -14 4 28 72 15 221 -30 357 -39 120 -37 119 -113 61 -144 -110 -263
-261 -300 -380 -24 -77 -25 -112 -5 -178 14 -48 80 -134 102 -134 10 0 108
261 149 394 10 32 20 54 22 48 4 -14 -62 -272 -97 -374 -16 -49 -25 -88 -20
-88 6 0 -27 -42 -73 -93 -46 -50 -103 -116 -128 -145 l-46 -54 4 70 c3 49 -2
94 -17 153 -23 92 -107 269 -127 269 -6 0 -44 -35 -84 -77 -231 -248 -300
-496 -178 -643 22 -27 88 -73 95 -66 7 7 88 376 98 447 4 28 9 48 12 45 7 -6
-23 -263 -46 -396 -10 -60 -14 -108 -9 -111 5 -3 -25 -54 -67 -114 -41 -59
-91 -134 -111 -166 -19 -33 -36 -59 -37 -59 -1 0 -3 29 -4 65 -4 110 -80 283
-173 394 -29 34 -30 34 -49 17 -38 -34 -122 -166 -166 -259 -98 -206 -100
-372 -6 -479 36 -41 114 -88 126 -76 8 8 24 191 31 360 11 235 26 145 22 -133
-2 -186 0 -235 9 -232 7 3 13 3 13 0 0 -4 -33 -73 -73 -154 -40 -81 -82 -168
-92 -193 l-18 -45 -8 47 c-13 84 -40 148 -99 237 -53 78 -174 211 -183 200
-14 -17 -78 -131 -92 -164 -144 -338 -114 -588 79 -676 61 -28 83 -25 80 9
-10 88 -35 474 -32 478 8 8 78 -440 78 -500 0 -6 5 -5 12 2 26 26 23 8 -12
-95 -20 -60 -52 -161 -70 -225 l-34 -118 -13 50 c-33 130 -134 257 -307 385
-37 28 -39 29 -52 10 -21 -28 -81 -220 -93 -296 -18 -108 -14 -258 9 -331 35
-114 106 -192 199 -218 38 -11 91 -13 91 -5 0 9 -109 478 -120 514 -5 19 -8
37 -6 39 7 6 130 -379 152 -470 18 -78 26 -92 38 -62 17 44 14 -7 -8 -147 -14
-85 -28 -185 -32 -224 -7 -71 -22 -130 -23 -91 -2 62 -114 203 -227 287 -60
44 -202 124 -209 117 -8 -8 -35 -123 -45 -193 -44 -310 42 -572 211 -644 49
-21 151 -33 164 -19 4 4 -41 125 -98 270 -58 145 -104 264 -102 266 5 5 178
-344 216 -435 19 -46 37 -83 40 -83 3 0 11 10 17 23 8 17 11 -22 11 -163 1
-102 4 -223 6 -270 l6 -85 -22 45 c-13 25 -55 77 -94 116 -58 58 -94 82 -183
127 -120 60 -217 95 -229 83 -5 -4 -8 -85 -7 -179 1 -202 20 -300 84 -434 65
-133 157 -208 272 -220 56 -5 119 6 125 23 2 5 -66 125 -151 267 -84 141 -152
257 -151 257 8 0 214 -287 278 -387 40 -62 75 -113 79 -113 4 0 11 15 16 33
l9 32 6 -30 c4 -16 14 -84 22 -150 9 -66 28 -176 41 -244 14 -67 23 -125 21
-127 -2 -2 -16 14 -32 35 -76 111 -292 213 -518 245 -56 9 -55 15 -31 -143 20
-137 38 -207 80 -310 110 -264 288 -386 478 -326 31 10 56 20 56 24 0 6 -250
308 -353 426 l-62 70 65 -56 c36 -31 139 -135 230 -231 l165 -175 9 39 c9 38
10 35 71 -149 34 -103 79 -230 99 -281 20 -52 36 -95 36 -97 0 -2 -22 18 -48
44 -56 56 -149 103 -259 132 -84 21 -278 40 -330 32 -30 -5 -32 -8 -27 -32 98
-410 329 -702 557 -704 34 0 85 7 112 16 49 17 105 52 95 59 -3 3 -84 71 -180
153 -96 82 -202 171 -235 199 -33 27 -67 56 -75 64 -42 41 325 -218 439 -311
l86 -68 5 47 5 47 23 -49 c37 -77 170 -320 229 -417 29 -48 53 -90 53 -93 0
-3 -17 9 -38 25 -98 79 -247 116 -433 107 -64 -2 -146 -10 -183 -17 -78 -13
-77 -7 -14 -136 129 -265 332 -471 511 -519 111 -29 218 -6 298 64 l42 38
-194 114 c-107 62 -238 138 -291 169 -54 30 -96 56 -94 58 6 6 388 -176 496
-236 93 -51 105 -56 108 -39 2 11 -1 33 -7 50 -6 17 -10 33 -8 34 1 2 46 -54
99 -124 79 -105 208 -261 322 -391 19 -21 15 -20 -36 9 -32 17 -81 38 -110 46
-71 18 -226 18 -329 -2 -92 -17 -265 -70 -273 -83 -9 -14 107 -173 192 -263
283 -297 579 -372 759 -192 29 29 53 57 53 63 0 5 -19 16 -43 25 -23 8 -121
44 -217 80 -96 35 -224 83 -285 105 -60 22 -106 40 -101 41 19 0 389 -102 524
-145 79 -26 146 -45 148 -43 2 2 -8 28 -21 57 -14 29 -25 56 -25 59 0 4 37
-30 83 -74 97 -95 257 -233 379 -328 103 -80 114 -92 56 -66 -114 50 -261 46
-430 -10 -85 -29 -234 -99 -292 -138 l-28 -20 78 -78 c183 -180 387 -300 581
-340 149 -31 281 4 368 97 42 45 84 114 74 122 -2 2 -146 27 -319 57 -355 59
-398 67 -360 69 62 2 575 -48 663 -65 36 -7 34 3 -9 66 -20 29 -30 49 -22 44
7 -4 50 -32 96 -61 125 -80 330 -197 464 -264 65 -32 118 -61 118 -63 0 -2
-26 3 -57 10 -141 33 -292 0 -475 -105 -90 -51 -253 -181 -253 -201 0 -19 146
-117 255 -171 184 -91 326 -129 485 -129 146 0 264 48 329 133 30 39 76 135
76 159 0 18 8 18 -584 4 -98 -3 -176 -3 -174 -1 8 8 487 56 621 62 75 3 137 9
137 13 0 5 -26 32 -59 62 l-58 55 96 -39 c101 -42 198 -56 290 -43 l44 7 -66
66 c-97 99 -224 275 -291 404 -33 62 -57 111 -53 108 3 -3 32 -46 65 -96 66
-100 202 -262 309 -367 l70 -68 24 53 c20 44 24 69 24 153 0 91 -3 106 -31
165 -43 90 -101 160 -196 235 -89 70 -266 170 -370 209 l-67 26 -11 -41 c-40
-147 -51 -324 -29 -445 21 -115 80 -208 184 -292 l40 -32 -55 22 c-166 67
-759 384 -680 364 42 -11 140 -19 140 -12 0 4 -18 33 -39 65 -76 111 -163 301
-213 459 -23 76 -18 93 7 25 50 -137 274 -518 299 -510 6 2 29 38 51 81 37 72
39 82 39 164 0 134 -45 233 -168 375 -87 100 -330 285 -359 274 -17 -6 -68
-132 -99 -242 -17 -61 -22 -107 -22 -195 0 -139 18 -193 95 -289 28 -35 45
-60 37 -55 -87 52 -448 334 -568 443 l-55 51 45 -19 c48 -20 100 -34 100 -27
0 2 -11 28 -24 59 -57 129 -118 373 -130 522 l-5 70 23 -105 c33 -146 117
-385 173 -494 l15 -28 33 32 c36 35 88 126 99 174 13 52 8 166 -9 224 -38 129
-140 284 -289 436 l-87 89 -35 -49 c-55 -76 -102 -164 -136 -256 -29 -74 -32
-95 -32 -194 -1 -107 0 -112 35 -183 l36 -72 -59 58 c-132 129 -450 503 -429
503 6 0 13 -5 16 -10 8 -13 85 -53 91 -47 2 2 -5 48 -17 103 -17 78 -22 143
-25 304 -2 124 0 195 5 180 5 -14 10 -52 10 -85 2 -110 64 -461 85 -482 6 -7
65 37 102 75 14 15 40 56 58 92 29 61 31 72 30 170 0 87 -5 119 -27 183 -37
107 -83 195 -168 322 l-72 108 -69 -72 c-189 -198 -262 -404 -202 -573 7 -21
11 -38 8 -38 -14 0 -273 421 -345 562 l-22 43 42 -38 c22 -20 45 -37 50 -37 5
0 9 63 10 140 0 137 14 254 47 398 21 93 28 87 12 -9 -14 -82 -18 -502 -5
-515 13 -14 114 45 153 88 20 23 48 66 63 97 24 52 26 65 25 196 0 137 -1 143
-41 261 -43 126 -107 264 -122 264 -17 0 -137 -94 -193 -152 -117 -121 -168
-227 -168 -350 -1 -71 -1 -72 -16 -45 -36 66 -214 528 -214 555 0 3 15 -9 34
-27 l34 -33 7 48 c20 155 89 397 137 484 10 19 16 26 13 15 -37 -113 -86 -349
-100 -484 l-6 -64 33 7 c130 26 235 142 267 294 15 74 14 221 -4 320 -13 77
-51 227 -62 244 -6 11 -137 -57 -208 -107 -127 -90 -204 -198 -229 -319 l-13
-61 -31 130 c-26 109 -92 442 -92 463 0 4 12 -11 26 -31 14 -21 27 -37 29 -35
2 2 15 39 30 83 33 100 112 268 171 363 25 39 47 72 49 72 2 0 -20 -51 -50
-112 -50 -106 -125 -311 -140 -387 l-7 -34 53 6 c149 18 255 128 305 317 19
72 25 310 11 413 -10 68 -12 69 -124 29 -184 -65 -321 -175 -365 -294 l-23
-63 -7 55 c-3 30 -9 159 -13 285 -5 209 -5 227 9 198 8 -18 17 -33 20 -33 3 0
20 28 37 63 46 90 132 221 205 308 89 107 106 117 39 24 -69 -96 -117 -178
-181 -308 -57 -114 -54 -121 39 -113 109 11 206 78 270 187 58 99 106 313 107
473 l0 58 -57 -7 c-205 -25 -399 -129 -453 -240 -12 -25 -24 -45 -26 -45 -8 0
39 430 55 500 l8 35 7 -32 c4 -18 11 -33 14 -33 4 0 27 31 52 68 24 37 98 121
165 188 131 132 215 193 99 73 -123 -129 -284 -342 -269 -357 4 -4 48 -7 98
-7 75 0 100 4 138 23 130 64 236 242 288 484 12 54 21 102 21 108 0 15 -156
12 -247 -5 -105 -20 -211 -73 -262 -132 -23 -25 -41 -42 -41 -37 0 13 74 293
102 387 22 74 38 98 38 57 0 -25 12 -26 27 -1 22 36 187 173 283 235 106 70
140 89 95 54 -151 -117 -355 -310 -355 -335 0 -20 66 -38 140 -38 59 0 86 5
125 25 96 46 183 147 257 295 36 70 91 215 85 221 -12 12 -168 26 -247 21
-110 -6 -188 -31 -255 -83 -25 -19 -45 -32 -45 -31 0 17 155 369 177 402 13
19 13 19 13 -4 0 -23 0 -23 38 7 78 60 166 115 273 168 61 30 113 54 115 52 1
-2 -32 -24 -74 -48 -86 -50 -312 -217 -312 -230 0 -4 21 -19 48 -32 70 -34
187 -32 259 5 70 36 179 140 241 230 48 70 117 196 110 202 -2 2 -37 13 -78
25 -155 44 -343 35 -421 -21 -16 -11 -29 -17 -29 -13 0 11 70 128 154 259 46
72 72 103 74 92 2 -10 7 -17 10 -15 4 2 49 25 101 51 85 44 328 134 336 125 2
-2 -46 -25 -108 -51 -89 -37 -284 -141 -306 -163 -9 -9 24 -35 74 -59 42 -19
70 -25 123 -25 62 0 79 5 153 42 66 33 102 60 169 127 47 47 104 114 128 149
l44 63 -64 28 c-110 50 -175 65 -278 65 -66 0 -106 -5 -132 -16 -21 -10 -38
-15 -38 -13 0 7 249 303 260 310 6 4 7 -1 3 -11 -5 -14 -3 -16 13 -9 114 47
262 88 379 104 86 12 97 7 19 -9 -114 -24 -384 -122 -384 -140 0 -4 18 -24 40
-43 137 -125 363 -62 584 162 l79 79 -59 38 c-32 21 -93 52 -134 68 -67 27
-87 31 -179 31 l-103 0 83 79 c130 122 199 179 199 166 0 -8 8 -10 23 -6 80
23 189 38 297 41 105 3 114 3 56 -5 -79 -10 -242 -44 -315 -66 l-52 -15 22
-31 c30 -42 101 -85 165 -99 119 -27 309 50 481 194 l43 35 -37 33 c-105 92
-231 150 -330 152 -35 1 -63 4 -63 7 0 3 62 47 136 99 l136 94 144 5 c79 2
183 1 231 -4 l88 -8 -150 -7 c-144 -7 -272 -22 -283 -34 -11 -11 58 -91 103
-120 43 -27 59 -30 139 -33 80 -3 102 0 180 27 80 27 199 87 251 127 19 15 17
18 -56 87 -87 83 -158 125 -248 147 l-63 16 145 75 145 75 139 -13 c76 -7 172
-22 213 -33 41 -11 62 -17 45 -14 -16 3 -110 8 -209 11 l-178 6 7 -24 c8 -28
50 -86 80 -111 66 -57 193 -72 330 -39 79 20 221 73 239 91 11 11 -10 45 -71
117 -54 63 -135 120 -204 143 l-51 18 103 40 c259 100 380 129 574 137 l110 5
-90 -14 c-104 -17 -298 -65 -400 -99 l-69 -24 45 -44 c164 -165 411 -130 716
100 43 33 88 70 101 84 l23 24 -75 52 c-155 106 -308 158 -435 147 -111 -10
-271 -101 -331 -189 -19 -28 -39 -41 -83 -56 l-58 -20 22 30 c44 63 79 204 79
326 0 34 -3 64 -7 66 -5 3 -53 -10 -108 -27z m-3478 -3328 c-3 -8 -6 -5 -6 6
-1 11 2 17 5 13 3 -3 4 -12 1 -19z"/>
<path d="M4735 1375 c-9 -67 1 -203 22 -305 37 -188 125 -313 270 -386 43 -21
80 -41 83 -45 9 -10 136 -29 191 -29 56 0 151 19 182 36 15 9 5 18 -65 67
-106 72 -258 209 -345 312 -114 134 -120 151 -17 48 109 -109 241 -215 379
-305 108 -70 110 -69 110 78 0 95 -2 103 -37 176 -88 178 -305 309 -638 384
-58 13 -110 24 -117 24 -7 0 -14 -23 -18 -55z"/>
<path d="M4255 875 c70 -34 521 -173 531 -163 2 2 -42 17 -99 33 -56 15 -174
52 -262 82 -173 59 -217 71 -170 48z"/>
<path d="M4700 700 c-157 -11 -268 -61 -419 -190 -81 -70 -244 -257 -236 -270
9 -15 259 -108 345 -128 323 -78 579 -43 720 98 52 52 91 136 97 211 l6 62
-29 -6 c-16 -4 -112 -25 -214 -47 -102 -23 -237 -52 -300 -66 -63 -13 -131
-29 -150 -34 -36 -10 -66 -13 -59 -6 7 8 491 154 617 187 118 31 122 33 105
50 -44 43 -163 99 -267 123 -58 14 -107 25 -108 24 -2 0 -50 -4 -108 -8z"/>
<path d="M7600 627 c-61 -10 -266 -106 -261 -122 2 -5 81 -35 175 -66 94 -31
234 -80 311 -109 77 -28 159 -59 183 -67 73 -26 38 -26 -49 1 -46 13 -172 48
-279 76 -166 44 -239 64 -352 96 -42 12 -6 -172 46 -241 66 -86 136 -131 261
-167 111 -31 333 -31 481 0 97 21 240 64 317 97 l37 15 -39 58 c-148 217 -362
389 -521 421 -74 14 -242 19 -310 8z"/>
</g>
</svg>
